<?xml version="1.0" encoding="us-ascii" standalone="no"?><svg xmlns="http://www.w3.org/2000/svg" xmlns:xlink="http://www.w3.org/1999/xlink" contentStyleType="text/css" height="939.5833px" preserveAspectRatio="none" style="width:1168px;height:939px;" version="1.1" viewBox="0 0 1168 939" width="1168.75px" zoomAndPan="magnify"><defs/><g><!--cluster cd--><g id="cluster_cd"><rect fill="none" height="910.4167" rx="4.1667" ry="4.1667" style="stroke:#033C73;stroke-width:1.0416666666666667;" width="1130.2083" x="17.7083" y="17.7083"/><line style="stroke:#033C73;stroke-width:1.0416666666666667;" x1="17.7083" x2="1147.9167" y1="49.3168" y2="49.3168"/><text fill="#000000" font-family="Verdana" font-size="12.5" font-weight="bold" lengthAdjust="spacing" textLength="114.5833" x="525.5208" y="38.3626">classify_diabetes()</text></g><!--entity sssy--><g id="elem_sssy"><path d="M209.375,83.3333 C209.375,72.9167 237.5,72.9167 237.5,72.9167 C237.5,72.9167 265.625,72.9167 265.625,83.3333 L265.625,120.1501 C265.625,130.5668 237.5,130.5668 237.5,130.5668 C237.5,130.5668 209.375,130.5668 209.375,120.1501 L209.375,83.3333 " fill="none" style="stroke:#2FA4E7;stroke-width:1.0416666666666667;"/><path d="M209.375,83.3333 C209.375,93.75 237.5,93.75 237.5,93.75 C237.5,93.75 265.625,93.75 265.625,83.3333 " fill="none" style="stroke:#2FA4E7;stroke-width:1.0416666666666667;"/><text fill="#000000" font-family="Verdana" font-size="12.5" lengthAdjust="spacing" textLength="25" x="225" y="116.4876">sssy</text></g><!--entity sysi--><g id="elem_sysi"><path d="M119.2708,83.3333 C119.2708,72.9167 145.8333,72.9167 145.8333,72.9167 C145.8333,72.9167 172.3958,72.9167 172.3958,83.3333 L172.3958,120.1501 C172.3958,130.5668 145.8333,130.5668 145.8333,130.5668 C145.8333,130.5668 119.2708,130.5668 119.2708,120.1501 L119.2708,83.3333 " fill="none" style="stroke:#2FA4E7;stroke-width:1.0416666666666667;"/><path d="M119.2708,83.3333 C119.2708,93.75 145.8333,93.75 145.8333,93.75 C145.8333,93.75 172.3958,93.75 172.3958,83.3333 " fill="none" style="stroke:#2FA4E7;stroke-width:1.0416666666666667;"/><text fill="#000000" font-family="Verdana" font-size="12.5" lengthAdjust="spacing" textLength="21.875" x="134.8958" y="116.4876">sysi</text></g><!--entity lpr_diag--><g id="elem_lpr_diag"><path d="M552.0833,83.3333 C552.0833,72.9167 590.625,72.9167 590.625,72.9167 C590.625,72.9167 629.1667,72.9167 629.1667,83.3333 L629.1667,120.1501 C629.1667,130.5668 590.625,130.5668 590.625,130.5668 C590.625,130.5668 552.0833,130.5668 552.0833,120.1501 L552.0833,83.3333 " fill="none" style="stroke:#2FA4E7;stroke-width:1.0416666666666667;"/><path d="M552.0833,83.3333 C552.0833,93.75 590.625,93.75 590.625,93.75 C590.625,93.75 629.1667,93.75 629.1667,83.3333 " fill="none" style="stroke:#2FA4E7;stroke-width:1.0416666666666667;"/><text fill="#000000" font-family="Verdana" font-size="12.5" lengthAdjust="spacing" textLength="45.8333" x="567.7083" y="116.4876">lpr_diag</text></g><!--entity lpr_adm--><g id="elem_lpr_adm"><path d="M666.1458,83.3333 C666.1458,72.9167 705.2083,72.9167 705.2083,72.9167 C705.2083,72.9167 744.2708,72.9167 744.2708,83.3333 L744.2708,120.1501 C744.2708,130.5668 705.2083,130.5668 705.2083,130.5668 C705.2083,130.5668 666.1458,130.5668 666.1458,120.1501 L666.1458,83.3333 " fill="none" style="stroke:#2FA4E7;stroke-width:1.0416666666666667;"/><path d="M666.1458,83.3333 C666.1458,93.75 705.2083,93.75 705.2083,93.75 C705.2083,93.75 744.2708,93.75 744.2708,83.3333 " fill="none" style="stroke:#2FA4E7;stroke-width:1.0416666666666667;"/><text fill="#000000" font-family="Verdana" font-size="12.5" lengthAdjust="spacing" textLength="46.875" x="681.7708" y="116.4876">lpr_adm</text></g><!--entity lmdb--><g id="elem_lmdb"><path d="M913.5417,83.3333 C913.5417,72.9167 943.75,72.9167 943.75,72.9167 C943.75,72.9167 973.9583,72.9167 973.9583,83.3333 L973.9583,120.1501 C973.9583,130.5668 943.75,130.5668 943.75,130.5668 C943.75,130.5668 913.5417,130.5668 913.5417,120.1501 L913.5417,83.3333 " fill="none" style="stroke:#2FA4E7;stroke-width:1.0416666666666667;"/><path d="M913.5417,83.3333 C913.5417,93.75 943.75,93.75 943.75,93.75 C943.75,93.75 973.9583,93.75 973.9583,83.3333 " fill="none" style="stroke:#2FA4E7;stroke-width:1.0416666666666667;"/><text fill="#000000" font-family="Verdana" font-size="12.5" lengthAdjust="spacing" textLength="29.1667" x="929.1667" y="116.4876">lmdb</text></g><!--entity lab_forsker--><g id="elem_lab_forsker"><path d="M781.25,83.3333 C781.25,72.9167 829.1667,72.9167 829.1667,72.9167 C829.1667,72.9167 877.0833,72.9167 877.0833,83.3333 L877.0833,120.1501 C877.0833,130.5668 829.1667,130.5668 829.1667,130.5668 C829.1667,130.5668 781.25,130.5668 781.25,120.1501 L781.25,83.3333 " fill="none" style="stroke:#2FA4E7;stroke-width:1.0416666666666667;"/><path d="M781.25,83.3333 C781.25,93.75 829.1667,93.75 829.1667,93.75 C829.1667,93.75 877.0833,93.75 877.0833,83.3333 " fill="none" style="stroke:#2FA4E7;stroke-width:1.0416666666666667;"/><text fill="#000000" font-family="Verdana" font-size="12.5" lengthAdjust="spacing" textLength="64.5833" x="796.875" y="116.4876">lab_forsker</text></g><!--entity kontakter--><g id="elem_kontakter"><path d="M302.6042,83.3333 C302.6042,72.9167 345.8333,72.9167 345.8333,72.9167 C345.8333,72.9167 389.0625,72.9167 389.0625,83.3333 L389.0625,120.1501 C389.0625,130.5668 345.8333,130.5668 345.8333,130.5668 C345.8333,130.5668 302.6042,130.5668 302.6042,120.1501 L302.6042,83.3333 " fill="none" style="stroke:#2FA4E7;stroke-width:1.0416666666666667;"/><path d="M302.6042,83.3333 C302.6042,93.75 345.8333,93.75 345.8333,93.75 C345.8333,93.75 389.0625,93.75 389.0625,83.3333 " fill="none" style="stroke:#2FA4E7;stroke-width:1.0416666666666667;"/><text fill="#000000" font-family="Verdana" font-size="12.5" lengthAdjust="spacing" textLength="55.2083" x="318.2292" y="116.4876">kontakter</text></g><!--entity diagnoser--><g id="elem_diagnoser"><path d="M426.0417,83.3333 C426.0417,72.9167 470.8333,72.9167 470.8333,72.9167 C470.8333,72.9167 515.625,72.9167 515.625,83.3333 L515.625,120.1501 C515.625,130.5668 470.8333,130.5668 470.8333,130.5668 C470.8333,130.5668 426.0417,130.5668 426.0417,120.1501 L426.0417,83.3333 " fill="none" style="stroke:#2FA4E7;stroke-width:1.0416666666666667;"/><path d="M426.0417,83.3333 C426.0417,93.75 470.8333,93.75 470.8333,93.75 C470.8333,93.75 515.625,93.75 515.625,83.3333 " fill="none" style="stroke:#2FA4E7;stroke-width:1.0416666666666667;"/><text fill="#000000" font-family="Verdana" font-size="12.5" lengthAdjust="spacing" textLength="58.3333" x="441.6667" y="116.4876">diagnoser</text></g><!--entity bef--><g id="elem_bef"><path d="M1010.4167,83.3333 C1010.4167,72.9167 1035.4167,72.9167 1035.4167,72.9167 C1035.4167,72.9167 1060.4167,72.9167 1060.4167,83.3333 L1060.4167,120.1501 C1060.4167,130.5668 1035.4167,130.5668 1035.4167,130.5668 C1035.4167,130.5668 1010.4167,130.5668 1010.4167,120.1501 L1010.4167,83.3333 " fill="none" style="stroke:#2FA4E7;stroke-width:1.0416666666666667;"/><path d="M1010.4167,83.3333 C1010.4167,93.75 1035.4167,93.75 1035.4167,93.75 C1035.4167,93.75 1060.4167,93.75 1060.4167,83.3333 " fill="none" style="stroke:#2FA4E7;stroke-width:1.0416666666666667;"/><text fill="#000000" font-family="Verdana" font-size="12.5" lengthAdjust="spacing" textLength="18.75" x="1026.0417" y="116.4876">bef</text></g><!--entity lpr2--><g id="elem_lpr2"><polygon fill="none" points="542.7083,192.7083,657.2917,192.7083,667.7083,216.8459,657.2917,240.9835,542.7083,240.9835" style="stroke:#BABDBF;stroke-width:1.0416666666666667;"/><text fill="#000000" font-family="Verdana" font-size="12.5" lengthAdjust="spacing" textLength="83.3333" x="558.3333" y="221.6959">prepare_lpr2()</text></g><!--entity lpr3--><g id="elem_lpr3"><polygon fill="none" points="381.25,192.7083,495.8333,192.7083,506.25,216.8459,495.8333,240.9835,381.25,240.9835" style="stroke:#BABDBF;stroke-width:1.0416666666666667;"/><text fill="#000000" font-family="Verdana" font-size="12.5" lengthAdjust="spacing" textLength="83.3333" x="396.875" y="221.6959">prepare_lpr3()</text></g><!--entity ex_pregnancy--><g id="elem_ex_pregnancy"><polygon fill="#FFA500" points="847.3958,523.9583,998.4375,523.9583,1008.8542,548.0959,998.4375,572.2335,847.3958,572.2335" style="stroke:#BABDBF;stroke-width:1.0416666666666667;"/><text fill="#000000" font-family="Verdana" font-size="12.5" lengthAdjust="spacing" textLength="119.7917" x="863.0208" y="552.9459">exclude_pregnancy()</text></g><!--entity ex_pcos--><g id="elem_ex_pcos"><polygon fill="#FFA500" points="846.875,413.5417,1019.7917,413.5417,1030.2083,437.6792,1019.7917,461.8168,846.875,461.8168" style="stroke:#BABDBF;stroke-width:1.0416666666666667;"/><text fill="#000000" font-family="Verdana" font-size="12.5" lengthAdjust="spacing" textLength="141.6667" x="862.5" y="442.5293">exclude_potential_pcos()</text></g><!--entity in_diagnoses--><g id="elem_in_diagnoses"><polygon fill="#ADD8E6" points="284.8958,303.125,485.9375,303.125,496.3542,327.2626,485.9375,351.4001,284.8958,351.4001" style="stroke:#BABDBF;stroke-width:1.0416666666666667;"/><text fill="#000000" font-family="Verdana" font-size="12.5" lengthAdjust="spacing" textLength="169.7917" x="300.5208" y="332.1126">include_diabetes_diagnoses()</text></g><!--entity in_hba1c--><g id="elem_in_hba1c"><polygon fill="#ADD8E6" points="743.2292,303.125,865.1042,303.125,875.5208,327.2626,865.1042,351.4001,743.2292,351.4001" style="stroke:#BABDBF;stroke-width:1.0416666666666667;"/><text fill="#000000" font-family="Verdana" font-size="12.5" lengthAdjust="spacing" textLength="90.625" x="758.8542" y="332.1126">include_hba1c()</text></g><!--entity in_podiatrist--><g id="elem_in_podiatrist"><polygon fill="#ADD8E6" points="43.2292,303.125,238.0208,303.125,248.4375,327.2626,238.0208,351.4001,43.2292,351.4001" style="stroke:#BABDBF;stroke-width:1.0416666666666667;"/><text fill="#000000" font-family="Verdana" font-size="12.5" lengthAdjust="spacing" textLength="163.5417" x="58.8542" y="332.1126">include_podiatrist_services()</text></g><!--entity in_gld--><g id="elem_in_gld"><polygon fill="#ADD8E6" points="911.9792,303.125,1081.7708,303.125,1092.1875,327.2626,1081.7708,351.4001,911.9792,351.4001" style="stroke:#BABDBF;stroke-width:1.0416666666666667;"/><text fill="#000000" font-family="Verdana" font-size="12.5" lengthAdjust="spacing" textLength="138.5417" x="927.6042" y="332.1126">include_gld_purchases()</text></g><!--entity pregnancy--><g id="elem_pregnancy"><polygon fill="none" points="533.3333,303.125,695.8333,303.125,706.25,327.2626,695.8333,351.4001,533.3333,351.4001" style="stroke:#BABDBF;stroke-width:1.0416666666666667;"/><text fill="#000000" font-family="Verdana" font-size="12.5" lengthAdjust="spacing" textLength="131.25" x="548.9583" y="332.1126">get_pregnancy_dates()</text></g><!--entity join_inclusion--><g id="elem_join_inclusion"><polygon fill="none" points="327.0833,634.375,443.75,634.375,454.1667,658.5126,443.75,682.6501,327.0833,682.6501" style="stroke:#BABDBF;stroke-width:1.0416666666666667;"/><text fill="#000000" font-family="Verdana" font-size="12.5" lengthAdjust="spacing" textLength="85.4167" x="342.7083" y="663.3626">join_inclusion()</text></g><!--entity inclusion_date--><g id="elem_inclusion_date"><polygon fill="none" points="300,744.7917,470.8333,744.7917,481.25,768.9292,470.8333,793.0668,300,793.0668" style="stroke:#BABDBF;stroke-width:1.0416666666666667;"/><text fill="#000000" font-family="Verdana" font-size="12.5" lengthAdjust="spacing" textLength="139.5833" x="315.625" y="773.7793">create_inclusion_dates()</text></g><!--entity classify_t1d--><g id="elem_classify_t1d"><polygon fill="none" points="332.2917,855.2083,438.5417,855.2083,448.9583,879.3459,438.5417,903.4835,332.2917,903.4835" style="stroke:#BABDBF;stroke-width:1.0416666666666667;"/><text fill="#000000" font-family="Verdana" font-size="12.5" lengthAdjust="spacing" textLength="75" x="347.9167" y="884.1959">classify_t1d()</text></g><!--link lpr_diag to lpr2--><g id="link_lpr_diag_lpr2"><path d="M594.1875,130.25 C596.6563,149.3333 599.0973,168.2179 601.4202,186.2491 " fill="none" id="lpr_diag-to-lpr2" style="stroke:#2FA4E7;stroke-width:3.125;"/><polygon fill="#2FA4E7" points="602.2188,192.4479,605.1534,182.6174,601.5533,187.2823,596.8884,183.6821,602.2188,192.4479" style="stroke:#2FA4E7;stroke-width:3.125;"/></g><!--link lpr_adm to lpr2--><g id="link_lpr_adm_lpr2"><path d="M680.75,130.25 C663.8646,149.3333 645.8089,169.7364 629.8505,187.7677 " fill="none" id="lpr_adm-to-lpr2" style="stroke:#2FA4E7;stroke-width:3.125;"/><polygon fill="#2FA4E7" points="625.7083,192.4479,635.0418,188.189,629.1602,188.5477,628.8015,182.6661,625.7083,192.4479" style="stroke:#2FA4E7;stroke-width:3.125;"/></g><!--link kontakter to lpr3--><g id="link_kontakter_lpr3"><path d="M369.7813,130.25 C386.3229,149.3333 403.9591,169.6933 419.5841,187.7246 " fill="none" id="kontakter-to-lpr3" style="stroke:#2FA4E7;stroke-width:3.125;"/><polygon fill="#2FA4E7" points="423.6771,192.4479,420.6865,182.6343,420.2662,188.5118,414.3887,188.0916,423.6771,192.4479" style="stroke:#2FA4E7;stroke-width:3.125;"/></g><!--link diagnoser to lpr3--><g id="link_diagnoser_lpr3"><path d="M464.2083,130.25 C459.6354,149.3333 455.0821,168.3389 450.7592,186.3701 " fill="none" id="diagnoser-to-lpr3" style="stroke:#2FA4E7;stroke-width:3.125;"/><polygon fill="#2FA4E7" points="449.3021,192.4479,455.5396,184.3027,450.5164,187.3831,447.4359,182.3598,449.3021,192.4479" style="stroke:#2FA4E7;stroke-width:3.125;"/></g><!--link sssy to in_podiatrist--><g id="link_sssy_in_podiatrist"><path d="M226.0729,130.4479 C207.7917,175.0208 174.6528,255.7799 157.6841,297.1549 " fill="none" id="sssy-to-in_podiatrist" style="stroke:#2FA4E7;stroke-width:3.125;"/><polygon fill="#2FA4E7" points="155.3125,302.9375,162.7249,295.8447,157.2888,298.1187,155.0148,292.6826,155.3125,302.9375" style="stroke:#2FA4E7;stroke-width:3.125;"/></g><!--link sysi to in_podiatrist--><g id="link_sysi_in_podiatrist"><path d="M145.8333,130.4479 C145.8333,175.0208 145.8333,255.3125 145.8333,296.6875 " fill="none" id="sysi-to-in_podiatrist" style="stroke:#2FA4E7;stroke-width:3.125;"/><polygon fill="#2FA4E7" points="145.8333,302.9375,150,293.5625,145.8333,297.7292,141.6667,293.5625,145.8333,302.9375" style="stroke:#2FA4E7;stroke-width:3.125;"/></g><!--link in_podiatrist to join_inclusion--><g id="link_in_podiatrist_join_inclusion"><path d="M163.0417,351.2708 C207.9896,411.7083 324.7811,568.745 369.6977,629.1512 " fill="none" id="in_podiatrist-to-join_inclusion" style="stroke:#2FA4E7;stroke-width:3.125;"/><polygon fill="#2FA4E7" points="373.4271,634.1667,371.1767,624.1573,370.3193,629.9871,364.4894,629.1298,373.4271,634.1667" style="stroke:#2FA4E7;stroke-width:3.125;"/></g><!--link lab_forsker to in_hba1c--><g id="link_lab_forsker_in_hba1c"><path d="M826.6979,130.4479 C822.75,175.0208 815.635,255.3369 811.9684,296.7119 " fill="none" id="lab_forsker-to-in_hba1c" style="stroke:#2FA4E7;stroke-width:3.125;"/><polygon fill="#2FA4E7" points="811.4167,302.9375,816.3946,293.9669,811.8764,297.7495,808.0938,293.2313,811.4167,302.9375" style="stroke:#2FA4E7;stroke-width:3.125;"/></g><!--link in_hba1c to ex_pregnancy--><g id="link_in_hba1c_ex_pregnancy"><path d="M808.0833,351.3542 C807.5521,379.2396 809.9896,426.6042 829.1667,461.4583 C843.3854,487.3021 863.5673,505.3429 885.0256,520.3638 " fill="none" id="in_hba1c-to-ex_pregnancy" style="stroke:#2FA4E7;stroke-width:3.125;"/><polygon fill="#2FA4E7" points="890.1458,523.9479,884.855,515.1582,885.879,520.9611,880.0761,521.9852,890.1458,523.9479" style="stroke:#2FA4E7;stroke-width:3.125;"/></g><!--link lmdb to in_gld--><g id="link_lmdb_in_gld"><path d="M951.0208,130.4479 C962.6563,175.0208 983.6712,255.5152 994.4733,296.8902 " fill="none" id="lmdb-to-in_gld" style="stroke:#2FA4E7;stroke-width:3.125;"/><polygon fill="#2FA4E7" points="996.0521,302.9375,997.7154,292.814,994.7364,297.8981,989.6523,294.9191,996.0521,302.9375" style="stroke:#2FA4E7;stroke-width:3.125;"/></g><!--link in_gld to ex_pcos--><g id="link_in_gld_ex_pcos"><path d="M988.6042,351.1042 C977.8229,369.4792 965.9314,389.7539 955.1606,408.1289 " fill="none" id="in_gld-to-ex_pcos" style="stroke:#2FA4E7;stroke-width:3.125;"/><polygon fill="#2FA4E7" points="952,413.5208,960.3355,407.54,954.6338,409.0275,953.1462,403.3258,952,413.5208" style="stroke:#2FA4E7;stroke-width:3.125;"/></g><!--link ex_pcos to ex_pregnancy--><g id="link_ex_pcos_ex_pregnancy"><path d="M936.3333,461.5208 C934.5625,479.8958 932.6898,499.341 930.9294,517.716 " fill="none" id="ex_pcos-to-ex_pregnancy" style="stroke:#2FA4E7;stroke-width:3.125;"/><polygon fill="#2FA4E7" points="930.3333,523.9375,935.3751,515.0026,930.83,518.7529,927.0797,514.2079,930.3333,523.9375" style="stroke:#2FA4E7;stroke-width:3.125;"/></g><!--link lpr2 to in_diagnoses--><g id="link_lpr2_in_diagnoses"><path d="M559.6979,240.6875 C523.2813,259.0625 478.0483,281.913 441.6421,300.288 " fill="none" id="lpr2-to-in_diagnoses" style="stroke:#2FA4E7;stroke-width:3.125;"/><polygon fill="#2FA4E7" points="436.0625,303.1042,446.3093,302.5997,440.7122,300.7574,442.5545,295.1602,436.0625,303.1042" style="stroke:#2FA4E7;stroke-width:3.125;"/></g><!--link lpr3 to in_diagnoses--><g id="link_lpr3_in_diagnoses"><path d="M432.4792,240.6875 C423.4688,259.0625 413.6372,279.1175 404.6267,297.4925 " fill="none" id="lpr3-to-in_diagnoses" style="stroke:#2FA4E7;stroke-width:3.125;"/><polygon fill="#2FA4E7" points="401.875,303.1042,409.7437,296.5212,404.1681,298.4278,402.2615,292.8522,401.875,303.1042" style="stroke:#2FA4E7;stroke-width:3.125;"/></g><!--link in_diagnoses to join_inclusion--><g id="link_in_diagnoses_join_inclusion"><path d="M390.625,351.2708 C390.625,411.7083 390.625,567.5104 390.625,627.9167 " fill="none" id="in_diagnoses-to-join_inclusion" style="stroke:#2FA4E7;stroke-width:3.125;"/><polygon fill="#2FA4E7" points="390.625,634.1667,394.7917,624.7917,390.625,628.9583,386.4583,624.7917,390.625,634.1667" style="stroke:#2FA4E7;stroke-width:3.125;"/></g><!--link bef to ex_pcos--><g id="link_bef_ex_pcos"><path d="M1057.1667,130.2396 C1093.2917,179.7604 1157.1979,285.3333 1109.375,359.375 C1091.4583,387.1146 1066.7433,402.7726 1036.3788,414.2309 " fill="none" id="bef-to-ex_pcos" style="stroke:#2FA4E7;stroke-width:3.125;"/><polygon fill="#2FA4E7" points="1030.5313,416.4375,1040.7736,417.0259,1035.4042,414.5987,1037.8314,409.2292,1030.5313,416.4375" style="stroke:#2FA4E7;stroke-width:3.125;"/></g><!--link lpr2 to pregnancy--><g id="link_lpr2_pregnancy"><path d="M608.3021,240.6875 C610.7708,259.0625 613.3935,278.5353 615.8727,296.9103 " fill="none" id="lpr2-to-pregnancy" style="stroke:#2FA4E7;stroke-width:3.125;"/><polygon fill="#2FA4E7" points="616.7083,303.1042,619.5841,293.2562,616.0119,297.9426,611.3256,294.3705,616.7083,303.1042" style="stroke:#2FA4E7;stroke-width:3.125;"/></g><!--link lpr3 to pregnancy--><g id="link_lpr3_pregnancy"><path d="M481.0833,240.6875 C510.9583,259.0625 547.3227,281.454 577.1873,299.829 " fill="none" id="lpr3-to-pregnancy" style="stroke:#2FA4E7;stroke-width:3.125;"/><polygon fill="#2FA4E7" points="582.5104,303.1042,576.7092,294.6426,578.0745,300.3748,572.3423,301.7401,582.5104,303.1042" style="stroke:#2FA4E7;stroke-width:3.125;"/></g><!--link pregnancy to ex_pregnancy--><g id="link_pregnancy_ex_pregnancy"><path d="M650.7292,351.0521 C687.0208,377.8438 749.0833,423.3542 803.125,461.4583 C833.625,482.9688 863.5702,503.3984 888.8098,520.4401 " fill="none" id="pregnancy-to-ex_pregnancy" style="stroke:#2FA4E7;stroke-width:3.125;"/><polygon fill="#2FA4E7" points="893.9896,523.9375,888.5514,515.2382,889.6731,521.023,883.8882,522.1446,893.9896,523.9375" style="stroke:#2FA4E7;stroke-width:3.125;"/></g><!--link ex_pregnancy to join_inclusion--><g id="link_ex_pregnancy_join_inclusion"><path d="M870.4896,571.9167 C861.6146,574.9792 852.5,577.8646 843.75,580.2083 C707.3125,616.7396 549.1324,638.8581 460.6741,649.4935 " fill="none" id="ex_pregnancy-to-join_inclusion" style="stroke:#2FA4E7;stroke-width:3.125;"/><polygon fill="#2FA4E7" points="454.4688,650.2396,464.2741,653.2574,459.6398,649.6179,463.2793,644.9836,454.4688,650.2396" style="stroke:#2FA4E7;stroke-width:3.125;"/></g><!--link join_inclusion to inclusion_date--><g id="link_join_inclusion_inclusion_date"><path d="M390.625,682.3542 C390.625,700.7292 390.625,720.1458 390.625,738.5208 " fill="none" id="join_inclusion-to-inclusion_date" style="stroke:#2FA4E7;stroke-width:3.125;"/><polygon fill="#2FA4E7" points="390.625,744.7708,394.7917,735.3958,390.625,739.5625,386.4583,735.3958,390.625,744.7708" style="stroke:#2FA4E7;stroke-width:3.125;"/></g><!--link inclusion_date to classify_t1d--><g id="link_inclusion_date_classify_t1d"><path d="M390.625,792.7708 C390.625,811.1458 390.625,830.5625 390.625,848.9375 " fill="none" id="inclusion_date-to-classify_t1d" style="stroke:#2FA4E7;stroke-width:3.125;"/><polygon fill="#2FA4E7" points="390.625,855.1875,394.7917,845.8125,390.625,849.9792,386.4583,845.8125,390.625,855.1875" style="stroke:#2FA4E7;stroke-width:3.125;"/></g><!--SRC=[ZLLDRzim3BtxLsYzh0MI3MrlGv331knl6BB4s5eKoP3aeSQG_pxIiIJBITFcb3oIZr-FofVGmGcO03Teu6PhXw2LWMhdmwXXNt4Hb3KR9hYJ6oPvu0tti64EHE2crS3-LGm_lwq9lwosZZMQYsDrhhuf8_JWCNfs-Obuw-nWvCLHgxOBZHw0dE7jlhDrc8qyTz_dogfEIM2xNKgptpCVm84DOm_HcdXBQqNzCA6vz-emrbBn1WBunoV6FHDoAYBO5d0wRgueziwyz-CA6Rqg4Tqx8cslKIvFA_0acnN2c_fWdJ-2Amr7738_XZLCYOprQxY10mBdwhgLorBPG- -WvmvghElbyUc1UgUlx_cyPf_N3vYdiKkeCRert8Xn3eMt39NRkHrk0vYWkAvxOVs20tzTXT-hPn894iP5rt5caLIP39MYkidJDVnPvD3fvoV2Uej9WbC-rBYklqeiysVZ9vXQBUj-SABZHGy8tmd6qUJnroYK59hGECSOyiSYQ-ARlKlmpjY50qoINOkS9Lh6nSCCptBsNaAnoAzK2CaHlyUBOzljFgfulhSbb4ueWgJaT40P9FPKu0-ss4rS77hGIp255DiZ0pu8DmtbcidZUfRBl9Emg9Fy94JUQ4ho8tnvNsikqaQI377YmnF9q7QX8gT8X4U6O3otZ-ZZQQLf-ii6NcAE5Vvw2o_Ey9tnvByARYJhGFSubCDW9kqG2JvygnvI6KkTfngMO7wThlfbvUjrepgs0kOE2vbJ1r7CIl19xylYI_U9eP3-kVeF]--></g></svg>