<?xml version="1.0" encoding="us-ascii" standalone="no"?><svg xmlns="http://www.w3.org/2000/svg" xmlns:xlink="http://www.w3.org/1999/xlink" contentStyleType="text/css" height="1160.4167px" preserveAspectRatio="none" style="width:1170px;height:1160px;" version="1.1" viewBox="0 0 1170 1160" width="1170.8333px" zoomAndPan="magnify"><defs/><g><!--cluster cd--><g id="cluster_cd"><rect fill="none" height="1131.25" rx="4.1667" ry="4.1667" style="stroke:#033C73;stroke-width:1.0416666666666667;" width="1130.2083" x="17.7083" y="17.7083"/><line style="stroke:#033C73;stroke-width:1.0416666666666667;" x1="17.7083" x2="1147.9167" y1="49.3168" y2="49.3168"/><text fill="#000000" font-family="Verdana" font-size="12.5" font-weight="bold" lengthAdjust="spacing" textLength="114.5833" x="525.5208" y="38.3626">classify_diabetes()</text></g><!--entity sssy--><g id="elem_sssy"><path d="M715.625,83.3333 C715.625,72.9167 743.75,72.9167 743.75,72.9167 C743.75,72.9167 771.875,72.9167 771.875,83.3333 L771.875,120.1501 C771.875,130.5668 743.75,130.5668 743.75,130.5668 C743.75,130.5668 715.625,130.5668 715.625,120.1501 L715.625,83.3333 " fill="none" style="stroke:#2FA4E7;stroke-width:1.0416666666666667;"/><path d="M715.625,83.3333 C715.625,93.75 743.75,93.75 743.75,93.75 C743.75,93.75 771.875,93.75 771.875,83.3333 " fill="none" style="stroke:#2FA4E7;stroke-width:1.0416666666666667;"/><text fill="#000000" font-family="Verdana" font-size="12.5" lengthAdjust="spacing" textLength="25" x="731.25" y="116.4876">sssy</text></g><!--entity sysi--><g id="elem_sysi"><path d="M147.3958,83.3333 C147.3958,72.9167 173.9583,72.9167 173.9583,72.9167 C173.9583,72.9167 200.5208,72.9167 200.5208,83.3333 L200.5208,120.1501 C200.5208,130.5668 173.9583,130.5668 173.9583,130.5668 C173.9583,130.5668 147.3958,130.5668 147.3958,120.1501 L147.3958,83.3333 " fill="none" style="stroke:#2FA4E7;stroke-width:1.0416666666666667;"/><path d="M147.3958,83.3333 C147.3958,93.75 173.9583,93.75 173.9583,93.75 C173.9583,93.75 200.5208,93.75 200.5208,83.3333 " fill="none" style="stroke:#2FA4E7;stroke-width:1.0416666666666667;"/><text fill="#000000" font-family="Verdana" font-size="12.5" lengthAdjust="spacing" textLength="21.875" x="163.0208" y="116.4876">sysi</text></g><!--entity lpr_diag--><g id="elem_lpr_diag"><path d="M237.5,83.3333 C237.5,72.9167 276.0417,72.9167 276.0417,72.9167 C276.0417,72.9167 314.5833,72.9167 314.5833,83.3333 L314.5833,120.1501 C314.5833,130.5668 276.0417,130.5668 276.0417,130.5668 C276.0417,130.5668 237.5,130.5668 237.5,120.1501 L237.5,83.3333 " fill="none" style="stroke:#2FA4E7;stroke-width:1.0416666666666667;"/><path d="M237.5,83.3333 C237.5,93.75 276.0417,93.75 276.0417,93.75 C276.0417,93.75 314.5833,93.75 314.5833,83.3333 " fill="none" style="stroke:#2FA4E7;stroke-width:1.0416666666666667;"/><text fill="#000000" font-family="Verdana" font-size="12.5" lengthAdjust="spacing" textLength="45.8333" x="253.125" y="116.4876">lpr_diag</text></g><!--entity lpr_adm--><g id="elem_lpr_adm"><path d="M351.5625,83.3333 C351.5625,72.9167 390.625,72.9167 390.625,72.9167 C390.625,72.9167 429.6875,72.9167 429.6875,83.3333 L429.6875,120.1501 C429.6875,130.5668 390.625,130.5668 390.625,130.5668 C390.625,130.5668 351.5625,130.5668 351.5625,120.1501 L351.5625,83.3333 " fill="none" style="stroke:#2FA4E7;stroke-width:1.0416666666666667;"/><path d="M351.5625,83.3333 C351.5625,93.75 390.625,93.75 390.625,93.75 C390.625,93.75 429.6875,93.75 429.6875,83.3333 " fill="none" style="stroke:#2FA4E7;stroke-width:1.0416666666666667;"/><text fill="#000000" font-family="Verdana" font-size="12.5" lengthAdjust="spacing" textLength="46.875" x="367.1875" y="116.4876">lpr_adm</text></g><!--entity lmdb--><g id="elem_lmdb"><path d="M940.625,83.3333 C940.625,72.9167 970.8333,72.9167 970.8333,72.9167 C970.8333,72.9167 1001.0417,72.9167 1001.0417,83.3333 L1001.0417,120.1501 C1001.0417,130.5668 970.8333,130.5668 970.8333,130.5668 C970.8333,130.5668 940.625,130.5668 940.625,120.1501 L940.625,83.3333 " fill="none" style="stroke:#2FA4E7;stroke-width:1.0416666666666667;"/><path d="M940.625,83.3333 C940.625,93.75 970.8333,93.75 970.8333,93.75 C970.8333,93.75 1001.0417,93.75 1001.0417,83.3333 " fill="none" style="stroke:#2FA4E7;stroke-width:1.0416666666666667;"/><text fill="#000000" font-family="Verdana" font-size="12.5" lengthAdjust="spacing" textLength="29.1667" x="956.25" y="116.4876">lmdb</text></g><!--entity lab_forsker--><g id="elem_lab_forsker"><path d="M808.3333,83.3333 C808.3333,72.9167 856.25,72.9167 856.25,72.9167 C856.25,72.9167 904.1667,72.9167 904.1667,83.3333 L904.1667,120.1501 C904.1667,130.5668 856.25,130.5668 856.25,130.5668 C856.25,130.5668 808.3333,130.5668 808.3333,120.1501 L808.3333,83.3333 " fill="none" style="stroke:#2FA4E7;stroke-width:1.0416666666666667;"/><path d="M808.3333,83.3333 C808.3333,93.75 856.25,93.75 856.25,93.75 C856.25,93.75 904.1667,93.75 904.1667,83.3333 " fill="none" style="stroke:#2FA4E7;stroke-width:1.0416666666666667;"/><text fill="#000000" font-family="Verdana" font-size="12.5" lengthAdjust="spacing" textLength="64.5833" x="823.9583" y="116.4876">lab_forsker</text></g><!--entity kontakter--><g id="elem_kontakter"><path d="M466.1458,83.3333 C466.1458,72.9167 509.375,72.9167 509.375,72.9167 C509.375,72.9167 552.6042,72.9167 552.6042,83.3333 L552.6042,120.1501 C552.6042,130.5668 509.375,130.5668 509.375,130.5668 C509.375,130.5668 466.1458,130.5668 466.1458,120.1501 L466.1458,83.3333 " fill="none" style="stroke:#2FA4E7;stroke-width:1.0416666666666667;"/><path d="M466.1458,83.3333 C466.1458,93.75 509.375,93.75 509.375,93.75 C509.375,93.75 552.6042,93.75 552.6042,83.3333 " fill="none" style="stroke:#2FA4E7;stroke-width:1.0416666666666667;"/><text fill="#000000" font-family="Verdana" font-size="12.5" lengthAdjust="spacing" textLength="55.2083" x="481.7708" y="116.4876">kontakter</text></g><!--entity diagnoser--><g id="elem_diagnoser"><path d="M589.5833,83.3333 C589.5833,72.9167 634.375,72.9167 634.375,72.9167 C634.375,72.9167 679.1667,72.9167 679.1667,83.3333 L679.1667,120.1501 C679.1667,130.5668 634.375,130.5668 634.375,130.5668 C634.375,130.5668 589.5833,130.5668 589.5833,120.1501 L589.5833,83.3333 " fill="none" style="stroke:#2FA4E7;stroke-width:1.0416666666666667;"/><path d="M589.5833,83.3333 C589.5833,93.75 634.375,93.75 634.375,93.75 C634.375,93.75 679.1667,93.75 679.1667,83.3333 " fill="none" style="stroke:#2FA4E7;stroke-width:1.0416666666666667;"/><text fill="#000000" font-family="Verdana" font-size="12.5" lengthAdjust="spacing" textLength="58.3333" x="605.2083" y="116.4876">diagnoser</text></g><!--entity bef--><g id="elem_bef"><path d="M1037.5,83.3333 C1037.5,72.9167 1062.5,72.9167 1062.5,72.9167 C1062.5,72.9167 1087.5,72.9167 1087.5,83.3333 L1087.5,120.1501 C1087.5,130.5668 1062.5,130.5668 1062.5,130.5668 C1062.5,130.5668 1037.5,130.5668 1037.5,120.1501 L1037.5,83.3333 " fill="none" style="stroke:#2FA4E7;stroke-width:1.0416666666666667;"/><path d="M1037.5,83.3333 C1037.5,93.75 1062.5,93.75 1062.5,93.75 C1062.5,93.75 1087.5,93.75 1087.5,83.3333 " fill="none" style="stroke:#2FA4E7;stroke-width:1.0416666666666667;"/><text fill="#000000" font-family="Verdana" font-size="12.5" lengthAdjust="spacing" textLength="18.75" x="1053.125" y="116.4876">bef</text></g><!--entity lpr2--><g id="elem_lpr2"><polygon fill="none" points="328.125,192.7083,442.7083,192.7083,453.125,216.8459,442.7083,240.9835,328.125,240.9835" style="stroke:#BABDBF;stroke-width:1.0416666666666667;"/><text fill="#000000" font-family="Verdana" font-size="12.5" lengthAdjust="spacing" textLength="83.3333" x="343.75" y="221.6959">prepare_lpr2()</text></g><!--entity lpr3--><g id="elem_lpr3"><polygon fill="none" points="489.5833,192.7083,604.1667,192.7083,614.5833,216.8459,604.1667,240.9835,489.5833,240.9835" style="stroke:#BABDBF;stroke-width:1.0416666666666667;"/><text fill="#000000" font-family="Verdana" font-size="12.5" lengthAdjust="spacing" textLength="83.3333" x="505.2083" y="221.6959">prepare_lpr3()</text></g><!--entity ex_pregnancy--><g id="elem_ex_pregnancy"><polygon fill="#FFA500" points="814.0625,523.9583,965.1042,523.9583,975.5208,548.0959,965.1042,572.2335,814.0625,572.2335" style="stroke:#BABDBF;stroke-width:1.0416666666666667;"/><text fill="#000000" font-family="Verdana" font-size="12.5" lengthAdjust="spacing" textLength="119.7917" x="829.6875" y="552.9459">exclude_pregnancy()</text></g><!--entity ex_pcos--><g id="elem_ex_pcos"><polygon fill="#FFA500" points="813.5417,413.5417,986.4583,413.5417,996.875,437.6792,986.4583,461.8168,813.5417,461.8168" style="stroke:#BABDBF;stroke-width:1.0416666666666667;"/><text fill="#000000" font-family="Verdana" font-size="12.5" lengthAdjust="spacing" textLength="141.6667" x="829.1667" y="442.5293">exclude_potential_pcos()</text></g><!--entity in_diagnoses--><g id="elem_in_diagnoses"><polygon fill="#ADD8E6" points="284.8958,303.125,485.9375,303.125,496.3542,327.2626,485.9375,351.4001,284.8958,351.4001" style="stroke:#BABDBF;stroke-width:1.0416666666666667;"/><text fill="#000000" font-family="Verdana" font-size="12.5" lengthAdjust="spacing" textLength="169.7917" x="300.5208" y="332.1126">include_diabetes_diagnoses()</text></g><!--entity in_hba1c--><g id="elem_in_hba1c"><polygon fill="#ADD8E6" points="743.2292,303.125,865.1042,303.125,875.5208,327.2626,865.1042,351.4001,743.2292,351.4001" style="stroke:#BABDBF;stroke-width:1.0416666666666667;"/><text fill="#000000" font-family="Verdana" font-size="12.5" lengthAdjust="spacing" textLength="90.625" x="758.8542" y="332.1126">include_hba1c()</text></g><!--entity in_podiatrist--><g id="elem_in_podiatrist"><polygon fill="#ADD8E6" points="43.2292,303.125,238.0208,303.125,248.4375,327.2626,238.0208,351.4001,43.2292,351.4001" style="stroke:#BABDBF;stroke-width:1.0416666666666667;"/><text fill="#000000" font-family="Verdana" font-size="12.5" lengthAdjust="spacing" textLength="163.5417" x="58.8542" y="332.1126">include_podiatrist_services()</text></g><!--entity in_gld--><g id="elem_in_gld"><polygon fill="#ADD8E6" points="911.9792,303.125,1081.7708,303.125,1092.1875,327.2626,1081.7708,351.4001,911.9792,351.4001" style="stroke:#BABDBF;stroke-width:1.0416666666666667;"/><text fill="#000000" font-family="Verdana" font-size="12.5" lengthAdjust="spacing" textLength="138.5417" x="927.6042" y="332.1126">include_gld_purchases()</text></g><!--entity pregnancy--><g id="elem_pregnancy"><polygon fill="none" points="533.3333,303.125,695.8333,303.125,706.25,327.2626,695.8333,351.4001,533.3333,351.4001" style="stroke:#BABDBF;stroke-width:1.0416666666666667;"/><text fill="#000000" font-family="Verdana" font-size="12.5" lengthAdjust="spacing" textLength="131.25" x="548.9583" y="332.1126">get_pregnancy_dates()</text></g><!--entity join_inclusion--><g id="elem_join_inclusion"><polygon fill="none" points="433.3333,634.375,550,634.375,560.4167,658.5126,550,682.6501,433.3333,682.6501" style="stroke:#BABDBF;stroke-width:1.0416666666666667;"/><text fill="#000000" font-family="Verdana" font-size="12.5" lengthAdjust="spacing" textLength="85.4167" x="448.9583" y="663.3626">join_inclusion()</text></g><!--entity inclusion_date--><g id="elem_inclusion_date"><polygon fill="none" points="480.2083,744.7917,651.0417,744.7917,661.4583,768.9292,651.0417,793.0668,480.2083,793.0668" style="stroke:#BABDBF;stroke-width:1.0416666666666667;"/><text fill="#000000" font-family="Verdana" font-size="12.5" lengthAdjust="spacing" textLength="139.5833" x="495.8333" y="773.7793">create_inclusion_dates()</text></g><!--entity add_two_thirds_insulin_doses--><g id="elem_add_two_thirds_insulin_doses"><polygon fill="none" points="480.2083,855.2083,688.5417,855.2083,698.9583,879.3459,688.5417,903.4835,480.2083,903.4835" style="stroke:#BABDBF;stroke-width:1.0416666666666667;"/><text fill="#000000" font-family="Verdana" font-size="12.5" lengthAdjust="spacing" textLength="177.0833" x="495.8333" y="884.1959">add_two_thirds_insulin_doses()</text></g><!--entity add_only_insulin_purchases--><g id="elem_add_only_insulin_purchases"><polygon fill="none" points="486.9792,965.625,685.9375,965.625,696.3542,989.7626,685.9375,1013.9001,486.9792,1013.9001" style="stroke:#BABDBF;stroke-width:1.0416666666666667;"/><text fill="#000000" font-family="Verdana" font-size="12.5" lengthAdjust="spacing" textLength="167.7083" x="502.6042" y="994.6126">add_only_insulin_purchases()</text></g><!--entity classify_t1d--><g id="elem_classify_t1d"><polygon fill="none" points="533.3333,1076.0417,639.5833,1076.0417,650,1100.1792,639.5833,1124.3168,533.3333,1124.3168" style="stroke:#BABDBF;stroke-width:1.0416666666666667;"/><text fill="#000000" font-family="Verdana" font-size="12.5" lengthAdjust="spacing" textLength="75" x="548.9583" y="1105.0293">classify_t1d()</text></g><!--link lpr_diag to lpr2--><g id="link_lpr_diag_lpr2"><path d="M304.0729,130.25 C323.4167,149.3333 344.4044,170.0278 362.6857,188.059 " fill="none" id="lpr_diag-to-lpr2" style="stroke:#2FA4E7;stroke-width:3.125;"/><polygon fill="#2FA4E7" points="367.1354,192.4479,363.3867,182.8981,363.4273,188.7905,357.5349,188.8311,367.1354,192.4479" style="stroke:#2FA4E7;stroke-width:3.125;"/></g><!--link lpr_adm to lpr2--><g id="link_lpr_adm_lpr2"><path d="M390.625,130.25 C390.625,149.3333 390.625,168.1667 390.625,186.1979 " fill="none" id="lpr_adm-to-lpr2" style="stroke:#2FA4E7;stroke-width:3.125;"/><polygon fill="#2FA4E7" points="390.625,192.4479,394.7917,183.0729,390.625,187.2396,386.4583,183.0729,390.625,192.4479" style="stroke:#2FA4E7;stroke-width:3.125;"/></g><!--link kontakter to lpr3--><g id="link_kontakter_lpr3"><path d="M519.8229,130.25 C527.0313,149.3333 534.3015,168.57 541.114,186.6013 " fill="none" id="kontakter-to-lpr3" style="stroke:#2FA4E7;stroke-width:3.125;"/><polygon fill="#2FA4E7" points="543.3229,192.4479,543.9072,182.2053,541.4821,187.5757,536.1117,185.1506,543.3229,192.4479" style="stroke:#2FA4E7;stroke-width:3.125;"/></g><!--link diagnoser to lpr3--><g id="link_diagnoser_lpr3"><path d="M614.2396,130.25 C600.3542,149.3333 585.7615,169.3636 572.6365,187.3948 " fill="none" id="diagnoser-to-lpr3" style="stroke:#2FA4E7;stroke-width:3.125;"/><polygon fill="#2FA4E7" points="568.9583,192.4479,577.8443,187.3204,572.0235,188.237,571.1068,182.4162,568.9583,192.4479" style="stroke:#2FA4E7;stroke-width:3.125;"/></g><!--link sssy to in_podiatrist--><g id="link_sssy_in_podiatrist"><path d="M730.9583,130.3854 C713.625,164.5833 679.2188,221.4792 631.25,248.9583 C489.5417,330.1458 427.0729,264.0938 266.6667,294.7917 C254.3229,297.1563 247.4497,298.5822 234.7934,301.6447 " fill="none" id="sssy-to-in_podiatrist" style="stroke:#2FA4E7;stroke-width:3.125;"/><polygon fill="#2FA4E7" points="228.7188,303.1146,238.8107,304.9595,233.781,301.8896,236.8508,296.8599,228.7188,303.1146" style="stroke:#2FA4E7;stroke-width:3.125;"/></g><!--link sysi to in_podiatrist--><g id="link_sysi_in_podiatrist"><path d="M170.4583,130.4479 C164.8438,175.0208 154.7285,255.3614 149.5202,296.7364 " fill="none" id="sysi-to-in_podiatrist" style="stroke:#2FA4E7;stroke-width:3.125;"/><polygon fill="#2FA4E7" points="148.7396,302.9375,154.0445,294.1563,149.3901,297.7699,145.7764,293.1155,148.7396,302.9375" style="stroke:#2FA4E7;stroke-width:3.125;"/></g><!--link in_podiatrist to join_inclusion--><g id="link_in_podiatrist_join_inclusion"><path d="M170.5208,351.2708 C234.9688,411.7083 403.2323,569.4856 467.6593,629.8918 " fill="none" id="in_podiatrist-to-join_inclusion" style="stroke:#2FA4E7;stroke-width:3.125;"/><polygon fill="#2FA4E7" points="472.2188,634.1667,468.2296,624.7148,468.4192,630.6043,462.5297,630.794,472.2188,634.1667" style="stroke:#2FA4E7;stroke-width:3.125;"/></g><!--link lab_forsker to in_hba1c--><g id="link_lab_forsker_in_hba1c"><path d="M850.4063,130.4479 C841.0625,175.0208 824.1906,255.4459 815.5031,296.8209 " fill="none" id="lab_forsker-to-in_hba1c" style="stroke:#2FA4E7;stroke-width:3.125;"/><polygon fill="#2FA4E7" points="814.2188,302.9375,820.223,294.6188,815.289,297.8403,812.0675,292.9064,814.2188,302.9375" style="stroke:#2FA4E7;stroke-width:3.125;"/></g><!--link in_hba1c to ex_pregnancy--><g id="link_in_hba1c_ex_pregnancy"><path d="M800.0729,351.4688 C790.6042,379.0521 779.4688,425.7083 795.8333,461.4583 C807.8333,487.6667 827.118,505.374 848.7118,520.1031 " fill="none" id="in_hba1c-to-ex_pregnancy" style="stroke:#2FA4E7;stroke-width:3.125;"/><polygon fill="#2FA4E7" points="853.875,523.625,848.4781,514.9001,849.5723,520.6901,843.7822,521.7844,853.875,523.625" style="stroke:#2FA4E7;stroke-width:3.125;"/></g><!--link ex_pregnancy to join_inclusion--><g id="link_ex_pregnancy_join_inclusion"><path d="M835.1563,572 C826.8958,574.9063 818.4792,577.7292 810.4167,580.2083 C724.9479,606.4479 630.3762,628.5801 566.6158,642.5384 " fill="none" id="ex_pregnancy-to-join_inclusion" style="stroke:#2FA4E7;stroke-width:3.125;"/><polygon fill="#2FA4E7" points="560.5104,643.875,570.5596,645.9404,565.5983,642.7612,568.7775,637.7998,560.5104,643.875" style="stroke:#2FA4E7;stroke-width:3.125;"/></g><!--link lmdb to in_gld--><g id="link_lmdb_in_gld"><path d="M974.7292,130.4479 C980.9583,175.0208 992.1961,255.3728 997.9877,296.7478 " fill="none" id="lmdb-to-in_gld" style="stroke:#2FA4E7;stroke-width:3.125;"/><polygon fill="#2FA4E7" points="998.8542,302.9375,1001.681,293.0754,998.1321,297.7795,993.4281,294.2306,998.8542,302.9375" style="stroke:#2FA4E7;stroke-width:3.125;"/></g><!--link in_gld to ex_pcos--><g id="link_in_gld_ex_pcos"><path d="M981.5417,351.1042 C965.0938,369.4792 946.3233,390.4877 929.8858,408.8627 " fill="none" id="in_gld-to-ex_pcos" style="stroke:#2FA4E7;stroke-width:3.125;"/><polygon fill="#2FA4E7" points="925.7188,413.5208,935.0747,409.3116,929.1913,409.639,928.8638,403.7556,925.7188,413.5208" style="stroke:#2FA4E7;stroke-width:3.125;"/></g><!--link ex_pcos to ex_pregnancy--><g id="link_ex_pcos_ex_pregnancy"><path d="M903,461.5208 C901.2292,479.8958 899.3565,499.341 897.5961,517.716 " fill="none" id="ex_pcos-to-ex_pregnancy" style="stroke:#2FA4E7;stroke-width:3.125;"/><polygon fill="#2FA4E7" points="897,523.9375,902.0418,515.0026,897.4967,518.7529,893.7464,514.2079,897,523.9375" style="stroke:#2FA4E7;stroke-width:3.125;"/></g><!--link lpr2 to in_diagnoses--><g id="link_lpr2_in_diagnoses"><path d="M390.625,240.6875 C390.625,259.0625 390.625,278.4792 390.625,296.8542 " fill="none" id="lpr2-to-in_diagnoses" style="stroke:#2FA4E7;stroke-width:3.125;"/><polygon fill="#2FA4E7" points="390.625,303.1042,394.7917,293.7292,390.625,297.8958,386.4583,293.7292,390.625,303.1042" style="stroke:#2FA4E7;stroke-width:3.125;"/></g><!--link lpr3 to in_diagnoses--><g id="link_lpr3_in_diagnoses"><path d="M517.8438,240.6875 C490.4375,259.0625 457.3989,281.2477 430.0031,299.6227 " fill="none" id="lpr3-to-in_diagnoses" style="stroke:#2FA4E7;stroke-width:3.125;"/><polygon fill="#2FA4E7" points="424.8125,303.1042,434.9193,301.3424,429.138,300.203,430.2774,294.4216,424.8125,303.1042" style="stroke:#2FA4E7;stroke-width:3.125;"/></g><!--link in_diagnoses to join_inclusion--><g id="link_in_diagnoses_join_inclusion"><path d="M398.0938,351.2708 C417.6042,411.7083 467.9966,567.8126 487.4966,628.2189 " fill="none" id="in_diagnoses-to-join_inclusion" style="stroke:#2FA4E7;stroke-width:3.125;"/><polygon fill="#2FA4E7" points="489.4167,634.1667,490.5018,623.965,487.8166,629.2102,482.5714,626.525,489.4167,634.1667" style="stroke:#2FA4E7;stroke-width:3.125;"/></g><!--link bef to ex_pcos--><g id="link_bef_ex_pcos"><path d="M1079.7813,130.4896 C1108.5417,180.8542 1158.4688,288.3646 1109.375,359.375 C1083.9479,396.1458 1044.6572,413.9223 1003.1363,423.9952 " fill="none" id="bef-to-ex_pcos" style="stroke:#2FA4E7;stroke-width:3.125;"/><polygon fill="#2FA4E7" points="997.0625,425.4688,1007.1556,427.3077,1002.124,424.2408,1005.1909,419.2093,997.0625,425.4688" style="stroke:#2FA4E7;stroke-width:3.125;"/></g><!--link lpr2 to pregnancy--><g id="link_lpr2_pregnancy"><path d="M439.2292,240.6875 C478.1146,259.0625 526.7348,282.0583 565.6098,300.4333 " fill="none" id="lpr2-to-pregnancy" style="stroke:#2FA4E7;stroke-width:3.125;"/><polygon fill="#2FA4E7" points="571.2604,303.1042,564.5651,295.3308,566.5516,300.8785,561.004,302.8649,571.2604,303.1042" style="stroke:#2FA4E7;stroke-width:3.125;"/></g><!--link lpr3 to pregnancy--><g id="link_lpr3_pregnancy"><path d="M566.4375,240.6875 C577.9375,259.0625 590.6552,279.4299 602.1448,297.8049 " fill="none" id="lpr3-to-pregnancy" style="stroke:#2FA4E7;stroke-width:3.125;"/><polygon fill="#2FA4E7" points="605.4583,303.1042,604.0208,292.9461,602.697,298.6881,596.9551,297.3642,605.4583,303.1042" style="stroke:#2FA4E7;stroke-width:3.125;"/></g><!--link pregnancy to ex_pregnancy--><g id="link_pregnancy_ex_pregnancy"><path d="M659.0521,351.1146 C681.6458,365.2604 709.9063,384.6042 732.2917,405.2083 C756.0208,427.0417 754.7396,439.25 778.125,461.4583 C802.9688,485.0521 829.2948,504.2956 853.3052,520.3581 " fill="none" id="pregnancy-to-ex_pregnancy" style="stroke:#2FA4E7;stroke-width:3.125;"/><polygon fill="#2FA4E7" points="858.5,523.8333,853.0247,515.1574,854.171,520.9373,848.3911,522.0837,858.5,523.8333" style="stroke:#2FA4E7;stroke-width:3.125;"/></g><!--link join_inclusion to inclusion_date--><g id="link_join_inclusion_inclusion_date"><path d="M512.5625,682.3542 C525.1146,700.7292 539.1016,721.2336 551.6433,739.6086 " fill="none" id="join_inclusion-to-inclusion_date" style="stroke:#2FA4E7;stroke-width:3.125;"/><polygon fill="#2FA4E7" points="555.1667,744.7708,553.323,734.6786,552.2305,740.469,546.4401,739.3765,555.1667,744.7708" style="stroke:#2FA4E7;stroke-width:3.125;"/></g><!--link inclusion_date to add_two_thirds_insulin_doses--><g id="link_inclusion_date_add_two_thirds_insulin_doses"><path d="M574.8125,792.7708 C577.9896,811.1458 581.3589,830.6545 584.5464,849.0295 " fill="none" id="inclusion_date-to-add_two_thirds_insulin_doses" style="stroke:#2FA4E7;stroke-width:3.125;"/><polygon fill="#2FA4E7" points="585.6146,855.1875,588.1176,845.2383,584.7244,850.0558,579.9069,846.6626,585.6146,855.1875" style="stroke:#2FA4E7;stroke-width:3.125;"/></g><!--link in_gld to add_two_thirds_insulin_doses--><g id="link_in_gld_add_two_thirds_insulin_doses"><path d="M927.0625,351.0833 C877.4896,367.2292 817.9167,388.7917 796.875,405.2083 C736.5313,452.3021 698.9583,470.3333 698.9583,546.875 C698.9583,546.875 698.9583,546.875 698.9583,659.375 C698.9583,719.2188 707.6979,739.5521 680.2083,792.7083 C667.1979,817.8646 648.7172,835.8253 628.9463,851.0962 " fill="none" id="in_gld-to-add_two_thirds_insulin_doses" style="stroke:#2FA4E7;stroke-width:3.125;"/><polygon fill="#2FA4E7" points="624,854.9167,633.9665,852.4835,628.1219,851.7329,628.8725,845.8883,624,854.9167" style="stroke:#2FA4E7;stroke-width:3.125;"/></g><!--link add_two_thirds_insulin_doses to add_only_insulin_purchases--><g id="link_add_two_thirds_insulin_doses_add_only_insulin_purchases"><path d="M590.0208,903.1875 C590.375,921.5625 590.7546,940.9803 591.1087,959.3553 " fill="none" id="add_two_thirds_insulin_doses-to-add_only_insulin_purchases" style="stroke:#2FA4E7;stroke-width:3.125;"/><polygon fill="#2FA4E7" points="591.2292,965.6042,595.2144,956.1506,591.1288,960.3968,586.8826,956.3112,591.2292,965.6042" style="stroke:#2FA4E7;stroke-width:3.125;"/></g><!--link in_gld to add_only_insulin_purchases--><g id="link_in_gld_add_only_insulin_purchases"><path d="M1007.7813,351.2708 C1017.0521,391.0104 1034.375,474.8958 1034.375,546.875 C1034.375,546.875 1034.375,546.875 1034.375,769.7917 C1034.375,919.8229 833.7104,966.2452 702.7937,981.0577 " fill="none" id="in_gld-to-add_only_insulin_purchases" style="stroke:#2FA4E7;stroke-width:3.125;"/><polygon fill="#2FA4E7" points="696.5833,981.7604,706.3673,984.8467,701.7586,981.1749,705.4304,976.5662,696.5833,981.7604" style="stroke:#2FA4E7;stroke-width:3.125;"/></g><!--link add_only_insulin_purchases to classify_t1d--><g id="link_add_only_insulin_purchases_classify_t1d"><path d="M591.6667,1013.6042 C591.6667,1031.9792 591.6667,1051.3958 591.6667,1069.7708 " fill="none" id="add_only_insulin_purchases-to-classify_t1d" style="stroke:#2FA4E7;stroke-width:3.125;"/><polygon fill="#2FA4E7" points="591.6667,1076.0208,595.8333,1066.6458,591.6667,1070.8125,587.5,1066.6458,591.6667,1076.0208" style="stroke:#2FA4E7;stroke-width:3.125;"/></g><!--SRC=[ZLNBZjem5DtdAzpPT4Q2LZFiAiHYAlKt8iU-92x6ZcoddQZYttiTOiTE20mhEFVSXyzzyCKrS0R2m7GIgDhgpacXeDXRrqiu59GveTM6C6huXd3gQ4KjR8W1vgYg9P1_1S7FBwtSJosr8PMax5HSYcz2CTbPz1ufxuZNHdUANubIr8shP0UU31_toTfWDi_SVnyhAnh1WUptCStXGAm30zhrBGHhZ9jR2_yUmYIrLXpxaWjQWGFx_4Ae9OmFHJXT0wfZneh2sucrjfyXlHKv8blZWzPBbFBp33ppQeRGgZngOqzWSiC9HQOdDuTz8gNj7AxWYC2bM3xbsbJor1fegO4IwtfxVddoR_TVrpYxYRDx47cGdKE9thMYYlMZAtnCKDwTs-xQWNA2oh9bsYOnyDV2_Luzmv1WmD3eCcWMWWerGVbGtOpJLFILJQx3pq-ujHgJE2EiAx5TVmHByq_6JqIg9I_Rph26Pcz0-8upIZF9N-AWHDU81Xs3os-DKMEyaPs3TsHd1Z39HCrovcZcHpaltLzTkaOORj7VTj9tA6dOFSeYbbQoZvIvREk4_2tXMBXNFdgcK13kgnV7hmX-3rU0RBU7i5dZ3KYXkDO1zDiLbte2VVGesW-Ip4iO9cJuwpIuP1Fb3NYaRXhoqVECPN_JlCEm-vTCPoh43QQu4XvFTnvjsGbudCrFTDeGVov3EhHTatbII8MdOSpYZyIYW5duS12YtlRQexUGOuRlRk7PyLXvqlG7HnKd3SWMPJjsQfWk7mJFzUmDiOnKlbX32kQ2pWJFYndhprRFrnU6MJ0wp7jQMauV8ZnOlwGd3vZtpD5_TJrdULPvwyR1DrlaI_4V]--></g></svg>