<?xml version="1.0" encoding="us-ascii" standalone="no"?><svg xmlns="http://www.w3.org/2000/svg" xmlns:xlink="http://www.w3.org/1999/xlink" contentStyleType="text/css" height="748.9583px" preserveAspectRatio="none" style="width:1152px;height:748px;" version="1.1" viewBox="0 0 1152 748" width="1152.0833px" zoomAndPan="magnify"><defs/><g><!--entity sssy--><g id="elem_sssy"><path d="M538.8438,27.0833 C538.8438,16.6667 566.9688,16.6667 566.9688,16.6667 C566.9688,16.6667 595.0938,16.6667 595.0938,27.0833 L595.0938,63.9001 C595.0938,74.3168 566.9688,74.3168 566.9688,74.3168 C566.9688,74.3168 538.8438,74.3168 538.8438,63.9001 L538.8438,27.0833 " fill="none" style="stroke:#2FA4E7;stroke-width:1.0416666666666667;"/><path d="M538.8438,27.0833 C538.8438,37.5 566.9688,37.5 566.9688,37.5 C566.9688,37.5 595.0938,37.5 595.0938,27.0833 " fill="none" style="stroke:#2FA4E7;stroke-width:1.0416666666666667;"/><text fill="#000000" font-family="Verdana" font-size="12.5" lengthAdjust="spacing" textLength="25" x="554.4688" y="60.2376">sssy</text></g><!--entity sysi--><g id="elem_sysi"><path d="M448.7396,27.0833 C448.7396,16.6667 475.3021,16.6667 475.3021,16.6667 C475.3021,16.6667 501.8646,16.6667 501.8646,27.0833 L501.8646,63.9001 C501.8646,74.3168 475.3021,74.3168 475.3021,74.3168 C475.3021,74.3168 448.7396,74.3168 448.7396,63.9001 L448.7396,27.0833 " fill="none" style="stroke:#2FA4E7;stroke-width:1.0416666666666667;"/><path d="M448.7396,27.0833 C448.7396,37.5 475.3021,37.5 475.3021,37.5 C475.3021,37.5 501.8646,37.5 501.8646,27.0833 " fill="none" style="stroke:#2FA4E7;stroke-width:1.0416666666666667;"/><text fill="#000000" font-family="Verdana" font-size="12.5" lengthAdjust="spacing" textLength="21.875" x="464.3646" y="60.2376">sysi</text></g><!--entity lpr_diag--><g id="elem_lpr_diag"><path d="M881.5521,27.0833 C881.5521,16.6667 920.0938,16.6667 920.0938,16.6667 C920.0938,16.6667 958.6354,16.6667 958.6354,27.0833 L958.6354,63.9001 C958.6354,74.3168 920.0938,74.3168 920.0938,74.3168 C920.0938,74.3168 881.5521,74.3168 881.5521,63.9001 L881.5521,27.0833 " fill="none" style="stroke:#2FA4E7;stroke-width:1.0416666666666667;"/><path d="M881.5521,27.0833 C881.5521,37.5 920.0938,37.5 920.0938,37.5 C920.0938,37.5 958.6354,37.5 958.6354,27.0833 " fill="none" style="stroke:#2FA4E7;stroke-width:1.0416666666666667;"/><text fill="#000000" font-family="Verdana" font-size="12.5" lengthAdjust="spacing" textLength="45.8333" x="897.1771" y="60.2376">lpr_diag</text></g><!--entity lpr_adm--><g id="elem_lpr_adm"><path d="M995.6146,27.0833 C995.6146,16.6667 1034.6771,16.6667 1034.6771,16.6667 C1034.6771,16.6667 1073.7396,16.6667 1073.7396,27.0833 L1073.7396,63.9001 C1073.7396,74.3168 1034.6771,74.3168 1034.6771,74.3168 C1034.6771,74.3168 995.6146,74.3168 995.6146,63.9001 L995.6146,27.0833 " fill="none" style="stroke:#2FA4E7;stroke-width:1.0416666666666667;"/><path d="M995.6146,27.0833 C995.6146,37.5 1034.6771,37.5 1034.6771,37.5 C1034.6771,37.5 1073.7396,37.5 1073.7396,27.0833 " fill="none" style="stroke:#2FA4E7;stroke-width:1.0416666666666667;"/><text fill="#000000" font-family="Verdana" font-size="12.5" lengthAdjust="spacing" textLength="46.875" x="1011.2396" y="60.2376">lpr_adm</text></g><!--entity lmdb--><g id="elem_lmdb"><path d="M219.0521,27.0833 C219.0521,16.6667 249.2604,16.6667 249.2604,16.6667 C249.2604,16.6667 279.4688,16.6667 279.4688,27.0833 L279.4688,63.9001 C279.4688,74.3168 249.2604,74.3168 249.2604,74.3168 C249.2604,74.3168 219.0521,74.3168 219.0521,63.9001 L219.0521,27.0833 " fill="none" style="stroke:#2FA4E7;stroke-width:1.0416666666666667;"/><path d="M219.0521,27.0833 C219.0521,37.5 249.2604,37.5 249.2604,37.5 C249.2604,37.5 279.4688,37.5 279.4688,27.0833 " fill="none" style="stroke:#2FA4E7;stroke-width:1.0416666666666667;"/><text fill="#000000" font-family="Verdana" font-size="12.5" lengthAdjust="spacing" textLength="29.1667" x="234.6771" y="60.2376">lmdb</text></g><!--entity lab_forsker--><g id="elem_lab_forsker"><path d="M315.9271,27.0833 C315.9271,16.6667 363.8438,16.6667 363.8438,16.6667 C363.8438,16.6667 411.7604,16.6667 411.7604,27.0833 L411.7604,63.9001 C411.7604,74.3168 363.8438,74.3168 363.8438,74.3168 C363.8438,74.3168 315.9271,74.3168 315.9271,63.9001 L315.9271,27.0833 " fill="none" style="stroke:#2FA4E7;stroke-width:1.0416666666666667;"/><path d="M315.9271,27.0833 C315.9271,37.5 363.8438,37.5 363.8438,37.5 C363.8438,37.5 411.7604,37.5 411.7604,27.0833 " fill="none" style="stroke:#2FA4E7;stroke-width:1.0416666666666667;"/><text fill="#000000" font-family="Verdana" font-size="12.5" lengthAdjust="spacing" textLength="64.5833" x="331.5521" y="60.2376">lab_forsker</text></g><!--entity kontakter--><g id="elem_kontakter"><path d="M758.1146,27.0833 C758.1146,16.6667 801.3438,16.6667 801.3438,16.6667 C801.3438,16.6667 844.5729,16.6667 844.5729,27.0833 L844.5729,63.9001 C844.5729,74.3168 801.3438,74.3168 801.3438,74.3168 C801.3438,74.3168 758.1146,74.3168 758.1146,63.9001 L758.1146,27.0833 " fill="none" style="stroke:#2FA4E7;stroke-width:1.0416666666666667;"/><path d="M758.1146,27.0833 C758.1146,37.5 801.3438,37.5 801.3438,37.5 C801.3438,37.5 844.5729,37.5 844.5729,27.0833 " fill="none" style="stroke:#2FA4E7;stroke-width:1.0416666666666667;"/><text fill="#000000" font-family="Verdana" font-size="12.5" lengthAdjust="spacing" textLength="55.2083" x="773.7396" y="60.2376">kontakter</text></g><!--entity diagnoser--><g id="elem_diagnoser"><path d="M631.5521,27.0833 C631.5521,16.6667 676.3438,16.6667 676.3438,16.6667 C676.3438,16.6667 721.1354,16.6667 721.1354,27.0833 L721.1354,63.9001 C721.1354,74.3168 676.3438,74.3168 676.3438,74.3168 C676.3438,74.3168 631.5521,74.3168 631.5521,63.9001 L631.5521,27.0833 " fill="none" style="stroke:#2FA4E7;stroke-width:1.0416666666666667;"/><path d="M631.5521,27.0833 C631.5521,37.5 676.3438,37.5 676.3438,37.5 C676.3438,37.5 721.1354,37.5 721.1354,27.0833 " fill="none" style="stroke:#2FA4E7;stroke-width:1.0416666666666667;"/><text fill="#000000" font-family="Verdana" font-size="12.5" lengthAdjust="spacing" textLength="58.3333" x="647.1771" y="60.2376">diagnoser</text></g><!--entity bef--><g id="elem_bef"><path d="M132.5938,27.0833 C132.5938,16.6667 157.5938,16.6667 157.5938,16.6667 C157.5938,16.6667 182.5938,16.6667 182.5938,27.0833 L182.5938,63.9001 C182.5938,74.3168 157.5938,74.3168 157.5938,74.3168 C157.5938,74.3168 132.5938,74.3168 132.5938,63.9001 L132.5938,27.0833 " fill="none" style="stroke:#2FA4E7;stroke-width:1.0416666666666667;"/><path d="M132.5938,27.0833 C132.5938,37.5 157.5938,37.5 157.5938,37.5 C157.5938,37.5 182.5938,37.5 182.5938,27.0833 " fill="none" style="stroke:#2FA4E7;stroke-width:1.0416666666666667;"/><text fill="#000000" font-family="Verdana" font-size="12.5" lengthAdjust="spacing" textLength="18.75" x="148.2188" y="60.2376">bef</text></g><!--entity lpr2--><g id="elem_lpr2"><polygon fill="none" points="884.1563,136.4583,972.6979,136.4583,983.1146,160.5959,972.6979,184.7335,884.1563,184.7335" style="stroke:#BABDBF;stroke-width:1.0416666666666667;"/><text fill="#000000" font-family="Verdana" font-size="12.5" lengthAdjust="spacing" textLength="57.2917" x="899.7813" y="165.4459">join_lpr2()</text></g><!--entity lpr3--><g id="elem_lpr3"><polygon fill="none" points="748.7396,136.4583,837.2813,136.4583,847.6979,160.5959,837.2813,184.7335,748.7396,184.7335" style="stroke:#BABDBF;stroke-width:1.0416666666666667;"/><text fill="#000000" font-family="Verdana" font-size="12.5" lengthAdjust="spacing" textLength="57.2917" x="764.3646" y="165.4459">join_lpr3()</text></g><!--entity ex_pregnancy--><g id="elem_ex_pregnancy"><polygon fill="#FFA500" points="146.6563,467.7083,297.6979,467.7083,308.1146,491.8459,297.6979,515.9835,146.6563,515.9835" style="stroke:#BABDBF;stroke-width:1.0416666666666667;"/><text fill="#000000" font-family="Verdana" font-size="12.5" lengthAdjust="spacing" textLength="119.7917" x="162.2813" y="496.6959">exclude_pregnancy()</text></g><!--entity ex_pcos--><g id="elem_ex_pcos"><polygon fill="#FFA500" points="125.3021,357.2917,298.2188,357.2917,308.6354,381.4292,298.2188,405.5668,125.3021,405.5668" style="stroke:#BABDBF;stroke-width:1.0416666666666667;"/><text fill="#000000" font-family="Verdana" font-size="12.5" lengthAdjust="spacing" textLength="141.6667" x="140.9271" y="386.2793">exclude_potential_pcos()</text></g><!--entity in_diagnoses--><g id="elem_in_diagnoses"><polygon fill="#ADD8E6" points="918.5313,246.875,1119.5729,246.875,1129.9896,271.0126,1119.5729,295.1501,918.5313,295.1501" style="stroke:#BABDBF;stroke-width:1.0416666666666667;"/><text fill="#000000" font-family="Verdana" font-size="12.5" lengthAdjust="spacing" textLength="169.7917" x="934.1563" y="275.8626">include_diabetes_diagnoses()</text></g><!--entity in_hba1c--><g id="elem_in_hba1c"><polygon fill="#ADD8E6" points="297.6979,246.875,419.5729,246.875,429.9896,271.0126,419.5729,295.1501,297.6979,295.1501" style="stroke:#BABDBF;stroke-width:1.0416666666666667;"/><text fill="#000000" font-family="Verdana" font-size="12.5" lengthAdjust="spacing" textLength="90.625" x="313.3229" y="275.8626">include_hba1c()</text></g><!--entity in_podiatrist--><g id="elem_in_podiatrist"><polygon fill="#ADD8E6" points="466.4479,246.875,661.2396,246.875,671.6563,271.0126,661.2396,295.1501,466.4479,295.1501" style="stroke:#BABDBF;stroke-width:1.0416666666666667;"/><text fill="#000000" font-family="Verdana" font-size="12.5" lengthAdjust="spacing" textLength="163.5417" x="482.0729" y="275.8626">include_podiatrist_services()</text></g><!--entity in_gld--><g id="elem_in_gld"><polygon fill="#ADD8E6" points="81.0313,246.875,250.8229,246.875,261.2396,271.0126,250.8229,295.1501,81.0313,295.1501" style="stroke:#BABDBF;stroke-width:1.0416666666666667;"/><text fill="#000000" font-family="Verdana" font-size="12.5" lengthAdjust="spacing" textLength="138.5417" x="96.6563" y="275.8626">include_gld_purchases()</text></g><!--entity pregnancy--><g id="elem_pregnancy"><polygon fill="none" points="708.6354,246.875,871.1354,246.875,881.5521,271.0126,871.1354,295.1501,708.6354,295.1501" style="stroke:#BABDBF;stroke-width:1.0416666666666667;"/><text fill="#000000" font-family="Verdana" font-size="12.5" lengthAdjust="spacing" textLength="131.25" x="724.2604" y="275.8626">get_pregnancy_dates()</text></g><!--entity join_inclusion--><g id="elem_join_inclusion"><polygon fill="none" points="505.5104,578.125,622.1771,578.125,632.5938,602.2626,622.1771,626.4001,505.5104,626.4001" style="stroke:#BABDBF;stroke-width:1.0416666666666667;"/><text fill="#000000" font-family="Verdana" font-size="12.5" lengthAdjust="spacing" textLength="85.4167" x="521.1354" y="607.1126">join_inclusion()</text></g><!--entity inclusion_date--><g id="elem_inclusion_date"><polygon fill="none" points="478.4271,688.5417,649.2604,688.5417,659.6771,712.6792,649.2604,736.8168,478.4271,736.8168" style="stroke:#BABDBF;stroke-width:1.0416666666666667;"/><text fill="#000000" font-family="Verdana" font-size="12.5" lengthAdjust="spacing" textLength="139.5833" x="494.0521" y="717.5293">create_inclusion_dates()</text></g><!--link lpr_diag to lpr2--><g id="link_lpr_diag_lpr2"><path d="M923.4063,74 C925.6979,93.0833 927.9523,111.9613 930.1189,129.9926 " fill="none" id="lpr_diag-to-lpr2" style="stroke:#2FA4E7;stroke-width:3.125;"/><polygon fill="#2FA4E7" points="930.8646,136.1979,933.883,126.3928,930.2432,131.0268,925.6092,127.387,930.8646,136.1979" style="stroke:#2FA4E7;stroke-width:3.125;"/></g><!--link lpr_adm to lpr2--><g id="link_lpr_adm_lpr2"><path d="M1009.9583,74 C992.9063,93.0833 974.6455,113.5079 958.5205,131.5391 " fill="none" id="lpr_adm-to-lpr2" style="stroke:#2FA4E7;stroke-width:3.125;"/><polygon fill="#2FA4E7" points="954.3542,136.1979,963.7095,131.9872,957.8261,132.3156,957.4977,126.4322,954.3542,136.1979" style="stroke:#2FA4E7;stroke-width:3.125;"/></g><!--link kontakter to lpr3--><g id="link_kontakter_lpr3"><path d="M800.5833,74 C800.0521,93.0833 799.5378,111.9191 799.0378,129.9503 " fill="none" id="kontakter-to-lpr3" style="stroke:#2FA4E7;stroke-width:3.125;"/><polygon fill="#2FA4E7" points="798.8646,136.1979,803.2895,126.942,799.009,130.9916,794.9594,126.711,798.8646,136.1979" style="stroke:#2FA4E7;stroke-width:3.125;"/></g><!--link diagnoser to lpr3--><g id="link_diagnoser_lpr3"><path d="M706.1563,74 C726.7396,93.0833 749.2096,113.9161 768.6471,131.9474 " fill="none" id="diagnoser-to-lpr3" style="stroke:#2FA4E7;stroke-width:3.125;"/><polygon fill="#2FA4E7" points="773.2292,136.1979,769.1898,126.7674,769.4108,132.6558,763.5224,132.8768,773.2292,136.1979" style="stroke:#2FA4E7;stroke-width:3.125;"/></g><!--link sssy to in_podiatrist--><g id="link_sssy_in_podiatrist"><path d="M567.2292,74.1979 C567.6458,118.7708 568.3897,199.0628 568.7751,240.4378 " fill="none" id="sssy-to-in_podiatrist" style="stroke:#2FA4E7;stroke-width:3.125;"/><polygon fill="#2FA4E7" points="568.8333,246.6875,572.9125,237.2741,568.7848,241.4794,564.5795,237.3517,568.8333,246.6875" style="stroke:#2FA4E7;stroke-width:3.125;"/></g><!--link sysi to in_podiatrist--><g id="link_sysi_in_podiatrist"><path d="M486.9896,74.1979 C505.6875,118.7708 539.5826,199.549 556.9367,240.924 " fill="none" id="sysi-to-in_podiatrist" style="stroke:#2FA4E7;stroke-width:3.125;"/><polygon fill="#2FA4E7" points="559.3542,246.6875,559.5704,236.4306,557.3396,241.8845,551.8856,239.6538,559.3542,246.6875" style="stroke:#2FA4E7;stroke-width:3.125;"/></g><!--link in_podiatrist to join_inclusion--><g id="link_in_podiatrist_join_inclusion"><path d="M569.0521,295.0208 C569.0521,355.4583 569.0521,511.2604 569.0521,571.6667 " fill="none" id="in_podiatrist-to-join_inclusion" style="stroke:#2FA4E7;stroke-width:3.125;"/><polygon fill="#2FA4E7" points="569.0521,577.9167,573.2188,568.5417,569.0521,572.7083,564.8854,568.5417,569.0521,577.9167" style="stroke:#2FA4E7;stroke-width:3.125;"/></g><!--link lab_forsker to in_hba1c--><g id="link_lab_forsker_in_hba1c"><path d="M363.8438,74.1979 C363.8438,118.7708 363.8438,199.0625 363.8438,240.4375 " fill="none" id="lab_forsker-to-in_hba1c" style="stroke:#2FA4E7;stroke-width:3.125;"/><polygon fill="#2FA4E7" points="363.8438,246.6875,368.0104,237.3125,363.8438,241.4792,359.6771,237.3125,363.8438,246.6875" style="stroke:#2FA4E7;stroke-width:3.125;"/></g><!--link in_hba1c to ex_pregnancy--><g id="link_in_hba1c_ex_pregnancy"><path d="M361.6667,295.2396 C358.1458,323.2708 349.2396,370.7604 327.3854,405.2083 C311.3646,430.4688 290.6419,448.6125 269.2565,463.8521 " fill="none" id="in_hba1c-to-ex_pregnancy" style="stroke:#2FA4E7;stroke-width:3.125;"/><polygon fill="#2FA4E7" points="264.1667,467.4792,274.2195,465.4317,268.4082,464.4566,269.3834,458.6453,264.1667,467.4792" style="stroke:#2FA4E7;stroke-width:3.125;"/></g><!--link ex_pregnancy to join_inclusion--><g id="link_ex_pregnancy_join_inclusion"><path d="M299.8438,515.6875 C360.7708,535 441.0422,560.455 499.3651,578.9446 " fill="none" id="ex_pregnancy-to-join_inclusion" style="stroke:#2FA4E7;stroke-width:3.125;"/><polygon fill="#2FA4E7" points="505.3229,580.8333,497.6454,574.0284,500.3581,579.2594,495.1271,581.9721,505.3229,580.8333" style="stroke:#2FA4E7;stroke-width:3.125;"/></g><!--link lmdb to in_gld--><g id="link_lmdb_in_gld"><path d="M239.5208,74.1979 C223.9375,118.7708 195.7389,199.4124 181.2805,240.7874 " fill="none" id="lmdb-to-in_gld" style="stroke:#2FA4E7;stroke-width:3.125;"/><polygon fill="#2FA4E7" points="179.2188,246.6875,186.2448,239.2118,180.9369,241.7707,178.378,236.4628,179.2188,246.6875" style="stroke:#2FA4E7;stroke-width:3.125;"/></g><!--link in_gld to ex_pcos--><g id="link_in_gld_ex_pcos"><path d="M180.8542,294.8542 C188.6354,313.2292 197.0552,333.1394 204.826,351.5144 " fill="none" id="in_gld-to-ex_pcos" style="stroke:#2FA4E7;stroke-width:3.125;"/><polygon fill="#2FA4E7" points="207.2604,357.2708,207.4464,347.0133,205.2318,352.4738,199.7712,350.2592,207.2604,357.2708" style="stroke:#2FA4E7;stroke-width:3.125;"/></g><!--link ex_pcos to ex_pregnancy--><g id="link_ex_pcos_ex_pregnancy"><path d="M219.1771,405.2708 C220.9479,423.6458 222.8206,443.091 224.581,461.466 " fill="none" id="ex_pcos-to-ex_pregnancy" style="stroke:#2FA4E7;stroke-width:3.125;"/><polygon fill="#2FA4E7" points="225.1771,467.6875,228.4307,457.9579,224.6804,462.5029,220.1353,458.7526,225.1771,467.6875" style="stroke:#2FA4E7;stroke-width:3.125;"/></g><!--link lpr2 to in_diagnoses--><g id="link_lpr2_in_diagnoses"><path d="M952.8542,184.4375 C968.2396,202.8125 985.6872,223.6858 1001.0622,242.0608 " fill="none" id="lpr2-to-in_diagnoses" style="stroke:#2FA4E7;stroke-width:3.125;"/><polygon fill="#2FA4E7" points="1005.0729,246.8542,1002.2523,236.9903,1001.7306,242.8597,995.8612,242.338,1005.0729,246.8542" style="stroke:#2FA4E7;stroke-width:3.125;"/></g><!--link lpr3 to in_diagnoses--><g id="link_lpr3_in_diagnoses"><path d="M846.1563,184.4375 C884.5208,202.8125 932.4158,225.7782 970.7596,244.1532 " fill="none" id="lpr3-to-in_diagnoses" style="stroke:#2FA4E7;stroke-width:3.125;"/><polygon fill="#2FA4E7" points="976.3958,246.8542,969.7421,239.0452,971.699,244.6033,966.1408,246.5602,976.3958,246.8542" style="stroke:#2FA4E7;stroke-width:3.125;"/></g><!--link in_diagnoses to join_inclusion--><g id="link_in_diagnoses_join_inclusion"><path d="M992.25,295.0208 C908.6771,355.4583 689.6376,513.8483 606.096,574.2545 " fill="none" id="in_diagnoses-to-join_inclusion" style="stroke:#2FA4E7;stroke-width:3.125;"/><polygon fill="#2FA4E7" points="601.0313,577.9167,611.0697,575.7999,605.2518,574.8649,606.1869,569.047,601.0313,577.9167" style="stroke:#2FA4E7;stroke-width:3.125;"/></g><!--link bef to ex_pcos--><g id="link_bef_ex_pcos"><path d="M132.3542,73.8333 C90.7083,122.6563 16.6667,226.5625 63.8437,303.125 C79.375,328.3333 100.2422,343.09 126.9505,354.7671 " fill="none" id="bef-to-ex_pcos" style="stroke:#2FA4E7;stroke-width:3.125;"/><polygon fill="#2FA4E7" points="132.6771,357.2708,125.7563,349.6975,127.9049,355.1844,122.418,357.333,132.6771,357.2708" style="stroke:#2FA4E7;stroke-width:3.125;"/></g><!--link lpr2 to pregnancy--><g id="link_lpr2_pregnancy"><path d="M904.2604,184.4375 C880.75,202.8125 852.8611,224.6294 829.3611,243.0044 " fill="none" id="lpr2-to-pregnancy" style="stroke:#2FA4E7;stroke-width:3.125;"/><polygon fill="#2FA4E7" points="824.4375,246.8542,834.3894,244.3618,828.5405,243.646,829.2563,237.7971,824.4375,246.8542" style="stroke:#2FA4E7;stroke-width:3.125;"/></g><!--link lpr3 to pregnancy--><g id="link_lpr3_pregnancy"><path d="M797.5625,184.4375 C797.0313,202.8125 796.4723,222.2318 795.941,240.6068 " fill="none" id="lpr3-to-pregnancy" style="stroke:#2FA4E7;stroke-width:3.125;"/><polygon fill="#2FA4E7" points="795.7604,246.8542,800.1963,237.6035,795.9109,241.648,791.8664,237.3627,795.7604,246.8542" style="stroke:#2FA4E7;stroke-width:3.125;"/></g><!--link pregnancy to ex_pregnancy--><g id="link_pregnancy_ex_pregnancy"><path d="M735.4167,294.875 C626.3854,336.8854 402.0301,423.3365 292.9572,465.3573 " fill="none" id="pregnancy-to-ex_pregnancy" style="stroke:#2FA4E7;stroke-width:3.125;"/><polygon fill="#2FA4E7" points="287.125,467.6042,297.3712,468.122,291.9851,465.7318,294.3753,460.3458,287.125,467.6042" style="stroke:#2FA4E7;stroke-width:3.125;"/></g><!--link join_inclusion to inclusion_date--><g id="link_join_inclusion_inclusion_date"><path d="M569.0521,626.1042 C569.0521,644.4792 569.0521,663.8958 569.0521,682.2708 " fill="none" id="join_inclusion-to-inclusion_date" style="stroke:#2FA4E7;stroke-width:3.125;"/><polygon fill="#2FA4E7" points="569.0521,688.5208,573.2188,679.1458,569.0521,683.3125,564.8854,679.1458,569.0521,688.5208" style="stroke:#2FA4E7;stroke-width:3.125;"/></g><!--SRC=[ZLNBhjiW4DtxA-ZTt5PAMZNPLL4MRTNVi31CR1e25k0gKPL_xu0DcDgvkTvbpimvyoGVN0SN80pC886ghHwS50ggWtKt2SUACYUqsX163TyGJXrjg8KDCS0SLQq4yhSY-FtIoltGKXlIIChErRtwB1IJWyNeoUKxsbkZ1yL7HodQpZLo0EyCrxUTjK4rxtduCcLMTO83EHoIpF58h0C3sjrwY6ZYBT7gzQUW3JYmfDVz8Aclai3LcR7Wa8FJBM1xp9II_s83YBNsjcAzMR6qojxKND1s7Q7yiW9SUBDYfKrzqiQUmIp1Cqw0djqQvCMLjcjG0wTWl3-gs7zZJyZBRorKZJdlFdvw8TJwz7TlEkwputwIUQGJGyF0EDIzWLPHnMuJ1LopgPphOmhjG3b1PTqpRMSy-6k5uluijR1foCkdrQbZNoCt5frCvMO-vEeQ-fNbyF3pdQ6zHZ5dX7KrZlQFOFCyClXEjbRokXyCwsXH3vgV462xycHgNAmKdgppqHShadYdYD9O-3C3I9t1GgcqudLx8hzrWIBU7zbkZtbdfzihZUc8edbSstH0sLoz9j5lPDRjE8eGvr-9459CP8JmgNW0bUFpFl_rfT0EApDMb9-7o9p1j5mUcHzJG8lhUgReToAjogYCprMKH3GAUiSeXpUNbFpzBT8e9EA9fSxREBDTr5aW-tMaEChLql9_3rMST21xRE1fK67pHX9y9XULf6JALgPCIdFPtiK0ogIcIegb_WS0]--></g></svg>