<?xml version="1.0" encoding="us-ascii" standalone="no"?><svg xmlns="http://www.w3.org/2000/svg" xmlns:xlink="http://www.w3.org/1999/xlink" contentStyleType="text/css" height="1044.7917px" preserveAspectRatio="none" style="width:1271px;height:1044px;" version="1.1" viewBox="0 0 1271 1044" width="1271.875px" zoomAndPan="magnify"><defs/><g><!--cluster cd--><g id="cluster_cd"><rect fill="none" height="1015.625" rx="4.1667" ry="4.1667" style="stroke:#033C73;stroke-width:1.0416666666666667;" width="1229.1667" x="17.7083" y="17.7083"/><line style="stroke:#033C73;stroke-width:1.0416666666666667;" x1="17.7083" x2="1246.875" y1="46.8424" y2="46.8424"/><text fill="#000000" font-family="Verdana" font-size="12.5" font-weight="bold" lengthAdjust="spacing" textLength="137.5" x="563.5417" y="36.6028">classify_diabetes()</text></g><!--cluster Classification--><g id="cluster_Classification"><rect fill="none" height="214.5833" rx="4.1667" ry="4.1667" style="stroke:#2FA4E7;stroke-width:2.0833333333333335;" width="1016.6667" x="42.7083" y="793.75"/><text fill="#000000" font-family="Verdana" font-size="12.5" font-weight="bold" lengthAdjust="spacing" textLength="98.9583" x="501.5625" y="812.6444">Classification</text></g><!--entity sssy--><g id="elem_sssy"><path d="M232.8125,80.2083 C232.8125,69.7917 262.5,69.7917 262.5,69.7917 C262.5,69.7917 292.1875,69.7917 292.1875,80.2083 L292.1875,114.5508 C292.1875,124.9674 262.5,124.9674 262.5,124.9674 C262.5,124.9674 232.8125,124.9674 232.8125,114.5508 L232.8125,80.2083 " fill="none" style="stroke:#2FA4E7;stroke-width:1.0416666666666667;"/><path d="M232.8125,80.2083 C232.8125,90.625 262.5,90.625 262.5,90.625 C262.5,90.625 292.1875,90.625 292.1875,80.2083 " fill="none" style="stroke:#2FA4E7;stroke-width:1.0416666666666667;"/><text fill="#000000" font-family="Verdana" font-size="12.5" lengthAdjust="spacing" textLength="28.125" x="248.4375" y="111.6028">sssy</text></g><!--entity sysi--><g id="elem_sysi"><path d="M141.1458,80.2083 C141.1458,69.7917 168.75,69.7917 168.75,69.7917 C168.75,69.7917 196.3542,69.7917 196.3542,80.2083 L196.3542,114.5508 C196.3542,124.9674 168.75,124.9674 168.75,124.9674 C168.75,124.9674 141.1458,124.9674 141.1458,114.5508 L141.1458,80.2083 " fill="none" style="stroke:#2FA4E7;stroke-width:1.0416666666666667;"/><path d="M141.1458,80.2083 C141.1458,90.625 168.75,90.625 168.75,90.625 C168.75,90.625 196.3542,90.625 196.3542,80.2083 " fill="none" style="stroke:#2FA4E7;stroke-width:1.0416666666666667;"/><text fill="#000000" font-family="Verdana" font-size="12.5" lengthAdjust="spacing" textLength="23.9583" x="156.7708" y="111.6028">sysi</text></g><!--entity lpr_diag--><g id="elem_lpr_diag"><path d="M593.2292,80.2083 C593.2292,69.7917 634.375,69.7917 634.375,69.7917 C634.375,69.7917 675.5208,69.7917 675.5208,80.2083 L675.5208,114.5508 C675.5208,124.9674 634.375,124.9674 634.375,124.9674 C634.375,124.9674 593.2292,124.9674 593.2292,114.5508 L593.2292,80.2083 " fill="none" style="stroke:#2FA4E7;stroke-width:1.0416666666666667;"/><path d="M593.2292,80.2083 C593.2292,90.625 634.375,90.625 634.375,90.625 C634.375,90.625 675.5208,90.625 675.5208,80.2083 " fill="none" style="stroke:#2FA4E7;stroke-width:1.0416666666666667;"/><text fill="#000000" font-family="Verdana" font-size="12.5" lengthAdjust="spacing" textLength="51.0417" x="608.8542" y="111.6028">lpr_diag</text></g><!--entity lpr_adm--><g id="elem_lpr_adm"><path d="M711.9792,80.2083 C711.9792,69.7917 753.125,69.7917 753.125,69.7917 C753.125,69.7917 794.2708,69.7917 794.2708,80.2083 L794.2708,114.5508 C794.2708,124.9674 753.125,124.9674 753.125,124.9674 C753.125,124.9674 711.9792,124.9674 711.9792,114.5508 L711.9792,80.2083 " fill="none" style="stroke:#2FA4E7;stroke-width:1.0416666666666667;"/><path d="M711.9792,80.2083 C711.9792,90.625 753.125,90.625 753.125,90.625 C753.125,90.625 794.2708,90.625 794.2708,80.2083 " fill="none" style="stroke:#2FA4E7;stroke-width:1.0416666666666667;"/><text fill="#000000" font-family="Verdana" font-size="12.5" lengthAdjust="spacing" textLength="51.0417" x="727.6042" y="111.6028">lpr_adm</text></g><!--entity lmdb--><g id="elem_lmdb"><path d="M970.8333,80.2083 C970.8333,69.7917 1002.0833,69.7917 1002.0833,69.7917 C1002.0833,69.7917 1033.3333,69.7917 1033.3333,80.2083 L1033.3333,114.5508 C1033.3333,124.9674 1002.0833,124.9674 1002.0833,124.9674 C1002.0833,124.9674 970.8333,124.9674 970.8333,114.5508 L970.8333,80.2083 " fill="none" style="stroke:#2FA4E7;stroke-width:1.0416666666666667;"/><path d="M970.8333,80.2083 C970.8333,90.625 1002.0833,90.625 1002.0833,90.625 C1002.0833,90.625 1033.3333,90.625 1033.3333,80.2083 " fill="none" style="stroke:#2FA4E7;stroke-width:1.0416666666666667;"/><text fill="#000000" font-family="Verdana" font-size="12.5" lengthAdjust="spacing" textLength="31.25" x="986.4583" y="111.6028">lmdb</text></g><!--entity lab_forsker--><g id="elem_lab_forsker"><path d="M830.7292,80.2083 C830.7292,69.7917 882.2917,69.7917 882.2917,69.7917 C882.2917,69.7917 933.8542,69.7917 933.8542,80.2083 L933.8542,114.5508 C933.8542,124.9674 882.2917,124.9674 882.2917,124.9674 C882.2917,124.9674 830.7292,124.9674 830.7292,114.5508 L830.7292,80.2083 " fill="none" style="stroke:#2FA4E7;stroke-width:1.0416666666666667;"/><path d="M830.7292,80.2083 C830.7292,90.625 882.2917,90.625 882.2917,90.625 C882.2917,90.625 933.8542,90.625 933.8542,80.2083 " fill="none" style="stroke:#2FA4E7;stroke-width:1.0416666666666667;"/><text fill="#000000" font-family="Verdana" font-size="12.5" lengthAdjust="spacing" textLength="71.875" x="846.3542" y="111.6028">lab_forsker</text></g><!--entity kontakter--><g id="elem_kontakter"><path d="M328.6458,80.2083 C328.6458,69.7917 376.0417,69.7917 376.0417,69.7917 C376.0417,69.7917 423.4375,69.7917 423.4375,80.2083 L423.4375,114.5508 C423.4375,124.9674 376.0417,124.9674 376.0417,124.9674 C376.0417,124.9674 328.6458,124.9674 328.6458,114.5508 L328.6458,80.2083 " fill="none" style="stroke:#2FA4E7;stroke-width:1.0416666666666667;"/><path d="M328.6458,80.2083 C328.6458,90.625 376.0417,90.625 376.0417,90.625 C376.0417,90.625 423.4375,90.625 423.4375,80.2083 " fill="none" style="stroke:#2FA4E7;stroke-width:1.0416666666666667;"/><text fill="#000000" font-family="Verdana" font-size="12.5" lengthAdjust="spacing" textLength="63.5417" x="344.2708" y="111.6028">kontakter</text></g><!--entity diagnoser--><g id="elem_diagnoser"><path d="M459.8958,80.2083 C459.8958,69.7917 508.3333,69.7917 508.3333,69.7917 C508.3333,69.7917 556.7708,69.7917 556.7708,80.2083 L556.7708,114.5508 C556.7708,124.9674 508.3333,124.9674 508.3333,124.9674 C508.3333,124.9674 459.8958,124.9674 459.8958,114.5508 L459.8958,80.2083 " fill="none" style="stroke:#2FA4E7;stroke-width:1.0416666666666667;"/><path d="M459.8958,80.2083 C459.8958,90.625 508.3333,90.625 508.3333,90.625 C508.3333,90.625 556.7708,90.625 556.7708,80.2083 " fill="none" style="stroke:#2FA4E7;stroke-width:1.0416666666666667;"/><text fill="#000000" font-family="Verdana" font-size="12.5" lengthAdjust="spacing" textLength="65.625" x="475.5208" y="111.6028">diagnoser</text></g><!--entity bef--><g id="elem_bef"><path d="M1069.7917,80.2083 C1069.7917,69.7917 1095.8333,69.7917 1095.8333,69.7917 C1095.8333,69.7917 1121.875,69.7917 1121.875,80.2083 L1121.875,114.5508 C1121.875,124.9674 1095.8333,124.9674 1095.8333,124.9674 C1095.8333,124.9674 1069.7917,124.9674 1069.7917,114.5508 L1069.7917,80.2083 " fill="none" style="stroke:#2FA4E7;stroke-width:1.0416666666666667;"/><path d="M1069.7917,80.2083 C1069.7917,90.625 1095.8333,90.625 1095.8333,90.625 C1095.8333,90.625 1121.875,90.625 1121.875,80.2083 " fill="none" style="stroke:#2FA4E7;stroke-width:1.0416666666666667;"/><text fill="#000000" font-family="Verdana" font-size="12.5" lengthAdjust="spacing" textLength="20.8333" x="1085.4167" y="111.6028">bef</text></g><!--entity lpr2--><g id="elem_lpr2"><polygon fill="none" points="596.875,187.5,692.7083,187.5,703.125,210.4004,692.7083,233.3008,596.875,233.3008" style="stroke:#BABDBF;stroke-width:1.0416666666666667;"/><text fill="#000000" font-family="Verdana" font-size="12.5" lengthAdjust="spacing" textLength="64.5833" x="612.5" y="214.7278">join_lpr2()</text></g><!--entity lpr3--><g id="elem_lpr3"><polygon fill="none" points="425,187.5,550,187.5,560.4167,210.4004,550,233.3008,425,233.3008" style="stroke:#BABDBF;stroke-width:1.0416666666666667;"/><text fill="#000000" font-family="Verdana" font-size="12.5" lengthAdjust="spacing" textLength="93.75" x="440.625" y="214.7278">prepare_lpr3()</text></g><!--entity ex_pregnancy--><g id="elem_ex_pregnancy"><polygon fill="#FFA500" points="919.7917,512.5,1086.4583,512.5,1096.875,535.4004,1086.4583,558.3008,919.7917,558.3008" style="stroke:#BABDBF;stroke-width:1.0416666666666667;"/><text fill="#000000" font-family="Verdana" font-size="12.5" lengthAdjust="spacing" textLength="135.4167" x="935.4167" y="539.7278">exclude_pregnancy()</text></g><!--entity ex_pcos--><g id="elem_ex_pcos"><polygon fill="#FFA500" points="919.7917,404.1667,1113.5417,404.1667,1123.9583,427.0671,1113.5417,449.9674,919.7917,449.9674" style="stroke:#BABDBF;stroke-width:1.0416666666666667;"/><text fill="#000000" font-family="Verdana" font-size="12.5" lengthAdjust="spacing" textLength="162.5" x="935.4167" y="431.3944">exclude_potential_pcos()</text></g><!--entity in_diagnoses--><g id="elem_in_diagnoses"><polygon fill="#ADD8E6" points="306.7708,295.8333,532.8125,295.8333,543.2292,318.7337,532.8125,341.6341,306.7708,341.6341" style="stroke:#BABDBF;stroke-width:1.0416666666666667;"/><text fill="#000000" font-family="Verdana" font-size="12.5" lengthAdjust="spacing" textLength="194.7917" x="322.3958" y="323.0611">include_diabetes_diagnoses()</text></g><!--entity in_hba1c--><g id="elem_in_hba1c"><polygon fill="#ADD8E6" points="809.375,295.8333,944.7917,295.8333,955.2083,318.7337,944.7917,341.6341,809.375,341.6341" style="stroke:#BABDBF;stroke-width:1.0416666666666667;"/><text fill="#000000" font-family="Verdana" font-size="12.5" lengthAdjust="spacing" textLength="104.1667" x="825" y="323.0611">include_hba1c()</text></g><!--entity in_podiatrist--><g id="elem_in_podiatrist"><polygon fill="#ADD8E6" points="42.7083,295.8333,259.375,295.8333,269.7917,318.7337,259.375,341.6341,42.7083,341.6341" style="stroke:#BABDBF;stroke-width:1.0416666666666667;"/><text fill="#000000" font-family="Verdana" font-size="12.5" lengthAdjust="spacing" textLength="185.4167" x="58.3333" y="323.0611">include_podiatrist_services()</text></g><!--entity in_gld--><g id="elem_in_gld"><polygon fill="#ADD8E6" points="991.6667,295.8333,1181.25,295.8333,1191.6667,318.7337,1181.25,341.6341,991.6667,341.6341" style="stroke:#BABDBF;stroke-width:1.0416666666666667;"/><text fill="#000000" font-family="Verdana" font-size="12.5" lengthAdjust="spacing" textLength="158.3333" x="1007.2917" y="323.0611">include_gld_purchases()</text></g><!--entity pregnancy--><g id="elem_pregnancy"><polygon fill="none" points="579.6875,295.8333,761.9792,295.8333,772.3958,318.7337,761.9792,341.6341,579.6875,341.6341" style="stroke:#BABDBF;stroke-width:1.0416666666666667;"/><text fill="#000000" font-family="Verdana" font-size="12.5" lengthAdjust="spacing" textLength="151.0417" x="595.3125" y="323.0611">get_pregnancy_dates()</text></g><!--entity join_inclusion--><g id="elem_join_inclusion"><polygon fill="none" points="381.7708,620.8333,509.8958,620.8333,520.3125,643.7337,509.8958,666.6341,381.7708,666.6341" style="stroke:#BABDBF;stroke-width:1.0416666666666667;"/><text fill="#000000" font-family="Verdana" font-size="12.5" lengthAdjust="spacing" textLength="96.875" x="397.3958" y="648.0611">join_inclusion()</text></g><!--entity inclusion_date--><g id="elem_inclusion_date"><polygon fill="none" points="357.2917,729.1667,548.9583,729.1667,559.375,752.0671,548.9583,774.9674,357.2917,774.9674" style="stroke:#BABDBF;stroke-width:1.0416666666666667;"/><text fill="#000000" font-family="Verdana" font-size="12.5" lengthAdjust="spacing" textLength="160.4167" x="372.9167" y="756.3944">create_inclusion_dates()</text></g><!--entity t1d_diagnosis--><g id="elem_t1d_diagnosis"><polygon fill="none" points="344.2708,837.5,589.0625,837.5,599.4792,860.4004,589.0625,883.3008,344.2708,883.3008" style="stroke:#BABDBF;stroke-width:1.0416666666666667;"/><text fill="#000000" font-family="Verdana" font-size="12.5" lengthAdjust="spacing" textLength="213.5417" x="359.8958" y="864.7278">get_has_t1d_primary_diagnosis()</text></g><!--entity only_insulins--><g id="elem_only_insulins"><polygon fill="none" points="78.125,837.5,296.875,837.5,307.2917,860.4004,296.875,883.3008,78.125,883.3008" style="stroke:#BABDBF;stroke-width:1.0416666666666667;"/><text fill="#000000" font-family="Verdana" font-size="12.5" lengthAdjust="spacing" textLength="187.5" x="93.75" y="864.7278">get_only_insulin_purchases()</text></g><!--entity t1d_diagnosis_majority--><g id="elem_t1d_diagnosis_majority"><polygon fill="none" points="59.375,945.8333,355.2083,945.8333,365.625,968.7337,355.2083,991.6341,59.375,991.6341" style="stroke:#BABDBF;stroke-width:1.0416666666666667;"/><text fill="#000000" font-family="Verdana" font-size="12.5" lengthAdjust="spacing" textLength="264.5833" x="75" y="973.0611">get_majority_of_t1d_primary_diagnoses()</text></g><!--entity insulin_within_180_days--><g id="elem_insulin_within_180_days"><polygon fill="none" points="402.6042,945.8333,693.2292,945.8333,703.6458,968.7337,693.2292,991.6341,402.6042,991.6341" style="stroke:#BABDBF;stroke-width:1.0416666666666667;"/><text fill="#000000" font-family="Verdana" font-size="12.5" lengthAdjust="spacing" textLength="259.375" x="418.2292" y="973.0611">get_insulin_purchase_within_180_days()</text></g><!--entity insulin_is_two_thirds--><g id="elem_insulin_is_two_thirds"><polygon fill="none" points="740.625,945.8333,1032.2917,945.8333,1042.7083,968.7337,1032.2917,991.6341,740.625,991.6341" style="stroke:#BABDBF;stroke-width:1.0416666666666667;"/><text fill="#000000" font-family="Verdana" font-size="12.5" lengthAdjust="spacing" textLength="260.4167" x="756.25" y="973.0611">get_insulin_is_two_thirds_of_gld_doses()</text></g><!--link lpr_diag to lpr2--><g id="link_lpr_diag_lpr2"><path d="M638.1146,125.0104 C640.8125,144.1146 643.5255,163.3734 646.0464,181.3005 " fill="none" id="lpr_diag-to-lpr2" style="stroke:#2FA4E7;stroke-width:3.125;"/><polygon fill="#2FA4E7" points="646.9167,187.4896,649.7373,177.6257,646.1914,182.332,641.4852,178.7861,646.9167,187.4896" style="stroke:#2FA4E7;stroke-width:3.125;"/></g><!--link lpr_adm to lpr2--><g id="link_lpr_adm_lpr2"><path d="M728.4271,125.0104 C710.6667,144.1146 691.266,164.9851 674.5993,182.9122 " fill="none" id="lpr_adm-to-lpr2" style="stroke:#2FA4E7;stroke-width:3.125;"/><polygon fill="#2FA4E7" points="670.3438,187.4896,679.7787,183.4605,673.8901,183.6751,673.6755,177.7864,670.3438,187.4896" style="stroke:#2FA4E7;stroke-width:3.125;"/></g><!--link kontakter to lpr3--><g id="link_kontakter_lpr3"><path d="M403.9896,125.0104 C424.0729,144.1146 446.3028,165.2571 465.1674,183.1842 " fill="none" id="kontakter-to-lpr3" style="stroke:#2FA4E7;stroke-width:3.125;"/><polygon fill="#2FA4E7" points="469.6979,187.4896,465.7723,178.0111,465.9225,183.9017,460.0318,184.0518,469.6979,187.4896" style="stroke:#2FA4E7;stroke-width:3.125;"/></g><!--link diagnoser to lpr3--><g id="link_diagnoser_lpr3"><path d="M504.5938,125.0104 C501.8958,144.1146 499.1828,163.3734 496.662,181.3005 " fill="none" id="diagnoser-to-lpr3" style="stroke:#2FA4E7;stroke-width:3.125;"/><polygon fill="#2FA4E7" points="495.7917,187.4896,501.2232,178.7861,496.5169,182.332,492.971,177.6257,495.7917,187.4896" style="stroke:#2FA4E7;stroke-width:3.125;"/></g><!--link sssy to in_podiatrist--><g id="link_sssy_in_podiatrist"><path d="M249.4688,125.3229 C228.25,169.125 189.3406,249.4279 169.7052,289.9383 " fill="none" id="sssy-to-in_podiatrist" style="stroke:#2FA4E7;stroke-width:3.125;"/><polygon fill="#2FA4E7" points="166.9792,295.5625,174.8177,288.9436,169.2509,290.8757,167.3188,285.3089,166.9792,295.5625" style="stroke:#2FA4E7;stroke-width:3.125;"/></g><!--link sysi to in_podiatrist--><g id="link_sysi_in_podiatrist"><path d="M167.2188,125.3229 C164.7188,169.125 160.1791,248.8122 157.8666,289.3227 " fill="none" id="sysi-to-in_podiatrist" style="stroke:#2FA4E7;stroke-width:3.125;"/><polygon fill="#2FA4E7" points="157.5104,295.5625,162.2046,286.4402,157.8072,290.3626,153.8848,285.9653,157.5104,295.5625" style="stroke:#2FA4E7;stroke-width:3.125;"/></g><!--link in_podiatrist to join_inclusion--><g id="link_in_podiatrist_join_inclusion"><path d="M176.5104,341.9896 C230.5,401.125 373.1196,557.3424 426.8175,616.1653 " fill="none" id="in_podiatrist-to-join_inclusion" style="stroke:#2FA4E7;stroke-width:3.125;"/><polygon fill="#2FA4E7" points="431.0313,620.7813,427.7879,611.0482,427.5198,616.9346,421.6333,616.6665,431.0313,620.7813" style="stroke:#2FA4E7;stroke-width:3.125;"/></g><!--link lab_forsker to in_hba1c--><g id="link_lab_forsker_in_hba1c"><path d="M882.2917,125.3229 C882.2917,169.125 882.2917,248.8021 882.2917,289.3125 " fill="none" id="lab_forsker-to-in_hba1c" style="stroke:#2FA4E7;stroke-width:3.125;"/><polygon fill="#2FA4E7" points="882.2917,295.5625,886.4583,286.1875,882.2917,290.3542,878.125,286.1875,882.2917,295.5625" style="stroke:#2FA4E7;stroke-width:3.125;"/></g><!--link in_hba1c to ex_pregnancy--><g id="link_in_hba1c_ex_pregnancy"><path d="M880.9063,342.1354 C880.2292,369.4375 882.4792,416.1667 902.0833,450 C917.4375,476.4896 939.3151,494.487 962.3359,509.0807 " fill="none" id="in_hba1c-to-ex_pregnancy" style="stroke:#2FA4E7;stroke-width:3.125;"/><polygon fill="#2FA4E7" points="967.6146,512.4271,961.9275,503.8884,963.2157,509.6385,957.4657,510.9267,967.6146,512.4271" style="stroke:#2FA4E7;stroke-width:3.125;"/></g><!--link ex_pregnancy to join_inclusion--><g id="link_ex_pregnancy_join_inclusion"><path d="M945.3646,558.3958 C935.4896,561.4271 925.3333,564.3021 915.625,566.6667 C777.25,600.3229 618.2028,622.629 526.7861,633.9311 " fill="none" id="ex_pregnancy-to-join_inclusion" style="stroke:#2FA4E7;stroke-width:3.125;"/><polygon fill="#2FA4E7" points="520.5833,634.6979,530.3987,637.6828,525.7523,634.0589,529.3763,629.4124,520.5833,634.6979" style="stroke:#2FA4E7;stroke-width:3.125;"/></g><!--link lmdb to in_gld--><g id="link_lmdb_in_gld"><path d="M1013.0729,125.3229 C1030.9583,169.125 1063.6973,249.2669 1080.2598,289.7773 " fill="none" id="lmdb-to-in_gld" style="stroke:#2FA4E7;stroke-width:3.125;"/><polygon fill="#2FA4E7" points="1082.625,295.5625,1082.9339,285.3079,1080.654,290.7415,1075.2204,288.4616,1082.625,295.5625" style="stroke:#2FA4E7;stroke-width:3.125;"/></g><!--link in_gld to ex_pcos--><g id="link_in_gld_ex_pcos"><path d="M1077.2083,341.8021 C1065.2292,360.0417 1051.724,380.5998 1039.7449,398.8289 " fill="none" id="in_gld-to-ex_pcos" style="stroke:#2FA4E7;stroke-width:3.125;"/><polygon fill="#2FA4E7" points="1036.3125,404.0521,1044.9431,398.5056,1039.1728,399.6995,1037.9789,393.9291,1036.3125,404.0521" style="stroke:#2FA4E7;stroke-width:3.125;"/></g><!--link ex_pcos to ex_pregnancy--><g id="link_ex_pcos_ex_pregnancy"><path d="M1019.0729,450.1354 C1016.75,468.375 1014.2484,487.9564 1011.9255,506.1856 " fill="none" id="ex_pcos-to-ex_pregnancy" style="stroke:#2FA4E7;stroke-width:3.125;"/><polygon fill="#2FA4E7" points="1011.1354,512.3854,1016.4537,503.6123,1011.7938,507.2189,1008.1872,502.5589,1011.1354,512.3854" style="stroke:#2FA4E7;stroke-width:3.125;"/></g><!--link lpr2 to in_diagnoses--><g id="link_lpr2_in_diagnoses"><path d="M603.6563,233.3438 C565.0625,251.5729 516.0053,274.7262 477.3283,292.9971 " fill="none" id="lpr2-to-in_diagnoses" style="stroke:#2FA4E7;stroke-width:3.125;"/><polygon fill="#2FA4E7" points="471.6771,295.6667,481.9336,295.4297,476.3864,293.442,478.3741,287.8948,471.6771,295.6667" style="stroke:#2FA4E7;stroke-width:3.125;"/></g><!--link lpr3 to in_diagnoses--><g id="link_lpr3_in_diagnoses"><path d="M478.6771,233.4688 C467.0625,251.7083 453.9834,272.2186 442.3688,290.4477 " fill="none" id="lpr3-to-in_diagnoses" style="stroke:#2FA4E7;stroke-width:3.125;"/><polygon fill="#2FA4E7" points="439.0104,295.7188,447.562,290.0511,441.8091,291.3262,440.534,285.5733,439.0104,295.7188" style="stroke:#2FA4E7;stroke-width:3.125;"/></g><!--link in_diagnoses to join_inclusion--><g id="link_in_diagnoses_join_inclusion"><path d="M426.7917,341.9896 C431.5625,401.125 444.0293,555.7285 448.7689,614.5514 " fill="none" id="in_diagnoses-to-join_inclusion" style="stroke:#2FA4E7;stroke-width:3.125;"/><polygon fill="#2FA4E7" points="449.2708,620.7813,452.6711,611.1019,448.8525,615.5897,444.3647,611.7712,449.2708,620.7813" style="stroke:#2FA4E7;stroke-width:3.125;"/></g><!--link bef to ex_pcos--><g id="link_bef_ex_pcos"><path d="M1121.9063,122.3646 C1169.2708,168.7604 1259.9792,273.1667 1208.3333,350 C1188.9271,378.8646 1162.3506,394.7571 1129.8819,405.8717 " fill="none" id="bef-to-ex_pcos" style="stroke:#2FA4E7;stroke-width:3.125;"/><polygon fill="#2FA4E7" points="1123.9688,407.8958,1134.1879,408.8017,1128.8964,406.209,1131.489,400.9175,1123.9688,407.8958" style="stroke:#2FA4E7;stroke-width:3.125;"/></g><!--link lpr2 to pregnancy--><g id="link_lpr2_pregnancy"><path d="M655.3958,233.4688 C659.8646,251.7083 664.6994,271.4193 669.1682,289.6485 " fill="none" id="lpr2-to-pregnancy" style="stroke:#2FA4E7;stroke-width:3.125;"/><polygon fill="#2FA4E7" points="670.6563,295.7188,672.471,285.6213,669.4162,290.6602,664.3773,287.6054,670.6563,295.7188" style="stroke:#2FA4E7;stroke-width:3.125;"/></g><!--link lpr3 to pregnancy--><g id="link_lpr3_pregnancy"><path d="M530.6979,233.4688 C562.1563,251.7083 601.249,274.3552 632.6969,292.5844 " fill="none" id="lpr3-to-pregnancy" style="stroke:#2FA4E7;stroke-width:3.125;"/><polygon fill="#2FA4E7" points="638.1042,295.7188,632.0829,287.4124,633.5981,293.1068,627.9037,294.622,638.1042,295.7188" style="stroke:#2FA4E7;stroke-width:3.125;"/></g><!--link pregnancy to ex_pregnancy--><g id="link_pregnancy_ex_pregnancy"><path d="M709.3854,341.8333 C748.8229,367.8542 816.5104,412.3542 875,450 C908.2813,471.4271 941.1885,492.2143 968.1364,509.1622 " fill="none" id="pregnancy-to-ex_pregnancy" style="stroke:#2FA4E7;stroke-width:3.125;"/><polygon fill="#2FA4E7" points="973.4271,512.4896,967.7093,503.9714,969.0182,509.7168,963.2728,511.0256,973.4271,512.4896" style="stroke:#2FA4E7;stroke-width:3.125;"/></g><!--link join_inclusion to inclusion_date--><g id="link_join_inclusion_inclusion_date"><path d="M452.5521,666.8021 C453.8021,685.0417 455.1453,704.5876 456.3953,722.8167 " fill="none" id="join_inclusion-to-inclusion_date" style="stroke:#2FA4E7;stroke-width:3.125;"/><polygon fill="#2FA4E7" points="456.8229,729.0521,460.3385,719.414,456.4666,723.856,452.0247,719.9841,456.8229,729.0521" style="stroke:#2FA4E7;stroke-width:3.125;"/></g><!--link inclusion_date to t1d_diagnosis--><g id="link_inclusion_date_t1d_diagnosis"><path d="M461.1354,775.1354 C463.4583,793.375 465.96,812.9564 468.2829,831.1856 " fill="none" id="inclusion_date-to-t1d_diagnosis" style="stroke:#2FA4E7;stroke-width:3.125;"/><polygon fill="#2FA4E7" points="469.0729,837.3854,472.0211,827.5589,468.4145,832.2189,463.7546,828.6123,469.0729,837.3854" style="stroke:#2FA4E7;stroke-width:3.125;"/></g><!--reverse link only_insulins to t1d_diagnosis--><g id="link_only_insulins_t1d_diagnosis"><path d="M313.7292,860.4167 C325.9375,860.4167 331.8854,860.4167 344.0833,860.4167 " fill="none" id="only_insulins-backto-t1d_diagnosis" style="stroke:#2FA4E7;stroke-width:3.125;"/><polygon fill="#2FA4E7" points="307.4792,860.4167,316.8542,864.5833,312.6875,860.4167,316.8542,856.25,307.4792,860.4167" style="stroke:#2FA4E7;stroke-width:3.125;"/></g><!--link only_insulins to t1d_diagnosis_majority--><g id="link_only_insulins_t1d_diagnosis_majority"><path d="M196.8125,883.4688 C200.2083,901.7083 203.8658,921.3453 207.2617,939.5745 " fill="none" id="only_insulins-to-t1d_diagnosis_majority" style="stroke:#2FA4E7;stroke-width:3.125;"/><polygon fill="#2FA4E7" points="208.4063,945.7188,210.7856,935.7392,207.4524,940.5985,202.5932,937.2654,208.4063,945.7188" style="stroke:#2FA4E7;stroke-width:3.125;"/></g><!--link t1d_diagnosis_majority to insulin_within_180_days--><g id="link_t1d_diagnosis_majority_insulin_within_180_days"><path d="M365.8438,968.75 C378.0417,968.75 383.9792,968.75 396.1771,968.75 " fill="none" id="t1d_diagnosis_majority-to-insulin_within_180_days" style="stroke:#2FA4E7;stroke-width:3.125;"/><polygon fill="#2FA4E7" points="402.4271,968.75,393.0521,964.5833,397.2188,968.75,393.0521,972.9167,402.4271,968.75" style="stroke:#2FA4E7;stroke-width:3.125;"/></g><!--link insulin_within_180_days to insulin_is_two_thirds--><g id="link_insulin_within_180_days_insulin_is_two_thirds"><path d="M703.8854,968.75 C716.1042,968.75 722.0833,968.75 734.3125,968.75 " fill="none" id="insulin_within_180_days-to-insulin_is_two_thirds" style="stroke:#2FA4E7;stroke-width:3.125;"/><polygon fill="#2FA4E7" points="740.5625,968.75,731.1875,964.5833,735.3542,968.75,731.1875,972.9167,740.5625,968.75" style="stroke:#2FA4E7;stroke-width:3.125;"/></g><!--SRC=[IquiIb58paaiBivCgunFoKnCIYr9BTRGL4WiLaXEKQZcKW02nSoyv9pIb5I5jDAyv9BC_3pTj9pySjs2_8BId4GGNw-WD3S7drAe3Pd9ICfhkG00]--></g></svg>