<?xml version="1.0" encoding="us-ascii" standalone="no"?><svg xmlns="http://www.w3.org/2000/svg" xmlns:xlink="http://www.w3.org/1999/xlink" contentStyleType="text/css" height="841.6667px" preserveAspectRatio="none" style="width:363px;height:841px;" version="1.1" viewBox="0 0 363 841" width="363.5417px" zoomAndPan="magnify"><defs/><g><!--entity lpr_diag--><g id="elem_lpr_diag"><path d="M140.1042,27.0833 C140.1042,16.6667 181.25,16.6667 181.25,16.6667 C181.25,16.6667 222.3958,16.6667 222.3958,27.0833 L222.3958,61.4258 C222.3958,71.8424 181.25,71.8424 181.25,71.8424 C181.25,71.8424 140.1042,71.8424 140.1042,61.4258 L140.1042,27.0833 " fill="none" style="stroke:#2FA4E7;stroke-width:1.0416666666666667;"/><path d="M140.1042,27.0833 C140.1042,37.5 181.25,37.5 181.25,37.5 C181.25,37.5 222.3958,37.5 222.3958,27.0833 " fill="none" style="stroke:#2FA4E7;stroke-width:1.0416666666666667;"/><text fill="#000000" font-family="Verdana" font-size="12.5" lengthAdjust="spacing" textLength="51.0417" x="155.7292" y="58.4778">lpr_diag</text></g><!--entity lpr_adm--><g id="elem_lpr_adm"><path d="M258.8542,27.0833 C258.8542,16.6667 300,16.6667 300,16.6667 C300,16.6667 341.1458,16.6667 341.1458,27.0833 L341.1458,61.4258 C341.1458,71.8424 300,71.8424 300,71.8424 C300,71.8424 258.8542,71.8424 258.8542,61.4258 L258.8542,27.0833 " fill="none" style="stroke:#2FA4E7;stroke-width:1.0416666666666667;"/><path d="M258.8542,27.0833 C258.8542,37.5 300,37.5 300,37.5 C300,37.5 341.1458,37.5 341.1458,27.0833 " fill="none" style="stroke:#2FA4E7;stroke-width:1.0416666666666667;"/><text fill="#000000" font-family="Verdana" font-size="12.5" lengthAdjust="spacing" textLength="51.0417" x="274.4792" y="58.4778">lpr_adm</text></g><!--entity code--><g id="elem_code"><polygon fill="none" points="27.0833,134.375,264.5833,134.375,275,157.2754,264.5833,180.1758,27.0833,180.1758" style="stroke:#BABDBF;stroke-width:1.0416666666666667;"/><text fill="#000000" font-family="Verdana" font-size="12.5" lengthAdjust="spacing" textLength="206.25" x="42.7083" y="161.6028">keep_needed_diagnosis_code()</text></g><!--entity type--><g id="elem_type"><polygon fill="none" points="30.2083,242.7083,263.5417,242.7083,273.9583,265.6087,263.5417,288.5091,30.2083,288.5091" style="stroke:#BABDBF;stroke-width:1.0416666666666667;"/><text fill="#000000" font-family="Verdana" font-size="12.5" lengthAdjust="spacing" textLength="202.0833" x="45.8333" y="269.9361">keep_needed_diagnosis_type()</text></g><!--entity join--><g id="elem_join"><polygon fill="none" points="187.5,351.0417,283.3333,351.0417,293.75,373.9421,283.3333,396.8424,187.5,396.8424" style="stroke:#BABDBF;stroke-width:1.0416666666666667;"/><text fill="#000000" font-family="Verdana" font-size="12.5" lengthAdjust="spacing" textLength="64.5833" x="203.125" y="378.2694">join_lpr2()</text></g><!--entity gd--><g id="elem_gd"><polygon fill="none" points="161.9792,459.375,308.8542,459.375,319.2708,482.2754,308.8542,505.1758,161.9792,505.1758" style="stroke:#BABDBF;stroke-width:1.0416666666666667;"/><text fill="#000000" font-family="Verdana" font-size="12.5" lengthAdjust="spacing" textLength="115.625" x="177.6042" y="486.6028">get_department()</text></g><!--entity t1d--><g id="elem_t1d"><polygon fill="none" points="189.5833,567.7083,281.25,567.7083,291.6667,590.6087,281.25,613.5091,189.5833,613.5091" style="stroke:#BABDBF;stroke-width:1.0416666666666667;"/><text fill="#000000" font-family="Verdana" font-size="12.5" lengthAdjust="spacing" textLength="60.4167" x="205.2083" y="594.9361">get_t1d()</text></g><!--entity t2d--><g id="elem_t2d"><polygon fill="none" points="189.5833,676.0417,281.25,676.0417,291.6667,698.9421,281.25,721.8424,189.5833,721.8424" style="stroke:#BABDBF;stroke-width:1.0416666666666667;"/><text fill="#000000" font-family="Verdana" font-size="12.5" lengthAdjust="spacing" textLength="60.4167" x="205.2083" y="703.2694">get_t2d()</text></g><!--entity gpd--><g id="elem_gpd"><polygon fill="none" points="142.1875,784.375,328.6458,784.375,339.0625,807.2754,328.6458,830.1758,142.1875,830.1758" style="stroke:#BABDBF;stroke-width:1.0416666666666667;"/><text fill="#000000" font-family="Verdana" font-size="12.5" lengthAdjust="spacing" textLength="155.2083" x="157.8125" y="811.6028">get_primary_diagnosis()</text></g><!--link lpr_diag to code--><g id="link_lpr_diag_code"><path d="M174.0104,71.8854 C168.8125,90.9896 163.5287,110.4074 158.6433,128.3345 " fill="none" id="lpr_diag-to-code" style="stroke:#2FA4E7;stroke-width:3.125;"/><polygon fill="#2FA4E7" points="157,134.3646,163.485,126.415,158.3694,129.3395,155.4449,124.2239,157,134.3646" style="stroke:#2FA4E7;stroke-width:3.125;"/></g><!--link code to type--><g id="link_code_type"><path d="M151.2604,180.3438 C151.4375,198.5833 151.6268,218.1149 151.8039,236.344 " fill="none" id="code-to-type" style="stroke:#2FA4E7;stroke-width:3.125;"/><polygon fill="#2FA4E7" points="151.8646,242.5938,155.94,233.1787,151.814,237.3857,147.607,233.2597,151.8646,242.5938" style="stroke:#2FA4E7;stroke-width:3.125;"/></g><!--link type to join--><g id="link_type_join"><path d="M170.4271,288.6771 C185.625,306.9167 203.114,327.8961 218.3015,346.1253 " fill="none" id="type-to-join" style="stroke:#2FA4E7;stroke-width:3.125;"/><polygon fill="#2FA4E7" points="222.3021,350.9271,219.5024,341.0573,218.9682,346.9256,213.0999,346.3914,222.3021,350.9271" style="stroke:#2FA4E7;stroke-width:3.125;"/></g><!--link lpr_adm to join--><g id="link_lpr_adm_join"><path d="M303.3854,71.9271 C308.2292,117.4271 314.2604,212.6042 291.6667,288.5417 C284.8333,311.5104 273.8994,329.5501 262.0453,345.748 " fill="none" id="lpr_adm-to-join" style="stroke:#2FA4E7;stroke-width:3.125;"/><polygon fill="#2FA4E7" points="258.3542,350.7917,267.2532,345.6869,261.4301,346.5886,260.5284,340.7655,258.3542,350.7917" style="stroke:#2FA4E7;stroke-width:3.125;"/></g><!--link join to gd--><g id="link_join_gd"><path d="M240.625,397.0104 C240.625,415.25 240.625,434.7813 240.625,453.0104 " fill="none" id="join-to-gd" style="stroke:#2FA4E7;stroke-width:3.125;"/><polygon fill="#2FA4E7" points="240.625,459.2604,244.7917,449.8854,240.625,454.0521,236.4583,449.8854,240.625,459.2604" style="stroke:#2FA4E7;stroke-width:3.125;"/></g><!--link gd to t1d--><g id="link_gd_t1d"><path d="M240.625,505.3438 C240.625,523.5833 240.625,543.1146 240.625,561.3438 " fill="none" id="gd-to-t1d" style="stroke:#2FA4E7;stroke-width:3.125;"/><polygon fill="#2FA4E7" points="240.625,567.5938,244.7917,558.2188,240.625,562.3854,236.4583,558.2188,240.625,567.5938" style="stroke:#2FA4E7;stroke-width:3.125;"/></g><!--link t1d to t2d--><g id="link_t1d_t2d"><path d="M240.625,613.6771 C240.625,631.9167 240.625,651.4479 240.625,669.6771 " fill="none" id="t1d-to-t2d" style="stroke:#2FA4E7;stroke-width:3.125;"/><polygon fill="#2FA4E7" points="240.625,675.9271,244.7917,666.5521,240.625,670.7188,236.4583,666.5521,240.625,675.9271" style="stroke:#2FA4E7;stroke-width:3.125;"/></g><!--link t2d to gpd--><g id="link_t2d_gpd"><path d="M240.625,722.0104 C240.625,740.25 240.625,759.7813 240.625,778.0104 " fill="none" id="t2d-to-gpd" style="stroke:#2FA4E7;stroke-width:3.125;"/><polygon fill="#2FA4E7" points="240.625,784.2604,244.7917,774.8854,240.625,779.0521,236.4583,774.8854,240.625,784.2604" style="stroke:#2FA4E7;stroke-width:3.125;"/></g><!--SRC=[XL31RiCW3Btp5LvFdPHeQivLBvFs6v6BhPIL02Bk8QhwxmD2KdKx30dBzdiyF_mc5nuPDCURPNIjluarZjLnajdoIQ4Murq36YCrG2XuneaRYAm5tM0PxWhI-V9EFhtr4SuMzLKzrF6ZIYZn0wSniL9N4R0XzcHm-Dj56fD27GwxAtFe7JCnbGVEJsRgjIVUl-y09yZfFsoPmyhEwSR-ziRrQMPNmLnlOFBT4mUCChAJoXZe1PS3hRg7NqYt8Tqh4g8PCSvFUwjq8ANMjK3RdihFG9MOos8zXr8LhtLVpqOEfKf61rgU9MVfBddoakx2IFCUwWS0]--></g></svg>