<?xml version="1.0" encoding="us-ascii" standalone="no"?><svg xmlns="http://www.w3.org/2000/svg" xmlns:xlink="http://www.w3.org/1999/xlink" contentStyleType="text/css" height="841.6667px" preserveAspectRatio="none" style="width:1259px;height:841px;" version="1.1" viewBox="0 0 1259 841" width="1259.375px" zoomAndPan="magnify"><defs/><g><!--entity sssy--><g id="elem_sssy"><path d="M710.4167,27.0833 C710.4167,16.6667 740.1042,16.6667 740.1042,16.6667 C740.1042,16.6667 769.7917,16.6667 769.7917,27.0833 L769.7917,61.4258 C769.7917,71.8424 740.1042,71.8424 740.1042,71.8424 C740.1042,71.8424 710.4167,71.8424 710.4167,61.4258 L710.4167,27.0833 " fill="none" style="stroke:#2FA4E7;stroke-width:1.0416666666666667;"/><path d="M710.4167,27.0833 C710.4167,37.5 740.1042,37.5 740.1042,37.5 C740.1042,37.5 769.7917,37.5 769.7917,27.0833 " fill="none" style="stroke:#2FA4E7;stroke-width:1.0416666666666667;"/><text fill="#000000" font-family="Verdana" font-size="12.5" lengthAdjust="spacing" textLength="28.125" x="726.0417" y="58.4778">sssy</text></g><!--entity sysi--><g id="elem_sysi"><path d="M618.75,27.0833 C618.75,16.6667 646.3542,16.6667 646.3542,16.6667 C646.3542,16.6667 673.9583,16.6667 673.9583,27.0833 L673.9583,61.4258 C673.9583,71.8424 646.3542,71.8424 646.3542,71.8424 C646.3542,71.8424 618.75,71.8424 618.75,61.4258 L618.75,27.0833 " fill="none" style="stroke:#2FA4E7;stroke-width:1.0416666666666667;"/><path d="M618.75,27.0833 C618.75,37.5 646.3542,37.5 646.3542,37.5 C646.3542,37.5 673.9583,37.5 673.9583,27.0833 " fill="none" style="stroke:#2FA4E7;stroke-width:1.0416666666666667;"/><text fill="#000000" font-family="Verdana" font-size="12.5" lengthAdjust="spacing" textLength="23.9583" x="634.375" y="58.4778">sysi</text></g><!--entity lpr_diag--><g id="elem_lpr_diag"><path d="M381.25,27.0833 C381.25,16.6667 422.3958,16.6667 422.3958,16.6667 C422.3958,16.6667 463.5417,16.6667 463.5417,27.0833 L463.5417,61.4258 C463.5417,71.8424 422.3958,71.8424 422.3958,71.8424 C422.3958,71.8424 381.25,71.8424 381.25,61.4258 L381.25,27.0833 " fill="none" style="stroke:#2FA4E7;stroke-width:1.0416666666666667;"/><path d="M381.25,27.0833 C381.25,37.5 422.3958,37.5 422.3958,37.5 C422.3958,37.5 463.5417,37.5 463.5417,27.0833 " fill="none" style="stroke:#2FA4E7;stroke-width:1.0416666666666667;"/><text fill="#000000" font-family="Verdana" font-size="12.5" lengthAdjust="spacing" textLength="51.0417" x="396.875" y="58.4778">lpr_diag</text></g><!--entity lpr_adm--><g id="elem_lpr_adm"><path d="M500,27.0833 C500,16.6667 541.1458,16.6667 541.1458,16.6667 C541.1458,16.6667 582.2917,16.6667 582.2917,27.0833 L582.2917,61.4258 C582.2917,71.8424 541.1458,71.8424 541.1458,71.8424 C541.1458,71.8424 500,71.8424 500,61.4258 L500,27.0833 " fill="none" style="stroke:#2FA4E7;stroke-width:1.0416666666666667;"/><path d="M500,27.0833 C500,37.5 541.1458,37.5 541.1458,37.5 C541.1458,37.5 582.2917,37.5 582.2917,27.0833 " fill="none" style="stroke:#2FA4E7;stroke-width:1.0416666666666667;"/><text fill="#000000" font-family="Verdana" font-size="12.5" lengthAdjust="spacing" textLength="51.0417" x="515.625" y="58.4778">lpr_adm</text></g><!--entity lmdb--><g id="elem_lmdb"><path d="M1034.8958,27.0833 C1034.8958,16.6667 1066.1458,16.6667 1066.1458,16.6667 C1066.1458,16.6667 1097.3958,16.6667 1097.3958,27.0833 L1097.3958,61.4258 C1097.3958,71.8424 1066.1458,71.8424 1066.1458,71.8424 C1066.1458,71.8424 1034.8958,71.8424 1034.8958,61.4258 L1034.8958,27.0833 " fill="none" style="stroke:#2FA4E7;stroke-width:1.0416666666666667;"/><path d="M1034.8958,27.0833 C1034.8958,37.5 1066.1458,37.5 1066.1458,37.5 C1066.1458,37.5 1097.3958,37.5 1097.3958,27.0833 " fill="none" style="stroke:#2FA4E7;stroke-width:1.0416666666666667;"/><text fill="#000000" font-family="Verdana" font-size="12.5" lengthAdjust="spacing" textLength="31.25" x="1050.5208" y="58.4778">lmdb</text></g><!--entity lab_forsker--><g id="elem_lab_forsker"><path d="M806.25,27.0833 C806.25,16.6667 857.8125,16.6667 857.8125,16.6667 C857.8125,16.6667 909.375,16.6667 909.375,27.0833 L909.375,61.4258 C909.375,71.8424 857.8125,71.8424 857.8125,71.8424 C857.8125,71.8424 806.25,71.8424 806.25,61.4258 L806.25,27.0833 " fill="none" style="stroke:#2FA4E7;stroke-width:1.0416666666666667;"/><path d="M806.25,27.0833 C806.25,37.5 857.8125,37.5 857.8125,37.5 C857.8125,37.5 909.375,37.5 909.375,27.0833 " fill="none" style="stroke:#2FA4E7;stroke-width:1.0416666666666667;"/><text fill="#000000" font-family="Verdana" font-size="12.5" lengthAdjust="spacing" textLength="71.875" x="821.875" y="58.4778">lab_forsker</text></g><!--entity kontakter--><g id="elem_kontakter"><path d="M116.6667,27.0833 C116.6667,16.6667 164.0625,16.6667 164.0625,16.6667 C164.0625,16.6667 211.4583,16.6667 211.4583,27.0833 L211.4583,61.4258 C211.4583,71.8424 164.0625,71.8424 164.0625,71.8424 C164.0625,71.8424 116.6667,71.8424 116.6667,61.4258 L116.6667,27.0833 " fill="none" style="stroke:#2FA4E7;stroke-width:1.0416666666666667;"/><path d="M116.6667,27.0833 C116.6667,37.5 164.0625,37.5 164.0625,37.5 C164.0625,37.5 211.4583,37.5 211.4583,27.0833 " fill="none" style="stroke:#2FA4E7;stroke-width:1.0416666666666667;"/><text fill="#000000" font-family="Verdana" font-size="12.5" lengthAdjust="spacing" textLength="63.5417" x="132.2917" y="58.4778">kontakter</text></g><!--entity diagnoser--><g id="elem_diagnoser"><path d="M247.9167,27.0833 C247.9167,16.6667 296.3542,16.6667 296.3542,16.6667 C296.3542,16.6667 344.7917,16.6667 344.7917,27.0833 L344.7917,61.4258 C344.7917,71.8424 296.3542,71.8424 296.3542,71.8424 C296.3542,71.8424 247.9167,71.8424 247.9167,61.4258 L247.9167,27.0833 " fill="none" style="stroke:#2FA4E7;stroke-width:1.0416666666666667;"/><path d="M247.9167,27.0833 C247.9167,37.5 296.3542,37.5 296.3542,37.5 C296.3542,37.5 344.7917,37.5 344.7917,27.0833 " fill="none" style="stroke:#2FA4E7;stroke-width:1.0416666666666667;"/><text fill="#000000" font-family="Verdana" font-size="12.5" lengthAdjust="spacing" textLength="65.625" x="263.5417" y="58.4778">diagnoser</text></g><!--entity bef--><g id="elem_bef"><path d="M946.3542,27.0833 C946.3542,16.6667 972.3958,16.6667 972.3958,16.6667 C972.3958,16.6667 998.4375,16.6667 998.4375,27.0833 L998.4375,61.4258 C998.4375,71.8424 972.3958,71.8424 972.3958,71.8424 C972.3958,71.8424 946.3542,71.8424 946.3542,61.4258 L946.3542,27.0833 " fill="none" style="stroke:#2FA4E7;stroke-width:1.0416666666666667;"/><path d="M946.3542,27.0833 C946.3542,37.5 972.3958,37.5 972.3958,37.5 C972.3958,37.5 998.4375,37.5 998.4375,27.0833 " fill="none" style="stroke:#2FA4E7;stroke-width:1.0416666666666667;"/><text fill="#000000" font-family="Verdana" font-size="12.5" lengthAdjust="spacing" textLength="20.8333" x="961.9792" y="58.4778">bef</text></g><!--entity lpr2--><g id="elem_lpr2"><polygon fill="none" points="344.7917,134.375,460.4167,134.375,470.8333,157.2754,460.4167,180.1758,344.7917,180.1758" style="stroke:#BABDBF;stroke-width:1.0416666666666667;"/><text fill="#000000" font-family="Verdana" font-size="12.5" lengthAdjust="spacing" textLength="84.375" x="360.4167" y="161.6028">create_lpr2()</text></g><!--entity lpr3--><g id="elem_lpr3"><polygon fill="none" points="201.5625,134.375,297.3958,134.375,307.8125,157.2754,297.3958,180.1758,201.5625,180.1758" style="stroke:#BABDBF;stroke-width:1.0416666666666667;"/><text fill="#000000" font-family="Verdana" font-size="12.5" lengthAdjust="spacing" textLength="64.5833" x="217.1875" y="161.6028">join_lpr3()</text></g><!--entity ex_pregnancy--><g id="elem_ex_pregnancy"><polygon fill="#FFA500" points="972.3958,567.7083,1139.0625,567.7083,1149.4792,590.6087,1139.0625,613.5091,972.3958,613.5091" style="stroke:#BABDBF;stroke-width:1.0416666666666667;"/><text fill="#000000" font-family="Verdana" font-size="12.5" lengthAdjust="spacing" textLength="135.4167" x="988.0208" y="594.9361">exclude_pregnancy()</text></g><!--entity ex_wld--><g id="elem_ex_wld"><polygon fill="#FFA500" points="972.3958,459.375,1166.1458,459.375,1176.5625,482.2754,1166.1458,505.1758,972.3958,505.1758" style="stroke:#BABDBF;stroke-width:1.0416666666666667;"/><text fill="#000000" font-family="Verdana" font-size="12.5" lengthAdjust="spacing" textLength="162.5" x="988.0208" y="486.6028">exclude_wld_purchases()</text></g><!--entity ex_pcos--><g id="elem_ex_pcos"><polygon fill="#FFA500" points="972.3958,351.0417,1166.1458,351.0417,1176.5625,373.9421,1166.1458,396.8424,972.3958,396.8424" style="stroke:#BABDBF;stroke-width:1.0416666666666667;"/><text fill="#000000" font-family="Verdana" font-size="12.5" lengthAdjust="spacing" textLength="162.5" x="988.0208" y="378.2694">exclude_potential_pcos()</text></g><!--entity in_diagnoses--><g id="elem_in_diagnoses"><polygon fill="#ADD8E6" points="27.0833,242.7083,253.125,242.7083,263.5417,265.6087,253.125,288.5091,27.0833,288.5091" style="stroke:#BABDBF;stroke-width:1.0416666666666667;"/><text fill="#000000" font-family="Verdana" font-size="12.5" lengthAdjust="spacing" textLength="194.7917" x="42.7083" y="269.9361">include_diabetes_diagnoses()</text></g><!--entity in_hba1c--><g id="elem_in_hba1c"><polygon fill="#ADD8E6" points="793.2292,242.7083,928.6458,242.7083,939.0625,265.6087,928.6458,288.5091,793.2292,288.5091" style="stroke:#BABDBF;stroke-width:1.0416666666666667;"/><text fill="#000000" font-family="Verdana" font-size="12.5" lengthAdjust="spacing" textLength="104.1667" x="808.8542" y="269.9361">include_hba1c()</text></g><!--entity in_podiatrist--><g id="elem_in_podiatrist"><polygon fill="#ADD8E6" points="529.6875,242.7083,746.3542,242.7083,756.7708,265.6087,746.3542,288.5091,529.6875,288.5091" style="stroke:#BABDBF;stroke-width:1.0416666666666667;"/><text fill="#000000" font-family="Verdana" font-size="12.5" lengthAdjust="spacing" textLength="185.4167" x="545.3125" y="269.9361">include_podiatrist_services()</text></g><!--entity in_gld--><g id="elem_in_gld"><polygon fill="#ADD8E6" points="975.5208,242.7083,1165.1042,242.7083,1175.5208,265.6087,1165.1042,288.5091,975.5208,288.5091" style="stroke:#BABDBF;stroke-width:1.0416666666666667;"/><text fill="#000000" font-family="Verdana" font-size="12.5" lengthAdjust="spacing" textLength="158.3333" x="991.1458" y="269.9361">include_gld_purchases()</text></g><!--entity pregnancy--><g id="elem_pregnancy"><polygon fill="none" points="300,242.7083,482.2917,242.7083,492.7083,265.6087,482.2917,288.5091,300,288.5091" style="stroke:#BABDBF;stroke-width:1.0416666666666667;"/><text fill="#000000" font-family="Verdana" font-size="12.5" lengthAdjust="spacing" textLength="151.0417" x="315.625" y="269.9361">get_pregnancy_dates()</text></g><!--entity join_inclusion--><g id="elem_join_inclusion"><polygon fill="none" points="573.9583,676.0417,702.0833,676.0417,712.5,698.9421,702.0833,721.8424,573.9583,721.8424" style="stroke:#BABDBF;stroke-width:1.0416666666666667;"/><text fill="#000000" font-family="Verdana" font-size="12.5" lengthAdjust="spacing" textLength="96.875" x="589.5833" y="703.2694">join_inclusion()</text></g><!--entity diagnosis_date--><g id="elem_diagnosis_date"><polygon fill="none" points="553.6458,784.375,722.3958,784.375,732.8125,807.2754,722.3958,830.1758,553.6458,830.1758" style="stroke:#BABDBF;stroke-width:1.0416666666666667;"/><text fill="#000000" font-family="Verdana" font-size="12.5" lengthAdjust="spacing" textLength="137.5" x="569.2708" y="811.6028">get_diagnosis_date()</text></g><!--link lpr_diag to lpr2--><g id="link_lpr_diag_lpr2"><path d="M418.9063,71.8854 C416.3958,90.9896 413.8554,110.2407 411.5013,128.1678 " fill="none" id="lpr_diag-to-lpr2" style="stroke:#2FA4E7;stroke-width:3.125;"/><polygon fill="#2FA4E7" points="410.6875,134.3646,416.0393,125.6119,411.3656,129.2006,407.7769,124.5269,410.6875,134.3646" style="stroke:#2FA4E7;stroke-width:3.125;"/></g><!--link lpr_adm to lpr2--><g id="link_lpr_adm_lpr2"><path d="M509.2083,71.8854 C486.25,90.9896 460.4717,112.4407 438.9196,130.3678 " fill="none" id="lpr_adm-to-lpr2" style="stroke:#2FA4E7;stroke-width:3.125;"/><polygon fill="#2FA4E7" points="434.1146,134.3646,443.9866,131.5727,438.1187,131.0339,438.6575,125.166,434.1146,134.3646" style="stroke:#2FA4E7;stroke-width:3.125;"/></g><!--link kontakter to lpr3--><g id="link_kontakter_lpr3"><path d="M185.7708,71.8854 C201.375,90.9896 218.2004,111.5988 232.8566,129.5258 " fill="none" id="kontakter-to-lpr3" style="stroke:#2FA4E7;stroke-width:3.125;"/><polygon fill="#2FA4E7" points="236.8125,134.3646,234.1045,124.4692,233.5159,130.3323,227.6528,129.7437,236.8125,134.3646" style="stroke:#2FA4E7;stroke-width:3.125;"/></g><!--link diagnoser to lpr3--><g id="link_diagnoser_lpr3"><path d="M286.375,71.8854 C279.1979,90.9896 271.8452,110.5873 265.1056,128.5143 " fill="none" id="diagnoser-to-lpr3" style="stroke:#2FA4E7;stroke-width:3.125;"/><polygon fill="#2FA4E7" points="262.9063,134.3646,270.1055,127.0555,264.7391,129.4894,262.3051,124.123,262.9063,134.3646" style="stroke:#2FA4E7;stroke-width:3.125;"/></g><!--link sssy to in_podiatrist--><g id="link_sssy_in_podiatrist"><path d="M728.2292,72.1979 C708.875,116 673.4434,196.2106 655.5372,236.721 " fill="none" id="sssy-to-in_podiatrist" style="stroke:#2FA4E7;stroke-width:3.125;"/><polygon fill="#2FA4E7" points="653.0104,242.4375,660.6115,235.5473,655.1161,237.6738,652.9896,232.1783,653.0104,242.4375" style="stroke:#2FA4E7;stroke-width:3.125;"/></g><!--link sysi to in_podiatrist--><g id="link_sysi_in_podiatrist"><path d="M645.9688,72.1979 C645.3438,116 644.215,195.6777 643.6317,236.1881 " fill="none" id="sysi-to-in_podiatrist" style="stroke:#2FA4E7;stroke-width:3.125;"/><polygon fill="#2FA4E7" points="643.5417,242.4375,647.8429,233.1235,643.6167,237.2297,639.5104,233.0035,643.5417,242.4375" style="stroke:#2FA4E7;stroke-width:3.125;"/></g><!--link in_podiatrist to join_inclusion--><g id="link_in_podiatrist_join_inclusion"><path d="M643.2292,288.6458 C643.2292,362.625 643.2292,595.8229 643.2292,669.7292 " fill="none" id="in_podiatrist-to-join_inclusion" style="stroke:#2FA4E7;stroke-width:3.125;"/><polygon fill="#2FA4E7" points="643.2292,675.9792,647.3958,666.6042,643.2292,670.7708,639.0625,666.6042,643.2292,675.9792" style="stroke:#2FA4E7;stroke-width:3.125;"/></g><!--link lab_forsker to in_hba1c--><g id="link_lab_forsker_in_hba1c"><path d="M858.8333,72.1979 C860.5,116 863.5227,195.6816 865.0644,236.192 " fill="none" id="lab_forsker-to-in_hba1c" style="stroke:#2FA4E7;stroke-width:3.125;"/><polygon fill="#2FA4E7" points="865.3021,242.4375,869.1092,232.9108,865.104,237.2329,860.7819,233.2277,865.3021,242.4375" style="stroke:#2FA4E7;stroke-width:3.125;"/></g><!--link in_hba1c to ex_pregnancy--><g id="link_in_hba1c_ex_pregnancy"><path d="M870.1458,288.625 C879.0833,333.0521 903.9792,435.3021 954.6875,505.2083 C973.0833,530.5729 995.8402,548.8889 1018.4652,563.9619 " fill="none" id="in_hba1c-to-ex_pregnancy" style="stroke:#2FA4E7;stroke-width:3.125;"/><polygon fill="#2FA4E7" points="1023.6667,567.4271,1018.1747,558.7616,1019.3322,564.5394,1013.5544,565.6969,1023.6667,567.4271" style="stroke:#2FA4E7;stroke-width:3.125;"/></g><!--link ex_pregnancy to join_inclusion--><g id="link_ex_pregnancy_join_inclusion"><path d="M974.8958,613.5521 C897.2813,633.2917 790.6196,660.428 718.63,678.7405 " fill="none" id="ex_pregnancy-to-join_inclusion" style="stroke:#2FA4E7;stroke-width:3.125;"/><polygon fill="#2FA4E7" points="712.5729,680.2813,722.6858,682.0081,717.6205,678.9973,720.6314,673.932,712.5729,680.2813" style="stroke:#2FA4E7;stroke-width:3.125;"/></g><!--link lmdb to in_gld--><g id="link_lmdb_in_gld"><path d="M1067.2917,72.1979 C1069.1667,116 1072.5772,195.6828 1074.3064,236.1932 " fill="none" id="lmdb-to-in_gld" style="stroke:#2FA4E7;stroke-width:3.125;"/><polygon fill="#2FA4E7" points="1074.5729,242.4375,1078.336,232.8933,1074.3508,237.2339,1070.0102,233.2487,1074.5729,242.4375" style="stroke:#2FA4E7;stroke-width:3.125;"/></g><!--link in_gld to ex_pcos--><g id="link_in_gld_ex_pcos"><path d="M1075.3021,288.6771 C1075.125,306.9167 1074.9357,326.4482 1074.7586,344.6774 " fill="none" id="in_gld-to-ex_pcos" style="stroke:#2FA4E7;stroke-width:3.125;"/><polygon fill="#2FA4E7" points="1074.6979,350.9271,1078.9555,341.593,1074.7485,345.719,1070.6225,341.5121,1074.6979,350.9271" style="stroke:#2FA4E7;stroke-width:3.125;"/></g><!--link ex_pcos to ex_wld--><g id="link_ex_pcos_ex_wld"><path d="M1074.4792,397.0104 C1074.4792,415.25 1074.4792,434.7813 1074.4792,453.0104 " fill="none" id="ex_pcos-to-ex_wld" style="stroke:#2FA4E7;stroke-width:3.125;"/><polygon fill="#2FA4E7" points="1074.4792,459.2604,1078.6458,449.8854,1074.4792,454.0521,1070.3125,449.8854,1074.4792,459.2604" style="stroke:#2FA4E7;stroke-width:3.125;"/></g><!--link ex_wld to ex_pregnancy--><g id="link_ex_wld_ex_pregnancy"><path d="M1071.6771,505.3438 C1069.3542,523.5833 1066.8525,543.1647 1064.5296,561.3939 " fill="none" id="ex_wld-to-ex_pregnancy" style="stroke:#2FA4E7;stroke-width:3.125;"/><polygon fill="#2FA4E7" points="1063.7396,567.5938,1069.0579,558.8206,1064.398,562.4272,1060.7914,557.7673,1063.7396,567.5938" style="stroke:#2FA4E7;stroke-width:3.125;"/></g><!--link lpr2 to in_diagnoses--><g id="link_lpr2_in_diagnoses"><path d="M353.7396,180.2188 C308.7188,198.4479 250.6892,221.9257 205.5538,240.1965 " fill="none" id="lpr2-to-in_diagnoses" style="stroke:#2FA4E7;stroke-width:3.125;"/><polygon fill="#2FA4E7" points="199.7604,242.5417,210.0139,242.8862,204.5882,240.5874,206.887,235.1617,199.7604,242.5417" style="stroke:#2FA4E7;stroke-width:3.125;"/></g><!--link lpr3 to in_diagnoses--><g id="link_lpr3_in_diagnoses"><path d="M232.0208,180.3438 C213.25,198.5833 191.1908,220.0091 172.4303,238.2383 " fill="none" id="lpr3-to-in_diagnoses" style="stroke:#2FA4E7;stroke-width:3.125;"/><polygon fill="#2FA4E7" points="167.9479,242.5938,177.5752,239.0488,171.6833,238.9642,171.7679,233.0722,167.9479,242.5938" style="stroke:#2FA4E7;stroke-width:3.125;"/></g><!--link in_diagnoses to join_inclusion--><g id="link_in_diagnoses_join_inclusion"><path d="M170.6875,288.6458 C256.1042,362.625 527.8378,597.9814 613.1816,671.8877 " fill="none" id="in_diagnoses-to-join_inclusion" style="stroke:#2FA4E7;stroke-width:3.125;"/><polygon fill="#2FA4E7" points="617.9063,675.9792,613.5469,666.6922,613.969,672.5696,608.0916,672.9917,617.9063,675.9792" style="stroke:#2FA4E7;stroke-width:3.125;"/></g><!--link bef to ex_pcos--><g id="link_bef_ex_pcos"><path d="M998.6771,65.875 C1054.7292,110 1181.7396,211.6146 1192.1875,234.375 C1203.7708,259.625 1205.4688,272.4792 1192.1875,296.875 C1178.9792,321.125 1159.894,335.9293 1136.5607,348.1168 " fill="none" id="bef-to-ex_pcos" style="stroke:#2FA4E7;stroke-width:3.125;"/><polygon fill="#2FA4E7" points="1131.0208,351.0104,1141.2596,350.3633,1135.6374,348.5991,1137.4015,342.9768,1131.0208,351.0104" style="stroke:#2FA4E7;stroke-width:3.125;"/></g><!--link lmdb to ex_wld--><g id="link_lmdb_ex_wld"><path d="M1097.7292,70.3229 C1136.2813,103.1354 1199.3021,164.7917 1223.4375,234.375 C1247.4583,303.625 1237.7604,337.125 1195.3125,396.875 C1176.2708,423.6771 1151.3376,441.7593 1125.8168,456.176 " fill="none" id="lmdb-to-ex_wld" style="stroke:#2FA4E7;stroke-width:3.125;"/><polygon fill="#2FA4E7" points="1120.375,459.25,1130.587,458.2668,1124.9098,456.6883,1126.4883,451.0111,1120.375,459.25" style="stroke:#2FA4E7;stroke-width:3.125;"/></g><!--link lpr2 to pregnancy--><g id="link_lpr2_pregnancy"><path d="M405.4375,180.3438 C403.4688,198.5833 401.3551,218.1503 399.3968,236.3795 " fill="none" id="lpr2-to-pregnancy" style="stroke:#2FA4E7;stroke-width:3.125;"/><polygon fill="#2FA4E7" points="398.7292,242.5938,403.8734,233.7174,399.2855,237.4152,395.5877,232.8273,398.7292,242.5938" style="stroke:#2FA4E7;stroke-width:3.125;"/></g><!--link lpr3 to pregnancy--><g id="link_lpr3_pregnancy"><path d="M284.0417,180.3438 C308.3542,198.5833 337.7398,220.6142 362.0419,238.8434 " fill="none" id="lpr3-to-pregnancy" style="stroke:#2FA4E7;stroke-width:3.125;"/><polygon fill="#2FA4E7" points="367.0417,242.5938,362.0423,233.6351,362.8752,239.4685,357.0418,240.3014,367.0417,242.5938" style="stroke:#2FA4E7;stroke-width:3.125;"/></g><!--link pregnancy to ex_pregnancy--><g id="link_pregnancy_ex_pregnancy"><path d="M441.5104,288.6042 C562.75,347.5208 888.7848,505.9351 1010.0973,564.883 " fill="none" id="pregnancy-to-ex_pregnancy" style="stroke:#2FA4E7;stroke-width:3.125;"/><polygon fill="#2FA4E7" points="1015.7188,567.6146,1009.1076,559.7696,1011.0342,565.3383,1005.4655,567.2649,1015.7188,567.6146" style="stroke:#2FA4E7;stroke-width:3.125;"/></g><!--link join_inclusion to diagnosis_date--><g id="link_join_inclusion_diagnosis_date"><path d="M643.2292,722.0104 C643.2292,740.25 643.2292,759.7813 643.2292,778.0104 " fill="none" id="join_inclusion-to-diagnosis_date" style="stroke:#2FA4E7;stroke-width:3.125;"/><polygon fill="#2FA4E7" points="643.2292,784.2604,647.3958,774.8854,643.2292,779.0521,639.0625,774.8854,643.2292,784.2604" style="stroke:#2FA4E7;stroke-width:3.125;"/></g><!--SRC=[ZLLDZzem4BtdLxXxePMWLU5M8GvjrRyHESwGU35sP3jTKCL_xzYndPY4NN9Ztinxysa-sHREG1ZeNW2L6zLRmIKKUsEl0Wu5PPOhkIQCwdfDQcffHGsiYGPcgMm4a7y5mU-FalQN4agJIb1sAcx5LowPw0r61vUVQ6-qwcKzE0hUjBOIFJXdkBplh3IgES_zjv1PqV8Qo7wVP0u7OYneKFRQGKGJRuuMgz-SLc31a4vrlQ2kIW8NguU2VGvMDO3jqI4bzyK646FCTS5wDNnk5PqkQqwRPOJMvmNWN5SBLbgLHwND2VGSFE44wCakGKvSAhC4LN3qnjkZYjqtz8IyC0tKGebPRpz_UI7Kk0AsYwwlYaldk1iTTq7eaL8CzIEheUmqD99ATWqKS1bD-MGVKho9kknwpLeirOmqQ7wIe5CMfELKb1rJ4mRtQu7Yzb5jVbcHjmxRLyRHH6xiMZBbo_sGgwteTpQ6-vzFXdOAnQpcnfQu7Nyvc-OnWa-oDGlTHfx6T_iz0cpNEDeITpE59-jqTx8TIxmX8ZSMzpAXkTnucH2J6_5nS2HkPNruF5-osHp6XG-dcnlJ3KRpiFFf_aPpiKev_Y2JJiSn-3ZtoFYGR1e3X2_D0oWVdVEvwqccxTTbg6XyNIBp2AR5SiZq4ZsQdUP7YcuVqfeColZQHKb4ew1pZ79uRqd9tLwmlmNlSDIpv3BXU7Hf7YPESXlLPyXk6SdETA5WKgp6VpGgQzA2wB2lnrxwPHnOyF6T5PXwCQakPPXtFQMNc_D9p6QLP-fzxlR_Fm00]--></g></svg>