<?xml version="1.0" encoding="us-ascii" standalone="no"?><svg xmlns="http://www.w3.org/2000/svg" xmlns:xlink="http://www.w3.org/1999/xlink" contentStyleType="text/css" height="1153.125px" preserveAspectRatio="none" style="width:1297px;height:1153px;" version="1.1" viewBox="0 0 1297 1153" width="1297.9167px" zoomAndPan="magnify"><defs/><g><!--cluster cd--><g id="cluster_cd"><rect fill="none" height="1123.9583" rx="4.1667" ry="4.1667" style="stroke:#033C73;stroke-width:1.0416666666666667;" width="1267.7083" x="17.7083" y="17.7083"/><line style="stroke:#033C73;stroke-width:1.0416666666666667;" x1="17.7083" x2="1285.4167" y1="46.8424" y2="46.8424"/><text fill="#000000" font-family="Verdana" font-size="12.5" font-weight="bold" lengthAdjust="spacing" textLength="137.5" x="582.8125" y="36.6028">classify_diabetes()</text></g><!--cluster Classification--><g id="cluster_Classification"><rect fill="none" height="214.5833" rx="4.1667" ry="4.1667" style="stroke:#2FA4E7;stroke-width:2.0833333333333335;" width="1016.6667" x="210.4167" y="902.0833"/><text fill="#000000" font-family="Verdana" font-size="12.5" font-weight="bold" lengthAdjust="spacing" textLength="98.9583" x="669.2708" y="920.9778">Classification</text></g><!--entity sssy--><g id="elem_sssy"><path d="M726.5625,80.2083 C726.5625,69.7917 756.25,69.7917 756.25,69.7917 C756.25,69.7917 785.9375,69.7917 785.9375,80.2083 L785.9375,114.5508 C785.9375,124.9674 756.25,124.9674 756.25,124.9674 C756.25,124.9674 726.5625,124.9674 726.5625,114.5508 L726.5625,80.2083 " fill="none" style="stroke:#2FA4E7;stroke-width:1.0416666666666667;"/><path d="M726.5625,80.2083 C726.5625,90.625 756.25,90.625 756.25,90.625 C756.25,90.625 785.9375,90.625 785.9375,80.2083 " fill="none" style="stroke:#2FA4E7;stroke-width:1.0416666666666667;"/><text fill="#000000" font-family="Verdana" font-size="12.5" lengthAdjust="spacing" textLength="28.125" x="742.1875" y="111.6028">sssy</text></g><!--entity sysi--><g id="elem_sysi"><path d="M634.8958,80.2083 C634.8958,69.7917 662.5,69.7917 662.5,69.7917 C662.5,69.7917 690.1042,69.7917 690.1042,80.2083 L690.1042,114.5508 C690.1042,124.9674 662.5,124.9674 662.5,124.9674 C662.5,124.9674 634.8958,124.9674 634.8958,114.5508 L634.8958,80.2083 " fill="none" style="stroke:#2FA4E7;stroke-width:1.0416666666666667;"/><path d="M634.8958,80.2083 C634.8958,90.625 662.5,90.625 662.5,90.625 C662.5,90.625 690.1042,90.625 690.1042,80.2083 " fill="none" style="stroke:#2FA4E7;stroke-width:1.0416666666666667;"/><text fill="#000000" font-family="Verdana" font-size="12.5" lengthAdjust="spacing" textLength="23.9583" x="650.5208" y="111.6028">sysi</text></g><!--entity lpr_diag--><g id="elem_lpr_diag"><path d="M397.3958,80.2083 C397.3958,69.7917 438.5417,69.7917 438.5417,69.7917 C438.5417,69.7917 479.6875,69.7917 479.6875,80.2083 L479.6875,114.5508 C479.6875,124.9674 438.5417,124.9674 438.5417,124.9674 C438.5417,124.9674 397.3958,124.9674 397.3958,114.5508 L397.3958,80.2083 " fill="none" style="stroke:#2FA4E7;stroke-width:1.0416666666666667;"/><path d="M397.3958,80.2083 C397.3958,90.625 438.5417,90.625 438.5417,90.625 C438.5417,90.625 479.6875,90.625 479.6875,80.2083 " fill="none" style="stroke:#2FA4E7;stroke-width:1.0416666666666667;"/><text fill="#000000" font-family="Verdana" font-size="12.5" lengthAdjust="spacing" textLength="51.0417" x="413.0208" y="111.6028">lpr_diag</text></g><!--entity lpr_adm--><g id="elem_lpr_adm"><path d="M516.1458,80.2083 C516.1458,69.7917 557.2917,69.7917 557.2917,69.7917 C557.2917,69.7917 598.4375,69.7917 598.4375,80.2083 L598.4375,114.5508 C598.4375,124.9674 557.2917,124.9674 557.2917,124.9674 C557.2917,124.9674 516.1458,124.9674 516.1458,114.5508 L516.1458,80.2083 " fill="none" style="stroke:#2FA4E7;stroke-width:1.0416666666666667;"/><path d="M516.1458,80.2083 C516.1458,90.625 557.2917,90.625 557.2917,90.625 C557.2917,90.625 598.4375,90.625 598.4375,80.2083 " fill="none" style="stroke:#2FA4E7;stroke-width:1.0416666666666667;"/><text fill="#000000" font-family="Verdana" font-size="12.5" lengthAdjust="spacing" textLength="51.0417" x="531.7708" y="111.6028">lpr_adm</text></g><!--entity lmdb--><g id="elem_lmdb"><path d="M1051.0417,80.2083 C1051.0417,69.7917 1082.2917,69.7917 1082.2917,69.7917 C1082.2917,69.7917 1113.5417,69.7917 1113.5417,80.2083 L1113.5417,114.5508 C1113.5417,124.9674 1082.2917,124.9674 1082.2917,124.9674 C1082.2917,124.9674 1051.0417,124.9674 1051.0417,114.5508 L1051.0417,80.2083 " fill="none" style="stroke:#2FA4E7;stroke-width:1.0416666666666667;"/><path d="M1051.0417,80.2083 C1051.0417,90.625 1082.2917,90.625 1082.2917,90.625 C1082.2917,90.625 1113.5417,90.625 1113.5417,80.2083 " fill="none" style="stroke:#2FA4E7;stroke-width:1.0416666666666667;"/><text fill="#000000" font-family="Verdana" font-size="12.5" lengthAdjust="spacing" textLength="31.25" x="1066.6667" y="111.6028">lmdb</text></g><!--entity lab_forsker--><g id="elem_lab_forsker"><path d="M822.3958,80.2083 C822.3958,69.7917 873.9583,69.7917 873.9583,69.7917 C873.9583,69.7917 925.5208,69.7917 925.5208,80.2083 L925.5208,114.5508 C925.5208,124.9674 873.9583,124.9674 873.9583,124.9674 C873.9583,124.9674 822.3958,124.9674 822.3958,114.5508 L822.3958,80.2083 " fill="none" style="stroke:#2FA4E7;stroke-width:1.0416666666666667;"/><path d="M822.3958,80.2083 C822.3958,90.625 873.9583,90.625 873.9583,90.625 C873.9583,90.625 925.5208,90.625 925.5208,80.2083 " fill="none" style="stroke:#2FA4E7;stroke-width:1.0416666666666667;"/><text fill="#000000" font-family="Verdana" font-size="12.5" lengthAdjust="spacing" textLength="71.875" x="838.0208" y="111.6028">lab_forsker</text></g><!--entity kontakter--><g id="elem_kontakter"><path d="M132.8125,80.2083 C132.8125,69.7917 180.2083,69.7917 180.2083,69.7917 C180.2083,69.7917 227.6042,69.7917 227.6042,80.2083 L227.6042,114.5508 C227.6042,124.9674 180.2083,124.9674 180.2083,124.9674 C180.2083,124.9674 132.8125,124.9674 132.8125,114.5508 L132.8125,80.2083 " fill="none" style="stroke:#2FA4E7;stroke-width:1.0416666666666667;"/><path d="M132.8125,80.2083 C132.8125,90.625 180.2083,90.625 180.2083,90.625 C180.2083,90.625 227.6042,90.625 227.6042,80.2083 " fill="none" style="stroke:#2FA4E7;stroke-width:1.0416666666666667;"/><text fill="#000000" font-family="Verdana" font-size="12.5" lengthAdjust="spacing" textLength="63.5417" x="148.4375" y="111.6028">kontakter</text></g><!--entity diagnoser--><g id="elem_diagnoser"><path d="M264.0625,80.2083 C264.0625,69.7917 312.5,69.7917 312.5,69.7917 C312.5,69.7917 360.9375,69.7917 360.9375,80.2083 L360.9375,114.5508 C360.9375,124.9674 312.5,124.9674 312.5,124.9674 C312.5,124.9674 264.0625,124.9674 264.0625,114.5508 L264.0625,80.2083 " fill="none" style="stroke:#2FA4E7;stroke-width:1.0416666666666667;"/><path d="M264.0625,80.2083 C264.0625,90.625 312.5,90.625 312.5,90.625 C312.5,90.625 360.9375,90.625 360.9375,80.2083 " fill="none" style="stroke:#2FA4E7;stroke-width:1.0416666666666667;"/><text fill="#000000" font-family="Verdana" font-size="12.5" lengthAdjust="spacing" textLength="65.625" x="279.6875" y="111.6028">diagnoser</text></g><!--entity bef--><g id="elem_bef"><path d="M962.5,80.2083 C962.5,69.7917 988.5417,69.7917 988.5417,69.7917 C988.5417,69.7917 1014.5833,69.7917 1014.5833,80.2083 L1014.5833,114.5508 C1014.5833,124.9674 988.5417,124.9674 988.5417,124.9674 C988.5417,124.9674 962.5,124.9674 962.5,114.5508 L962.5,80.2083 " fill="none" style="stroke:#2FA4E7;stroke-width:1.0416666666666667;"/><path d="M962.5,80.2083 C962.5,90.625 988.5417,90.625 988.5417,90.625 C988.5417,90.625 1014.5833,90.625 1014.5833,80.2083 " fill="none" style="stroke:#2FA4E7;stroke-width:1.0416666666666667;"/><text fill="#000000" font-family="Verdana" font-size="12.5" lengthAdjust="spacing" textLength="20.8333" x="978.125" y="111.6028">bef</text></g><!--entity lpr2--><g id="elem_lpr2"><polygon fill="none" points="370.8333,187.5,466.6667,187.5,477.0833,210.4004,466.6667,233.3008,370.8333,233.3008" style="stroke:#BABDBF;stroke-width:1.0416666666666667;"/><text fill="#000000" font-family="Verdana" font-size="12.5" lengthAdjust="spacing" textLength="64.5833" x="386.4583" y="214.7278">join_lpr2()</text></g><!--entity lpr3--><g id="elem_lpr3"><polygon fill="none" points="228.125,187.5,323.9583,187.5,334.375,210.4004,323.9583,233.3008,228.125,233.3008" style="stroke:#BABDBF;stroke-width:1.0416666666666667;"/><text fill="#000000" font-family="Verdana" font-size="12.5" lengthAdjust="spacing" textLength="64.5833" x="243.75" y="214.7278">join_lpr3()</text></g><!--entity ex_pregnancy--><g id="elem_ex_pregnancy"><polygon fill="#FFA500" points="971.875,620.8333,1138.5417,620.8333,1148.9583,643.7337,1138.5417,666.6341,971.875,666.6341" style="stroke:#BABDBF;stroke-width:1.0416666666666667;"/><text fill="#000000" font-family="Verdana" font-size="12.5" lengthAdjust="spacing" textLength="135.4167" x="987.5" y="648.0611">exclude_pregnancy()</text></g><!--entity ex_wld--><g id="elem_ex_wld"><polygon fill="#FFA500" points="971.875,512.5,1165.625,512.5,1176.0417,535.4004,1165.625,558.3008,971.875,558.3008" style="stroke:#BABDBF;stroke-width:1.0416666666666667;"/><text fill="#000000" font-family="Verdana" font-size="12.5" lengthAdjust="spacing" textLength="162.5" x="987.5" y="539.7278">exclude_wld_purchases()</text></g><!--entity ex_pcos--><g id="elem_ex_pcos"><polygon fill="#FFA500" points="971.875,404.1667,1165.625,404.1667,1176.0417,427.0671,1165.625,449.9674,971.875,449.9674" style="stroke:#BABDBF;stroke-width:1.0416666666666667;"/><text fill="#000000" font-family="Verdana" font-size="12.5" lengthAdjust="spacing" textLength="162.5" x="987.5" y="431.3944">exclude_potential_pcos()</text></g><!--entity in_diagnoses--><g id="elem_in_diagnoses"><polygon fill="#ADD8E6" points="43.2292,295.8333,269.2708,295.8333,279.6875,318.7337,269.2708,341.6341,43.2292,341.6341" style="stroke:#BABDBF;stroke-width:1.0416666666666667;"/><text fill="#000000" font-family="Verdana" font-size="12.5" lengthAdjust="spacing" textLength="194.7917" x="58.8542" y="323.0611">include_diabetes_diagnoses()</text></g><!--entity in_hba1c--><g id="elem_in_hba1c"><polygon fill="#ADD8E6" points="809.375,295.8333,944.7917,295.8333,955.2083,318.7337,944.7917,341.6341,809.375,341.6341" style="stroke:#BABDBF;stroke-width:1.0416666666666667;"/><text fill="#000000" font-family="Verdana" font-size="12.5" lengthAdjust="spacing" textLength="104.1667" x="825" y="323.0611">include_hba1c()</text></g><!--entity in_podiatrist--><g id="elem_in_podiatrist"><polygon fill="#ADD8E6" points="545.8333,295.8333,762.5,295.8333,772.9167,318.7337,762.5,341.6341,545.8333,341.6341" style="stroke:#BABDBF;stroke-width:1.0416666666666667;"/><text fill="#000000" font-family="Verdana" font-size="12.5" lengthAdjust="spacing" textLength="185.4167" x="561.4583" y="323.0611">include_podiatrist_services()</text></g><!--entity in_gld--><g id="elem_in_gld"><polygon fill="#ADD8E6" points="991.6667,295.8333,1181.25,295.8333,1191.6667,318.7337,1181.25,341.6341,991.6667,341.6341" style="stroke:#BABDBF;stroke-width:1.0416666666666667;"/><text fill="#000000" font-family="Verdana" font-size="12.5" lengthAdjust="spacing" textLength="158.3333" x="1007.2917" y="323.0611">include_gld_purchases()</text></g><!--entity pregnancy--><g id="elem_pregnancy"><polygon fill="none" points="316.1458,295.8333,498.4375,295.8333,508.8542,318.7337,498.4375,341.6341,316.1458,341.6341" style="stroke:#BABDBF;stroke-width:1.0416666666666667;"/><text fill="#000000" font-family="Verdana" font-size="12.5" lengthAdjust="spacing" textLength="151.0417" x="331.7708" y="323.0611">get_pregnancy_dates()</text></g><!--entity join_inclusion--><g id="elem_join_inclusion"><polygon fill="none" points="590.1042,729.1667,718.2292,729.1667,728.6458,752.0671,718.2292,774.9674,590.1042,774.9674" style="stroke:#BABDBF;stroke-width:1.0416666666666667;"/><text fill="#000000" font-family="Verdana" font-size="12.5" lengthAdjust="spacing" textLength="96.875" x="605.7292" y="756.3944">join_inclusion()</text></g><!--entity diagnosis_date--><g id="elem_diagnosis_date"><polygon fill="none" points="569.7917,837.5,738.5417,837.5,748.9583,860.4004,738.5417,883.3008,569.7917,883.3008" style="stroke:#BABDBF;stroke-width:1.0416666666666667;"/><text fill="#000000" font-family="Verdana" font-size="12.5" lengthAdjust="spacing" textLength="137.5" x="585.4167" y="864.7278">get_diagnosis_date()</text></g><!--entity t1d_diagnosis--><g id="elem_t1d_diagnosis"><polygon fill="none" points="531.7708,945.8333,776.5625,945.8333,786.9792,968.7337,776.5625,991.6341,531.7708,991.6341" style="stroke:#BABDBF;stroke-width:1.0416666666666667;"/><text fill="#000000" font-family="Verdana" font-size="12.5" lengthAdjust="spacing" textLength="213.5417" x="547.3958" y="973.0611">get_has_t1d_primary_diagnosis()</text></g><!--entity only_insulins--><g id="elem_only_insulins"><polygon fill="none" points="265.625,945.8333,484.375,945.8333,494.7917,968.7337,484.375,991.6341,265.625,991.6341" style="stroke:#BABDBF;stroke-width:1.0416666666666667;"/><text fill="#000000" font-family="Verdana" font-size="12.5" lengthAdjust="spacing" textLength="187.5" x="281.25" y="973.0611">get_only_insulin_purchases()</text></g><!--entity t1d_diagnosis_majority--><g id="elem_t1d_diagnosis_majority"><polygon fill="none" points="227.0833,1054.1667,522.9167,1054.1667,533.3333,1077.0671,522.9167,1099.9674,227.0833,1099.9674" style="stroke:#BABDBF;stroke-width:1.0416666666666667;"/><text fill="#000000" font-family="Verdana" font-size="12.5" lengthAdjust="spacing" textLength="264.5833" x="242.7083" y="1081.3944">get_majority_of_t1d_primary_diagnoses()</text></g><!--entity insulin_within_180_days--><g id="elem_insulin_within_180_days"><polygon fill="none" points="570.3125,1054.1667,860.9375,1054.1667,871.3542,1077.0671,860.9375,1099.9674,570.3125,1099.9674" style="stroke:#BABDBF;stroke-width:1.0416666666666667;"/><text fill="#000000" font-family="Verdana" font-size="12.5" lengthAdjust="spacing" textLength="259.375" x="585.9375" y="1081.3944">get_insulin_purchase_within_180_days()</text></g><!--entity insulin_is_two_thirds--><g id="elem_insulin_is_two_thirds"><polygon fill="none" points="908.3333,1054.1667,1200,1054.1667,1210.4167,1077.0671,1200,1099.9674,908.3333,1099.9674" style="stroke:#BABDBF;stroke-width:1.0416666666666667;"/><text fill="#000000" font-family="Verdana" font-size="12.5" lengthAdjust="spacing" textLength="260.4167" x="923.9583" y="1081.3944">get_insulin_is_two_thirds_of_gld_doses()</text></g><!--link lpr_diag to lpr2--><g id="link_lpr_diag_lpr2"><path d="M435.0521,125.0104 C432.5417,144.1146 430.0013,163.3657 427.6471,181.2928 " fill="none" id="lpr_diag-to-lpr2" style="stroke:#2FA4E7;stroke-width:3.125;"/><polygon fill="#2FA4E7" points="426.8333,187.4896,432.1852,178.7369,427.5115,182.3256,423.9228,177.6519,426.8333,187.4896" style="stroke:#2FA4E7;stroke-width:3.125;"/></g><!--link lpr_adm to lpr2--><g id="link_lpr_adm_lpr2"><path d="M525.3542,125.0104 C502.3958,144.1146 476.6175,165.5657 455.0654,183.4928 " fill="none" id="lpr_adm-to-lpr2" style="stroke:#2FA4E7;stroke-width:3.125;"/><polygon fill="#2FA4E7" points="450.2604,187.4896,460.1325,184.6977,454.2646,184.1589,454.8034,178.291,450.2604,187.4896" style="stroke:#2FA4E7;stroke-width:3.125;"/></g><!--link kontakter to lpr3--><g id="link_kontakter_lpr3"><path d="M204.4063,125.0104 C221.8125,144.1146 240.7803,164.9425 257.1136,182.8696 " fill="none" id="kontakter-to-lpr3" style="stroke:#2FA4E7;stroke-width:3.125;"/><polygon fill="#2FA4E7" points="261.3229,187.4896,258.089,177.7534,257.8152,183.6396,251.929,183.3658,261.3229,187.4896" style="stroke:#2FA4E7;stroke-width:3.125;"/></g><!--link diagnoser to lpr3--><g id="link_diagnoser_lpr3"><path d="M305.0104,125.0104 C299.6354,144.1146 294.164,163.5468 289.112,181.4739 " fill="none" id="diagnoser-to-lpr3" style="stroke:#2FA4E7;stroke-width:3.125;"/><polygon fill="#2FA4E7" points="287.4167,187.4896,293.9701,179.5963,288.8294,182.4765,285.9492,177.3359,287.4167,187.4896" style="stroke:#2FA4E7;stroke-width:3.125;"/></g><!--link sssy to in_podiatrist--><g id="link_sssy_in_podiatrist"><path d="M744.375,125.3229 C725.0208,169.125 689.5893,249.3356 671.683,289.846 " fill="none" id="sssy-to-in_podiatrist" style="stroke:#2FA4E7;stroke-width:3.125;"/><polygon fill="#2FA4E7" points="669.1563,295.5625,676.7574,288.6723,671.2619,290.7988,669.1354,285.3033,669.1563,295.5625" style="stroke:#2FA4E7;stroke-width:3.125;"/></g><!--link sysi to in_podiatrist--><g id="link_sysi_in_podiatrist"><path d="M662.1146,125.3229 C661.4896,169.125 660.3608,248.8027 659.7775,289.3131 " fill="none" id="sysi-to-in_podiatrist" style="stroke:#2FA4E7;stroke-width:3.125;"/><polygon fill="#2FA4E7" points="659.6875,295.5625,663.9887,286.2485,659.7625,290.3547,655.6562,286.1285,659.6875,295.5625" style="stroke:#2FA4E7;stroke-width:3.125;"/></g><!--link in_podiatrist to join_inclusion--><g id="link_in_podiatrist_join_inclusion"><path d="M659.375,341.7708 C659.375,415.75 659.375,648.9479 659.375,722.8542 " fill="none" id="in_podiatrist-to-join_inclusion" style="stroke:#2FA4E7;stroke-width:3.125;"/><polygon fill="#2FA4E7" points="659.375,729.1042,663.5417,719.7292,659.375,723.8958,655.2083,719.7292,659.375,729.1042" style="stroke:#2FA4E7;stroke-width:3.125;"/></g><!--link lab_forsker to in_hba1c--><g id="link_lab_forsker_in_hba1c"><path d="M874.9792,125.3229 C876.6458,169.125 879.6686,248.8066 881.2102,289.317 " fill="none" id="lab_forsker-to-in_hba1c" style="stroke:#2FA4E7;stroke-width:3.125;"/><polygon fill="#2FA4E7" points="881.4479,295.5625,885.2551,286.0358,881.2499,290.3579,876.9277,286.3527,881.4479,295.5625" style="stroke:#2FA4E7;stroke-width:3.125;"/></g><!--link in_hba1c to ex_pregnancy--><g id="link_in_hba1c_ex_pregnancy"><path d="M887.1771,341.9479 C898.9167,393.9271 929.5833,522.0938 954.1667,558.3333 C971.625,584.0625 994.0962,602.2605 1016.8462,617.1772 " fill="none" id="in_hba1c-to-ex_pregnancy" style="stroke:#2FA4E7;stroke-width:3.125;"/><polygon fill="#2FA4E7" points="1022.0729,620.6042,1016.5176,611.9792,1017.7174,617.7483,1011.9482,618.9481,1022.0729,620.6042" style="stroke:#2FA4E7;stroke-width:3.125;"/></g><!--link ex_pregnancy to join_inclusion--><g id="link_ex_pregnancy_join_inclusion"><path d="M995.2604,666.6875 C986.0417,669.5833 976.6563,672.4375 967.7083,675 C886.3333,698.2604 797.7781,719.5662 735.0385,734.0141 " fill="none" id="ex_pregnancy-to-join_inclusion" style="stroke:#2FA4E7;stroke-width:3.125;"/><polygon fill="#2FA4E7" points="728.9479,735.4167,739.0188,737.3732,734.0234,734.2479,737.1488,729.2524,728.9479,735.4167" style="stroke:#2FA4E7;stroke-width:3.125;"/></g><!--link lmdb to in_gld--><g id="link_lmdb_in_gld"><path d="M1083.4375,125.3229 C1085.3125,169.125 1088.723,248.8078 1090.4522,289.3182 " fill="none" id="lmdb-to-in_gld" style="stroke:#2FA4E7;stroke-width:3.125;"/><polygon fill="#2FA4E7" points="1090.7188,295.5625,1094.4818,286.0183,1090.4966,290.3589,1086.1561,286.3737,1090.7188,295.5625" style="stroke:#2FA4E7;stroke-width:3.125;"/></g><!--link in_gld to ex_pcos--><g id="link_in_gld_ex_pcos"><path d="M1088,341.8021 C1084.9583,360.0417 1081.6815,379.6576 1078.6502,397.8867 " fill="none" id="in_gld-to-ex_pcos" style="stroke:#2FA4E7;stroke-width:3.125;"/><polygon fill="#2FA4E7" points="1077.625,404.0521,1083.273,395.4875,1078.4793,398.9143,1075.0526,394.1206,1077.625,404.0521" style="stroke:#2FA4E7;stroke-width:3.125;"/></g><!--link ex_pcos to ex_wld--><g id="link_ex_pcos_ex_wld"><path d="M1073.9583,450.1354 C1073.9583,468.375 1073.9583,487.9063 1073.9583,506.1354 " fill="none" id="ex_pcos-to-ex_wld" style="stroke:#2FA4E7;stroke-width:3.125;"/><polygon fill="#2FA4E7" points="1073.9583,512.3854,1078.125,503.0104,1073.9583,507.1771,1069.7917,503.0104,1073.9583,512.3854" style="stroke:#2FA4E7;stroke-width:3.125;"/></g><!--link ex_wld to ex_pregnancy--><g id="link_ex_wld_ex_pregnancy"><path d="M1071.1563,558.4688 C1068.8333,576.7083 1066.3317,596.2897 1064.0088,614.5189 " fill="none" id="ex_wld-to-ex_pregnancy" style="stroke:#2FA4E7;stroke-width:3.125;"/><polygon fill="#2FA4E7" points="1063.2188,620.7188,1068.5371,611.9456,1063.8771,615.5522,1060.2706,610.8923,1063.2188,620.7188" style="stroke:#2FA4E7;stroke-width:3.125;"/></g><!--link lpr2 to in_diagnoses--><g id="link_lpr2_in_diagnoses"><path d="M372.1875,233.3542 C365.4271,236.1667 358.5938,239 352.0833,241.6667 C306.9063,260.1667 261.3017,278.3477 223.2601,293.3894 " fill="none" id="lpr2-to-in_diagnoses" style="stroke:#2FA4E7;stroke-width:3.125;"/><polygon fill="#2FA4E7" points="217.4479,295.6875,227.6982,296.1151,222.2914,293.7724,224.6341,288.3655,217.4479,295.6875" style="stroke:#2FA4E7;stroke-width:3.125;"/></g><!--link lpr3 to in_diagnoses--><g id="link_lpr3_in_diagnoses"><path d="M256.4271,233.4688 C235.875,251.7083 211.4778,273.3423 190.9258,291.5715 " fill="none" id="lpr3-to-in_diagnoses" style="stroke:#2FA4E7;stroke-width:3.125;"/><polygon fill="#2FA4E7" points="186.25,295.7188,196.0285,292.615,190.1465,292.2627,190.4988,286.3807,186.25,295.7188" style="stroke:#2FA4E7;stroke-width:3.125;"/></g><!--link in_diagnoses to join_inclusion--><g id="link_in_diagnoses_join_inclusion"><path d="M186.8333,341.7708 C272.25,415.75 543.9837,651.1064 629.3274,725.0127 " fill="none" id="in_diagnoses-to-join_inclusion" style="stroke:#2FA4E7;stroke-width:3.125;"/><polygon fill="#2FA4E7" points="634.0521,729.1042,629.6927,719.8172,630.1149,725.6946,624.2375,726.1167,634.0521,729.1042" style="stroke:#2FA4E7;stroke-width:3.125;"/></g><!--link bef to ex_pcos--><g id="link_bef_ex_pcos"><path d="M1014.8229,119 C1070.875,163.125 1197.8854,264.7396 1208.3333,287.5 C1219.9167,312.75 1222.3229,326 1208.3333,350 C1193.8229,374.8958 1173.4662,389.6497 1148.1641,401.4517 " fill="none" id="bef-to-ex_pcos" style="stroke:#2FA4E7;stroke-width:3.125;"/><polygon fill="#2FA4E7" points="1142.5,404.0938,1152.7575,403.9068,1147.2201,401.8921,1149.2348,396.3546,1142.5,404.0938" style="stroke:#2FA4E7;stroke-width:3.125;"/></g><!--link lmdb to ex_wld--><g id="link_lmdb_ex_wld"><path d="M1111.0208,125.2083 C1145.1146,159.1354 1200.0625,221.2292 1221.875,287.5 C1230.5625,313.8854 1225.5417,322.4688 1221.875,350 C1215.8021,395.6458 1221.2813,412.3333 1194.7917,450 C1175.875,476.8958 1150.9562,494.9852 1125.3937,509.381 " fill="none" id="lmdb-to-ex_wld" style="stroke:#2FA4E7;stroke-width:3.125;"/><polygon fill="#2FA4E7" points="1119.9479,512.4479,1130.1612,511.4781,1124.4861,509.8922,1126.072,504.2171,1119.9479,512.4479" style="stroke:#2FA4E7;stroke-width:3.125;"/></g><!--link lpr2 to pregnancy--><g id="link_lpr2_pregnancy"><path d="M421.5833,233.4688 C419.6146,251.7083 417.5009,271.2753 415.5426,289.5045 " fill="none" id="lpr2-to-pregnancy" style="stroke:#2FA4E7;stroke-width:3.125;"/><polygon fill="#2FA4E7" points="414.875,295.7188,420.0192,286.8424,415.4313,290.5402,411.7336,285.9523,414.875,295.7188" style="stroke:#2FA4E7;stroke-width:3.125;"/></g><!--link lpr3 to pregnancy--><g id="link_lpr3_pregnancy"><path d="M308.4479,233.4688 C330.9688,251.7083 357.9649,273.5574 380.4858,291.7865 " fill="none" id="lpr3-to-pregnancy" style="stroke:#2FA4E7;stroke-width:3.125;"/><polygon fill="#2FA4E7" points="385.3438,295.7188,380.6783,286.5817,381.2954,292.4419,375.4353,293.0591,385.3438,295.7188" style="stroke:#2FA4E7;stroke-width:3.125;"/></g><!--link pregnancy to ex_pregnancy--><g id="link_pregnancy_ex_pregnancy"><path d="M478.4583,341.6875 C518.6979,355.7292 570.8333,375.1563 615.625,395.8333 C773.1979,468.5625 945.6037,571.8189 1019.7183,617.4127 " fill="none" id="pregnancy-to-ex_pregnancy" style="stroke:#2FA4E7;stroke-width:3.125;"/><polygon fill="#2FA4E7" points="1025.0417,620.6875,1019.2398,612.2264,1020.6055,617.9585,1014.8734,619.3242,1025.0417,620.6875" style="stroke:#2FA4E7;stroke-width:3.125;"/></g><!--link join_inclusion to diagnosis_date--><g id="link_join_inclusion_diagnosis_date"><path d="M659.375,775.1354 C659.375,793.375 659.375,812.9063 659.375,831.1354 " fill="none" id="join_inclusion-to-diagnosis_date" style="stroke:#2FA4E7;stroke-width:3.125;"/><polygon fill="#2FA4E7" points="659.375,837.3854,663.5417,828.0104,659.375,832.1771,655.2083,828.0104,659.375,837.3854" style="stroke:#2FA4E7;stroke-width:3.125;"/></g><!--link diagnosis_date to t1d_diagnosis--><g id="link_diagnosis_date_t1d_diagnosis"><path d="M659.375,883.4688 C659.375,901.7083 659.375,921.2396 659.375,939.4688 " fill="none" id="diagnosis_date-to-t1d_diagnosis" style="stroke:#2FA4E7;stroke-width:3.125;"/><polygon fill="#2FA4E7" points="659.375,945.7188,663.5417,936.3438,659.375,940.5104,655.2083,936.3438,659.375,945.7188" style="stroke:#2FA4E7;stroke-width:3.125;"/></g><!--reverse link only_insulins to t1d_diagnosis--><g id="link_only_insulins_t1d_diagnosis"><path d="M501.2292,968.75 C513.4375,968.75 519.3854,968.75 531.5833,968.75 " fill="none" id="only_insulins-backto-t1d_diagnosis" style="stroke:#2FA4E7;stroke-width:3.125;"/><polygon fill="#2FA4E7" points="494.9792,968.75,504.3542,972.9167,500.1875,968.75,504.3542,964.5833,494.9792,968.75" style="stroke:#2FA4E7;stroke-width:3.125;"/></g><!--link only_insulins to t1d_diagnosis_majority--><g id="link_only_insulins_t1d_diagnosis_majority"><path d="M380.2083,991.8021 C380.2083,1010.0417 380.2083,1029.5729 380.2083,1047.8021 " fill="none" id="only_insulins-to-t1d_diagnosis_majority" style="stroke:#2FA4E7;stroke-width:3.125;"/><polygon fill="#2FA4E7" points="380.2083,1054.0521,384.375,1044.6771,380.2083,1048.8438,376.0417,1044.6771,380.2083,1054.0521" style="stroke:#2FA4E7;stroke-width:3.125;"/></g><!--link t1d_diagnosis_majority to insulin_within_180_days--><g id="link_t1d_diagnosis_majority_insulin_within_180_days"><path d="M533.5521,1077.0833 C545.75,1077.0833 551.6875,1077.0833 563.8854,1077.0833 " fill="none" id="t1d_diagnosis_majority-to-insulin_within_180_days" style="stroke:#2FA4E7;stroke-width:3.125;"/><polygon fill="#2FA4E7" points="570.1354,1077.0833,560.7604,1072.9167,564.9271,1077.0833,560.7604,1081.25,570.1354,1077.0833" style="stroke:#2FA4E7;stroke-width:3.125;"/></g><!--link insulin_within_180_days to insulin_is_two_thirds--><g id="link_insulin_within_180_days_insulin_is_two_thirds"><path d="M871.5938,1077.0833 C883.8125,1077.0833 889.7917,1077.0833 902.0208,1077.0833 " fill="none" id="insulin_within_180_days-to-insulin_is_two_thirds" style="stroke:#2FA4E7;stroke-width:3.125;"/><polygon fill="#2FA4E7" points="908.2708,1077.0833,898.8958,1072.9167,903.0625,1077.0833,898.8958,1081.25,908.2708,1077.0833" style="stroke:#2FA4E7;stroke-width:3.125;"/></g><!--SRC=[IquiIb58paaiBivCgunFoKnCIYr9BTRGL4WiLaXEKQZcKW02nSoyv9pIb5I5jDAyv9BC_3pTj9pySjs2_8BId4GGNw-WD3S7drAe3Pd9ICfhkG00]--></g></svg>