<?xml version="1.0" encoding="us-ascii" standalone="no"?><svg xmlns="http://www.w3.org/2000/svg" xmlns:xlink="http://www.w3.org/1999/xlink" contentStyleType="text/css" height="733.3333px" preserveAspectRatio="none" style="width:1256px;height:733px;" version="1.1" viewBox="0 0 1256 733" width="1256.25px" zoomAndPan="magnify"><defs/><g><!--entity sssy--><g id="elem_sssy"><path d="M587.9063,27.0833 C587.9063,16.6667 617.5938,16.6667 617.5938,16.6667 C617.5938,16.6667 647.2813,16.6667 647.2813,27.0833 L647.2813,61.4258 C647.2813,71.8424 617.5938,71.8424 617.5938,71.8424 C617.5938,71.8424 587.9063,71.8424 587.9063,61.4258 L587.9063,27.0833 " fill="none" style="stroke:#2FA4E7;stroke-width:1.0416666666666667;"/><path d="M587.9063,27.0833 C587.9063,37.5 617.5938,37.5 617.5938,37.5 C617.5938,37.5 647.2813,37.5 647.2813,27.0833 " fill="none" style="stroke:#2FA4E7;stroke-width:1.0416666666666667;"/><text fill="#000000" font-family="Verdana" font-size="12.5" lengthAdjust="spacing" textLength="28.125" x="603.5313" y="58.4778">sssy</text></g><!--entity sysi--><g id="elem_sysi"><path d="M496.2396,27.0833 C496.2396,16.6667 523.8438,16.6667 523.8438,16.6667 C523.8438,16.6667 551.4479,16.6667 551.4479,27.0833 L551.4479,61.4258 C551.4479,71.8424 523.8438,71.8424 523.8438,71.8424 C523.8438,71.8424 496.2396,71.8424 496.2396,61.4258 L496.2396,27.0833 " fill="none" style="stroke:#2FA4E7;stroke-width:1.0416666666666667;"/><path d="M496.2396,27.0833 C496.2396,37.5 523.8438,37.5 523.8438,37.5 C523.8438,37.5 551.4479,37.5 551.4479,27.0833 " fill="none" style="stroke:#2FA4E7;stroke-width:1.0416666666666667;"/><text fill="#000000" font-family="Verdana" font-size="12.5" lengthAdjust="spacing" textLength="23.9583" x="511.8646" y="58.4778">sysi</text></g><!--entity lpr_diag--><g id="elem_lpr_diag"><path d="M948.3229,27.0833 C948.3229,16.6667 989.4688,16.6667 989.4688,16.6667 C989.4688,16.6667 1030.6146,16.6667 1030.6146,27.0833 L1030.6146,61.4258 C1030.6146,71.8424 989.4688,71.8424 989.4688,71.8424 C989.4688,71.8424 948.3229,71.8424 948.3229,61.4258 L948.3229,27.0833 " fill="none" style="stroke:#2FA4E7;stroke-width:1.0416666666666667;"/><path d="M948.3229,27.0833 C948.3229,37.5 989.4688,37.5 989.4688,37.5 C989.4688,37.5 1030.6146,37.5 1030.6146,27.0833 " fill="none" style="stroke:#2FA4E7;stroke-width:1.0416666666666667;"/><text fill="#000000" font-family="Verdana" font-size="12.5" lengthAdjust="spacing" textLength="51.0417" x="963.9479" y="58.4778">lpr_diag</text></g><!--entity lpr_adm--><g id="elem_lpr_adm"><path d="M1067.0729,27.0833 C1067.0729,16.6667 1108.2188,16.6667 1108.2188,16.6667 C1108.2188,16.6667 1149.3646,16.6667 1149.3646,27.0833 L1149.3646,61.4258 C1149.3646,71.8424 1108.2188,71.8424 1108.2188,71.8424 C1108.2188,71.8424 1067.0729,71.8424 1067.0729,61.4258 L1067.0729,27.0833 " fill="none" style="stroke:#2FA4E7;stroke-width:1.0416666666666667;"/><path d="M1067.0729,27.0833 C1067.0729,37.5 1108.2188,37.5 1108.2188,37.5 C1108.2188,37.5 1149.3646,37.5 1149.3646,27.0833 " fill="none" style="stroke:#2FA4E7;stroke-width:1.0416666666666667;"/><text fill="#000000" font-family="Verdana" font-size="12.5" lengthAdjust="spacing" textLength="51.0417" x="1082.6979" y="58.4778">lpr_adm</text></g><!--entity lmdb--><g id="elem_lmdb"><path d="M257.1771,27.0833 C257.1771,16.6667 288.4271,16.6667 288.4271,16.6667 C288.4271,16.6667 319.6771,16.6667 319.6771,27.0833 L319.6771,61.4258 C319.6771,71.8424 288.4271,71.8424 288.4271,71.8424 C288.4271,71.8424 257.1771,71.8424 257.1771,61.4258 L257.1771,27.0833 " fill="none" style="stroke:#2FA4E7;stroke-width:1.0416666666666667;"/><path d="M257.1771,27.0833 C257.1771,37.5 288.4271,37.5 288.4271,37.5 C288.4271,37.5 319.6771,37.5 319.6771,27.0833 " fill="none" style="stroke:#2FA4E7;stroke-width:1.0416666666666667;"/><text fill="#000000" font-family="Verdana" font-size="12.5" lengthAdjust="spacing" textLength="31.25" x="272.8021" y="58.4778">lmdb</text></g><!--entity lab_forsker--><g id="elem_lab_forsker"><path d="M356.6563,27.0833 C356.6563,16.6667 408.2188,16.6667 408.2188,16.6667 C408.2188,16.6667 459.7813,16.6667 459.7813,27.0833 L459.7813,61.4258 C459.7813,71.8424 408.2188,71.8424 408.2188,71.8424 C408.2188,71.8424 356.6563,71.8424 356.6563,61.4258 L356.6563,27.0833 " fill="none" style="stroke:#2FA4E7;stroke-width:1.0416666666666667;"/><path d="M356.6563,27.0833 C356.6563,37.5 408.2188,37.5 408.2188,37.5 C408.2188,37.5 459.7813,37.5 459.7813,27.0833 " fill="none" style="stroke:#2FA4E7;stroke-width:1.0416666666666667;"/><text fill="#000000" font-family="Verdana" font-size="12.5" lengthAdjust="spacing" textLength="71.875" x="372.2813" y="58.4778">lab_forsker</text></g><!--entity kontakter--><g id="elem_kontakter"><path d="M817.0729,27.0833 C817.0729,16.6667 864.4688,16.6667 864.4688,16.6667 C864.4688,16.6667 911.8646,16.6667 911.8646,27.0833 L911.8646,61.4258 C911.8646,71.8424 864.4688,71.8424 864.4688,71.8424 C864.4688,71.8424 817.0729,71.8424 817.0729,61.4258 L817.0729,27.0833 " fill="none" style="stroke:#2FA4E7;stroke-width:1.0416666666666667;"/><path d="M817.0729,27.0833 C817.0729,37.5 864.4688,37.5 864.4688,37.5 C864.4688,37.5 911.8646,37.5 911.8646,27.0833 " fill="none" style="stroke:#2FA4E7;stroke-width:1.0416666666666667;"/><text fill="#000000" font-family="Verdana" font-size="12.5" lengthAdjust="spacing" textLength="63.5417" x="832.6979" y="58.4778">kontakter</text></g><!--entity diagnoser--><g id="elem_diagnoser"><path d="M683.7396,27.0833 C683.7396,16.6667 732.1771,16.6667 732.1771,16.6667 C732.1771,16.6667 780.6146,16.6667 780.6146,27.0833 L780.6146,61.4258 C780.6146,71.8424 732.1771,71.8424 732.1771,71.8424 C732.1771,71.8424 683.7396,71.8424 683.7396,61.4258 L683.7396,27.0833 " fill="none" style="stroke:#2FA4E7;stroke-width:1.0416666666666667;"/><path d="M683.7396,27.0833 C683.7396,37.5 732.1771,37.5 732.1771,37.5 C732.1771,37.5 780.6146,37.5 780.6146,27.0833 " fill="none" style="stroke:#2FA4E7;stroke-width:1.0416666666666667;"/><text fill="#000000" font-family="Verdana" font-size="12.5" lengthAdjust="spacing" textLength="65.625" x="699.3646" y="58.4778">diagnoser</text></g><!--entity bef--><g id="elem_bef"><path d="M168.6354,27.0833 C168.6354,16.6667 194.6771,16.6667 194.6771,16.6667 C194.6771,16.6667 220.7188,16.6667 220.7188,27.0833 L220.7188,61.4258 C220.7188,71.8424 194.6771,71.8424 194.6771,71.8424 C194.6771,71.8424 168.6354,71.8424 168.6354,61.4258 L168.6354,27.0833 " fill="none" style="stroke:#2FA4E7;stroke-width:1.0416666666666667;"/><path d="M168.6354,27.0833 C168.6354,37.5 194.6771,37.5 194.6771,37.5 C194.6771,37.5 220.7188,37.5 220.7188,27.0833 " fill="none" style="stroke:#2FA4E7;stroke-width:1.0416666666666667;"/><text fill="#000000" font-family="Verdana" font-size="12.5" lengthAdjust="spacing" textLength="20.8333" x="184.2604" y="58.4778">bef</text></g><!--entity lpr2--><g id="elem_lpr2"><polygon fill="none" points="954.0521,134.375,1049.8854,134.375,1060.3021,157.2754,1049.8854,180.1758,954.0521,180.1758" style="stroke:#BABDBF;stroke-width:1.0416666666666667;"/><text fill="#000000" font-family="Verdana" font-size="12.5" lengthAdjust="spacing" textLength="64.5833" x="969.6771" y="161.6028">join_lpr2()</text></g><!--entity lpr3--><g id="elem_lpr3"><polygon fill="none" points="811.3438,134.375,907.1771,134.375,917.5938,157.2754,907.1771,180.1758,811.3438,180.1758" style="stroke:#BABDBF;stroke-width:1.0416666666666667;"/><text fill="#000000" font-family="Verdana" font-size="12.5" lengthAdjust="spacing" textLength="64.5833" x="826.9688" y="161.6028">join_lpr3()</text></g><!--entity ex_pregnancy--><g id="elem_ex_pregnancy"><polygon fill="#FFA500" points="162.3854,459.375,329.0521,459.375,339.4688,482.2754,329.0521,505.1758,162.3854,505.1758" style="stroke:#BABDBF;stroke-width:1.0416666666666667;"/><text fill="#000000" font-family="Verdana" font-size="12.5" lengthAdjust="spacing" textLength="135.4167" x="178.0104" y="486.6028">exclude_pregnancy()</text></g><!--entity ex_pcos--><g id="elem_ex_pcos"><polygon fill="#FFA500" points="135.3021,351.0417,329.0521,351.0417,339.4688,373.9421,329.0521,396.8424,135.3021,396.8424" style="stroke:#BABDBF;stroke-width:1.0416666666666667;"/><text fill="#000000" font-family="Verdana" font-size="12.5" lengthAdjust="spacing" textLength="162.5" x="150.9271" y="378.2694">exclude_potential_pcos()</text></g><!--entity in_diagnoses--><g id="elem_in_diagnoses"><polygon fill="#ADD8E6" points="997.2813,242.7083,1223.3229,242.7083,1233.7396,265.6087,1223.3229,288.5091,997.2813,288.5091" style="stroke:#BABDBF;stroke-width:1.0416666666666667;"/><text fill="#000000" font-family="Verdana" font-size="12.5" lengthAdjust="spacing" textLength="194.7917" x="1012.9063" y="269.9361">include_diabetes_diagnoses()</text></g><!--entity in_hba1c--><g id="elem_in_hba1c"><polygon fill="#ADD8E6" points="321.7604,242.7083,457.1771,242.7083,467.5938,265.6087,457.1771,288.5091,321.7604,288.5091" style="stroke:#BABDBF;stroke-width:1.0416666666666667;"/><text fill="#000000" font-family="Verdana" font-size="12.5" lengthAdjust="spacing" textLength="104.1667" x="337.3854" y="269.9361">include_hba1c()</text></g><!--entity in_podiatrist--><g id="elem_in_podiatrist"><polygon fill="#ADD8E6" points="504.0521,242.7083,720.7188,242.7083,731.1354,265.6087,720.7188,288.5091,504.0521,288.5091" style="stroke:#BABDBF;stroke-width:1.0416666666666667;"/><text fill="#000000" font-family="Verdana" font-size="12.5" lengthAdjust="spacing" textLength="185.4167" x="519.6771" y="269.9361">include_podiatrist_services()</text></g><!--entity in_gld--><g id="elem_in_gld"><polygon fill="#ADD8E6" points="85.3021,242.7083,274.8854,242.7083,285.3021,265.6087,274.8854,288.5091,85.3021,288.5091" style="stroke:#BABDBF;stroke-width:1.0416666666666667;"/><text fill="#000000" font-family="Verdana" font-size="12.5" lengthAdjust="spacing" textLength="158.3333" x="100.9271" y="269.9361">include_gld_purchases()</text></g><!--entity pregnancy--><g id="elem_pregnancy"><polygon fill="none" points="768.1146,242.7083,950.4063,242.7083,960.8229,265.6087,950.4063,288.5091,768.1146,288.5091" style="stroke:#BABDBF;stroke-width:1.0416666666666667;"/><text fill="#000000" font-family="Verdana" font-size="12.5" lengthAdjust="spacing" textLength="151.0417" x="783.7396" y="269.9361">get_pregnancy_dates()</text></g><!--entity join_inclusion--><g id="elem_join_inclusion"><polygon fill="none" points="548.3229,567.7083,676.4479,567.7083,686.8646,590.6087,676.4479,613.5091,548.3229,613.5091" style="stroke:#BABDBF;stroke-width:1.0416666666666667;"/><text fill="#000000" font-family="Verdana" font-size="12.5" lengthAdjust="spacing" textLength="96.875" x="563.9479" y="594.9361">join_inclusion()</text></g><!--entity inclusion_date--><g id="elem_inclusion_date"><polygon fill="none" points="530.6146,676.0417,694.1563,676.0417,704.5729,698.9421,694.1563,721.8424,530.6146,721.8424" style="stroke:#BABDBF;stroke-width:1.0416666666666667;"/><text fill="#000000" font-family="Verdana" font-size="12.5" lengthAdjust="spacing" textLength="132.2917" x="546.2396" y="703.2694">get_inclusion_date()</text></g><!--link lpr_diag to lpr2--><g id="link_lpr_diag_lpr2"><path d="M993.7083,71.8854 C996.7604,90.9896 999.8367,110.2658 1002.7013,128.1929 " fill="none" id="lpr_diag-to-lpr2" style="stroke:#2FA4E7;stroke-width:3.125;"/><polygon fill="#2FA4E7" points="1003.6875,134.3646,1006.3227,124.4496,1002.8657,129.2215,998.0938,125.7645,1003.6875,134.3646" style="stroke:#2FA4E7;stroke-width:3.125;"/></g><!--link lpr_adm to lpr2--><g id="link_lpr_adm_lpr2"><path d="M1084.0104,71.8854 C1066.6146,90.9896 1047.6468,111.8175 1031.3134,129.7446 " fill="none" id="lpr_adm-to-lpr2" style="stroke:#2FA4E7;stroke-width:3.125;"/><polygon fill="#2FA4E7" points="1027.1042,134.3646,1036.4981,130.2408,1030.6119,130.5146,1030.3381,124.6284,1027.1042,134.3646" style="stroke:#2FA4E7;stroke-width:3.125;"/></g><!--link kontakter to lpr3--><g id="link_kontakter_lpr3"><path d="M864.4688,71.8854 C864.4688,90.9896 864.4688,110.1875 864.4688,128.1146 " fill="none" id="kontakter-to-lpr3" style="stroke:#2FA4E7;stroke-width:3.125;"/><polygon fill="#2FA4E7" points="864.4688,134.3646,868.6354,124.9896,864.4688,129.1563,860.3021,124.9896,864.4688,134.3646" style="stroke:#2FA4E7;stroke-width:3.125;"/></g><!--link diagnoser to lpr3--><g id="link_diagnoser_lpr3"><path d="M763.8646,71.8854 C786.6458,90.9896 812.1999,112.4224 833.5853,130.3494 " fill="none" id="diagnoser-to-lpr3" style="stroke:#2FA4E7;stroke-width:3.125;"/><polygon fill="#2FA4E7" points="838.375,134.3646,833.8672,125.1488,834.3836,131.0186,828.5137,131.535,838.375,134.3646" style="stroke:#2FA4E7;stroke-width:3.125;"/></g><!--link sssy to in_podiatrist--><g id="link_sssy_in_podiatrist"><path d="M617.5938,72.1979 C617.5938,116 617.5938,195.6771 617.5938,236.1875 " fill="none" id="sssy-to-in_podiatrist" style="stroke:#2FA4E7;stroke-width:3.125;"/><polygon fill="#2FA4E7" points="617.5938,242.4375,621.7604,233.0625,617.5938,237.2292,613.4271,233.0625,617.5938,242.4375" style="stroke:#2FA4E7;stroke-width:3.125;"/></g><!--link sysi to in_podiatrist--><g id="link_sysi_in_podiatrist"><path d="M535.3333,72.1979 C554.0625,116 588.3447,196.1804 605.6676,236.6909 " fill="none" id="sysi-to-in_podiatrist" style="stroke:#2FA4E7;stroke-width:3.125;"/><polygon fill="#2FA4E7" points="608.125,242.4375,608.2701,232.1793,606.0772,237.6486,600.6079,235.4558,608.125,242.4375" style="stroke:#2FA4E7;stroke-width:3.125;"/></g><!--link in_podiatrist to join_inclusion--><g id="link_in_podiatrist_join_inclusion"><path d="M617.5938,288.8646 C617.5938,348 617.5938,502.5833 617.5938,561.4063 " fill="none" id="in_podiatrist-to-join_inclusion" style="stroke:#2FA4E7;stroke-width:3.125;"/><polygon fill="#2FA4E7" points="617.5938,567.6563,621.7604,558.2813,617.5938,562.4479,613.4271,558.2813,617.5938,567.6563" style="stroke:#2FA4E7;stroke-width:3.125;"/></g><!--link lab_forsker to in_hba1c--><g id="link_lab_forsker_in_hba1c"><path d="M406.5521,72.1979 C403.8542,116 398.9266,195.689 396.4266,236.1994 " fill="none" id="lab_forsker-to-in_hba1c" style="stroke:#2FA4E7;stroke-width:3.125;"/><polygon fill="#2FA4E7" points="396.0417,242.4375,400.7779,233.3369,396.3625,237.2391,392.4604,232.8237,396.0417,242.4375" style="stroke:#2FA4E7;stroke-width:3.125;"/></g><!--link in_hba1c to ex_pregnancy--><g id="link_in_hba1c_ex_pregnancy"><path d="M392.7188,288.6771 C389.3854,316.0625 380.6354,363.2917 358.2188,396.875 C340.8438,422.8854 318.118,441.1246 295.0868,455.9683 " fill="none" id="in_hba1c-to-ex_pregnancy" style="stroke:#2FA4E7;stroke-width:3.125;"/><polygon fill="#2FA4E7" points="289.8333,459.3542,299.9707,457.7777,294.2112,456.5326,295.4562,450.7731,289.8333,459.3542" style="stroke:#2FA4E7;stroke-width:3.125;"/></g><!--link ex_pregnancy to join_inclusion--><g id="link_ex_pregnancy_join_inclusion"><path d="M326.4583,505.2188 C391.5521,524.0833 478.7575,549.3539 542.0491,567.6977 " fill="none" id="ex_pregnancy-to-join_inclusion" style="stroke:#2FA4E7;stroke-width:3.125;"/><polygon fill="#2FA4E7" points="548.0521,569.4375,540.2075,562.8258,543.0496,567.9876,537.8878,570.8297,548.0521,569.4375" style="stroke:#2FA4E7;stroke-width:3.125;"/></g><!--link lmdb to in_gld--><g id="link_lmdb_in_gld"><path d="M275.7813,72.1979 C255.1771,116 217.4307,196.2713 198.3787,236.7818 " fill="none" id="lmdb-to-in_gld" style="stroke:#2FA4E7;stroke-width:3.125;"/><polygon fill="#2FA4E7" points="195.7188,242.4375,203.4791,235.7272,197.9353,237.7244,195.9381,232.1806,195.7188,242.4375" style="stroke:#2FA4E7;stroke-width:3.125;"/></g><!--link in_gld to ex_pcos--><g id="link_in_gld_ex_pcos"><path d="M196.0938,288.6771 C205.0313,306.9167 214.9153,327.0861 223.8528,345.3153 " fill="none" id="in_gld-to-ex_pcos" style="stroke:#2FA4E7;stroke-width:3.125;"/><polygon fill="#2FA4E7" points="226.6042,350.9271,226.2183,340.6751,224.3113,346.2506,218.7359,344.3436,226.6042,350.9271" style="stroke:#2FA4E7;stroke-width:3.125;"/></g><!--link ex_pcos to ex_pregnancy--><g id="link_ex_pcos_ex_pregnancy"><path d="M240.1875,397.0104 C242.5104,415.25 245.012,434.8314 247.335,453.0606 " fill="none" id="ex_pcos-to-ex_pregnancy" style="stroke:#2FA4E7;stroke-width:3.125;"/><polygon fill="#2FA4E7" points="248.125,459.2604,251.0732,449.4339,247.4666,454.0939,242.8067,450.4873,248.125,459.2604" style="stroke:#2FA4E7;stroke-width:3.125;"/></g><!--link lpr2 to in_diagnoses--><g id="link_lpr2_in_diagnoses"><path d="M1029.625,180.3438 C1048.2188,198.5833 1070.0487,219.9879 1088.632,238.2171 " fill="none" id="lpr2-to-in_diagnoses" style="stroke:#2FA4E7;stroke-width:3.125;"/><polygon fill="#2FA4E7" points="1093.0938,242.5938,1089.319,233.0542,1089.3756,238.9465,1083.4834,239.0032,1093.0938,242.5938" style="stroke:#2FA4E7;stroke-width:3.125;"/></g><!--link lpr3 to in_diagnoses--><g id="link_lpr3_in_diagnoses"><path d="M916.1771,180.2188 C959.2396,198.4479 1014.5152,221.8347 1057.6818,240.1055 " fill="none" id="lpr3-to-in_diagnoses" style="stroke:#2FA4E7;stroke-width:3.125;"/><polygon fill="#2FA4E7" points="1063.4375,242.5417,1056.4281,235.0503,1058.6411,240.5115,1053.1799,242.7245,1063.4375,242.5417" style="stroke:#2FA4E7;stroke-width:3.125;"/></g><!--link in_diagnoses to join_inclusion--><g id="link_in_diagnoses_join_inclusion"><path d="M1081.6771,288.6042 C990.8438,347.5208 747.6084,505.2659 656.7126,564.2139 " fill="none" id="in_diagnoses-to-join_inclusion" style="stroke:#2FA4E7;stroke-width:3.125;"/><polygon fill="#2FA4E7" points="651.4688,567.6146,661.6016,566.0094,655.8386,564.7806,657.0673,559.0176,651.4688,567.6146" style="stroke:#2FA4E7;stroke-width:3.125;"/></g><!--link bef to ex_pcos--><g id="link_bef_ex_pcos"><path d="M168.5833,67.0417 C118.1563,111.7188 16.6667,216.4583 68.6354,296.875 C85.1979,322.5104 106.9141,337.2507 134.9662,348.5944 " fill="none" id="bef-to-ex_pcos" style="stroke:#2FA4E7;stroke-width:3.125;"/><polygon fill="#2FA4E7" points="140.7604,350.9375,133.6312,343.5601,135.9319,348.9849,130.5071,351.2857,140.7604,350.9375" style="stroke:#2FA4E7;stroke-width:3.125;"/></g><!--link lpr2 to pregnancy--><g id="link_lpr2_pregnancy"><path d="M977.6042,180.3438 C953.1146,198.5833 923.4919,220.6317 899.0128,238.8608 " fill="none" id="lpr2-to-pregnancy" style="stroke:#2FA4E7;stroke-width:3.125;"/><polygon fill="#2FA4E7" points="894,242.5938,904.0078,240.3362,898.1773,239.483,899.0305,233.6525,894,242.5938" style="stroke:#2FA4E7;stroke-width:3.125;"/></g><!--link lpr3 to pregnancy--><g id="link_lpr3_pregnancy"><path d="M864.4688,180.3438 C864.4688,198.5833 864.4688,218.1146 864.4688,236.3438 " fill="none" id="lpr3-to-pregnancy" style="stroke:#2FA4E7;stroke-width:3.125;"/><polygon fill="#2FA4E7" points="864.4688,242.5938,868.6354,233.2188,864.4688,237.3854,860.3021,233.2188,864.4688,242.5938" style="stroke:#2FA4E7;stroke-width:3.125;"/></g><!--link pregnancy to ex_pregnancy--><g id="link_pregnancy_ex_pregnancy"><path d="M801.6875,288.625 C683.9583,329.8021 437.1808,416.1032 319.5141,457.2594 " fill="none" id="pregnancy-to-ex_pregnancy" style="stroke:#2FA4E7;stroke-width:3.125;"/><polygon fill="#2FA4E7" points="313.6146,459.3229,323.8395,460.1607,318.5309,457.6033,321.0882,452.2947,313.6146,459.3229" style="stroke:#2FA4E7;stroke-width:3.125;"/></g><!--link join_inclusion to inclusion_date--><g id="link_join_inclusion_inclusion_date"><path d="M617.5938,613.6771 C617.5938,631.9167 617.5938,651.4479 617.5938,669.6771 " fill="none" id="join_inclusion-to-inclusion_date" style="stroke:#2FA4E7;stroke-width:3.125;"/><polygon fill="#2FA4E7" points="617.5938,675.9271,621.7604,666.5521,617.5938,670.7188,613.4271,666.5521,617.5938,675.9271" style="stroke:#2FA4E7;stroke-width:3.125;"/></g><!--SRC=[ZLLDZziW4BtxLz2zR2ibhPhSgYY7TjM_OM6Os6m8M81NiQhyzmxOOBDsDkjRtfkPDv_aYslW0eI1wIHGjTMTaq91SR2kbt0iA7D2gmrXrF0DuTJHYbhO40FCKLLB8FyAWjzVhTmVBRKXbQJiNDoAxq8nsLdq7ar-8ruRtIa-64fHDwwI7NXZk7vih0sgUSl3Zp6peX4SoE6GP8v7OXqOqAvl8R8fRiuMpo-2Lk30abQtdQI-IW9NPuQ2GmvEru3jCMDA_eiD8DRQVWNjhLYYiZKb5xHUPoY_h10NNgsWj2fFsjWpc2LvnWdGirkZlBZITesgu1J0sxsA_JVqX3ozQg5Ap7dtzTiJeTQdl_lGS3yPxaUPUphHDGoCGzaQg1LLh1z3m7M2yhdU3w4TA2UeB5kcxImE_be9SNkKMjWqZCl7rIbZNsDiB3f1-MRUZTLKz2URtCFFJxgs6iMS4TQLEDetmUPvJEGdezMIbsrdM4EpUX1-403RDKscnCLAxWcTZpvRaHHtzCZ1uhrCOe9CId8EucNx87xZWdkyFRBT7gTz7Uyk1zC1HNXOsNGy4rmy9z5VPDRfE8RWvr-8u99DOw3mcRX3vQFpDkzwacc7THagcfw667aYqs9vPdv8WSqkwv6YtuUq9eCoFbLH4jaew0sZ7DvRKlAtjqWZauZdbJfluynsKMV1xDUPx21NIvl-TwZYf07POWDFdGfRDmJ19t9HIKecRsNA98VpzYu6a2SrLf8jzNy0]--></g></svg>