<?xml version="1.0" encoding="us-ascii" standalone="no"?><svg xmlns="http://www.w3.org/2000/svg" xmlns:xlink="http://www.w3.org/1999/xlink" contentStyleType="text/css" height="1050px" preserveAspectRatio="none" style="width:1027px;height:1050px;" version="1.1" viewBox="0 0 1027 1050" width="1027.0833px" zoomAndPan="magnify"><defs/><g><!--cluster cd--><g id="cluster_cd"><rect fill="none" height="1020.8333" rx="4.1667" ry="4.1667" style="stroke:#033C73;stroke-width:1.0416666666666667;" width="996.875" x="17.7083" y="17.7083"/><line style="stroke:#033C73;stroke-width:1.0416666666666667;" x1="17.7083" x2="1014.5833" y1="49.3168" y2="49.3168"/><text fill="#000000" font-family="Verdana" font-size="12.5" font-weight="bold" lengthAdjust="spacing" textLength="114.5833" x="458.8542" y="38.3626">classify_diabetes()</text></g><!--entity sssy--><g id="elem_sssy"><path d="M837.5,83.3333 C837.5,72.9167 865.625,72.9167 865.625,72.9167 C865.625,72.9167 893.75,72.9167 893.75,83.3333 L893.75,120.1501 C893.75,130.5668 865.625,130.5668 865.625,130.5668 C865.625,130.5668 837.5,130.5668 837.5,120.1501 L837.5,83.3333 " fill="none" style="stroke:#2FA4E7;stroke-width:1.0416666666666667;"/><path d="M837.5,83.3333 C837.5,93.75 865.625,93.75 865.625,93.75 C865.625,93.75 893.75,93.75 893.75,83.3333 " fill="none" style="stroke:#2FA4E7;stroke-width:1.0416666666666667;"/><text fill="#000000" font-family="Verdana" font-size="12.5" lengthAdjust="spacing" textLength="25" x="853.125" y="116.4876">sssy</text></g><!--entity sysi--><g id="elem_sysi"><path d="M930.7292,83.3333 C930.7292,72.9167 957.2917,72.9167 957.2917,72.9167 C957.2917,72.9167 983.8542,72.9167 983.8542,83.3333 L983.8542,120.1501 C983.8542,130.5668 957.2917,130.5668 957.2917,130.5668 C957.2917,130.5668 930.7292,130.5668 930.7292,120.1501 L930.7292,83.3333 " fill="none" style="stroke:#2FA4E7;stroke-width:1.0416666666666667;"/><path d="M930.7292,83.3333 C930.7292,93.75 957.2917,93.75 957.2917,93.75 C957.2917,93.75 983.8542,93.75 983.8542,83.3333 " fill="none" style="stroke:#2FA4E7;stroke-width:1.0416666666666667;"/><text fill="#000000" font-family="Verdana" font-size="12.5" lengthAdjust="spacing" textLength="21.875" x="946.3542" y="116.4876">sysi</text></g><!--entity lpr_diag--><g id="elem_lpr_diag"><path d="M129.1667,83.3333 C129.1667,72.9167 167.7083,72.9167 167.7083,72.9167 C167.7083,72.9167 206.25,72.9167 206.25,83.3333 L206.25,120.1501 C206.25,130.5668 167.7083,130.5668 167.7083,130.5668 C167.7083,130.5668 129.1667,130.5668 129.1667,120.1501 L129.1667,83.3333 " fill="none" style="stroke:#2FA4E7;stroke-width:1.0416666666666667;"/><path d="M129.1667,83.3333 C129.1667,93.75 167.7083,93.75 167.7083,93.75 C167.7083,93.75 206.25,93.75 206.25,83.3333 " fill="none" style="stroke:#2FA4E7;stroke-width:1.0416666666666667;"/><text fill="#000000" font-family="Verdana" font-size="12.5" lengthAdjust="spacing" textLength="45.8333" x="144.7917" y="116.4876">lpr_diag</text></g><!--entity lpr_adm--><g id="elem_lpr_adm"><path d="M243.2292,83.3333 C243.2292,72.9167 282.2917,72.9167 282.2917,72.9167 C282.2917,72.9167 321.3542,72.9167 321.3542,83.3333 L321.3542,120.1501 C321.3542,130.5668 282.2917,130.5668 282.2917,130.5668 C282.2917,130.5668 243.2292,130.5668 243.2292,120.1501 L243.2292,83.3333 " fill="none" style="stroke:#2FA4E7;stroke-width:1.0416666666666667;"/><path d="M243.2292,83.3333 C243.2292,93.75 282.2917,93.75 282.2917,93.75 C282.2917,93.75 321.3542,93.75 321.3542,83.3333 " fill="none" style="stroke:#2FA4E7;stroke-width:1.0416666666666667;"/><text fill="#000000" font-family="Verdana" font-size="12.5" lengthAdjust="spacing" textLength="46.875" x="258.8542" y="116.4876">lpr_adm</text></g><!--entity lmdb--><g id="elem_lmdb"><path d="M608.3333,83.3333 C608.3333,72.9167 638.5417,72.9167 638.5417,72.9167 C638.5417,72.9167 668.75,72.9167 668.75,83.3333 L668.75,120.1501 C668.75,130.5668 638.5417,130.5668 638.5417,130.5668 C638.5417,130.5668 608.3333,130.5668 608.3333,120.1501 L608.3333,83.3333 " fill="none" style="stroke:#2FA4E7;stroke-width:1.0416666666666667;"/><path d="M608.3333,83.3333 C608.3333,93.75 638.5417,93.75 638.5417,93.75 C638.5417,93.75 668.75,93.75 668.75,83.3333 " fill="none" style="stroke:#2FA4E7;stroke-width:1.0416666666666667;"/><text fill="#000000" font-family="Verdana" font-size="12.5" lengthAdjust="spacing" textLength="29.1667" x="623.9583" y="116.4876">lmdb</text></g><!--entity lab_forsker--><g id="elem_lab_forsker"><path d="M705.2083,83.3333 C705.2083,72.9167 753.125,72.9167 753.125,72.9167 C753.125,72.9167 801.0417,72.9167 801.0417,83.3333 L801.0417,120.1501 C801.0417,130.5668 753.125,130.5668 753.125,130.5668 C753.125,130.5668 705.2083,130.5668 705.2083,120.1501 L705.2083,83.3333 " fill="none" style="stroke:#2FA4E7;stroke-width:1.0416666666666667;"/><path d="M705.2083,83.3333 C705.2083,93.75 753.125,93.75 753.125,93.75 C753.125,93.75 801.0417,93.75 801.0417,83.3333 " fill="none" style="stroke:#2FA4E7;stroke-width:1.0416666666666667;"/><text fill="#000000" font-family="Verdana" font-size="12.5" lengthAdjust="spacing" textLength="64.5833" x="720.8333" y="116.4876">lab_forsker</text></g><!--entity kontakter--><g id="elem_kontakter"><path d="M484.8958,83.3333 C484.8958,72.9167 528.125,72.9167 528.125,72.9167 C528.125,72.9167 571.3542,72.9167 571.3542,83.3333 L571.3542,120.1501 C571.3542,130.5668 528.125,130.5668 528.125,130.5668 C528.125,130.5668 484.8958,130.5668 484.8958,120.1501 L484.8958,83.3333 " fill="none" style="stroke:#2FA4E7;stroke-width:1.0416666666666667;"/><path d="M484.8958,83.3333 C484.8958,93.75 528.125,93.75 528.125,93.75 C528.125,93.75 571.3542,93.75 571.3542,83.3333 " fill="none" style="stroke:#2FA4E7;stroke-width:1.0416666666666667;"/><text fill="#000000" font-family="Verdana" font-size="12.5" lengthAdjust="spacing" textLength="55.2083" x="500.5208" y="116.4876">kontakter</text></g><!--entity diagnoser--><g id="elem_diagnoser"><path d="M358.3333,83.3333 C358.3333,72.9167 403.125,72.9167 403.125,72.9167 C403.125,72.9167 447.9167,72.9167 447.9167,83.3333 L447.9167,120.1501 C447.9167,130.5668 403.125,130.5668 403.125,130.5668 C403.125,130.5668 358.3333,130.5668 358.3333,120.1501 L358.3333,83.3333 " fill="none" style="stroke:#2FA4E7;stroke-width:1.0416666666666667;"/><path d="M358.3333,83.3333 C358.3333,93.75 403.125,93.75 403.125,93.75 C403.125,93.75 447.9167,93.75 447.9167,83.3333 " fill="none" style="stroke:#2FA4E7;stroke-width:1.0416666666666667;"/><text fill="#000000" font-family="Verdana" font-size="12.5" lengthAdjust="spacing" textLength="58.3333" x="373.9583" y="116.4876">diagnoser</text></g><!--entity bef--><g id="elem_bef"><path d="M42.7083,83.3333 C42.7083,72.9167 67.7083,72.9167 67.7083,72.9167 C67.7083,72.9167 92.7083,72.9167 92.7083,83.3333 L92.7083,120.1501 C92.7083,130.5668 67.7083,130.5668 67.7083,130.5668 C67.7083,130.5668 42.7083,130.5668 42.7083,120.1501 L42.7083,83.3333 " fill="none" style="stroke:#2FA4E7;stroke-width:1.0416666666666667;"/><path d="M42.7083,83.3333 C42.7083,93.75 67.7083,93.75 67.7083,93.75 C67.7083,93.75 92.7083,93.75 92.7083,83.3333 " fill="none" style="stroke:#2FA4E7;stroke-width:1.0416666666666667;"/><text fill="#000000" font-family="Verdana" font-size="12.5" lengthAdjust="spacing" textLength="18.75" x="58.3333" y="116.4876">bef</text></g><!--entity lpr2--><g id="elem_lpr2"><polygon fill="none" points="134.375,192.7083,248.9583,192.7083,259.375,216.8459,248.9583,240.9835,134.375,240.9835" style="stroke:#BABDBF;stroke-width:1.0416666666666667;"/><text fill="#000000" font-family="Verdana" font-size="12.5" lengthAdjust="spacing" textLength="83.3333" x="150" y="221.6959">prepare_lpr2()</text></g><!--entity lpr3--><g id="elem_lpr3"><polygon fill="none" points="295.8333,192.7083,410.4167,192.7083,420.8333,216.8459,410.4167,240.9835,295.8333,240.9835" style="stroke:#BABDBF;stroke-width:1.0416666666666667;"/><text fill="#000000" font-family="Verdana" font-size="12.5" lengthAdjust="spacing" textLength="83.3333" x="311.4583" y="221.6959">prepare_lpr3()</text></g><!--entity ex_pregnancy--><g id="elem_ex_pregnancy"><polygon fill="#FFA500" points="263.0208,523.9583,414.0625,523.9583,424.4792,548.0959,414.0625,572.2335,263.0208,572.2335" style="stroke:#BABDBF;stroke-width:1.0416666666666667;"/><text fill="#000000" font-family="Verdana" font-size="12.5" lengthAdjust="spacing" textLength="119.7917" x="278.6458" y="552.9459">exclude_pregnancy()</text></g><!--entity ex_pcos--><g id="elem_ex_pcos"><polygon fill="#FFA500" points="252.0833,413.5417,425,413.5417,435.4167,437.6792,425,461.8168,252.0833,461.8168" style="stroke:#BABDBF;stroke-width:1.0416666666666667;"/><text fill="#000000" font-family="Verdana" font-size="12.5" lengthAdjust="spacing" textLength="141.6667" x="267.7083" y="442.5293">exclude_potential_pcos()</text></g><!--entity pregnancy--><g id="elem_pregnancy"><polygon fill="none" points="42.7083,413.5417,205.2083,413.5417,215.625,437.6792,205.2083,461.8168,42.7083,461.8168" style="stroke:#BABDBF;stroke-width:1.0416666666666667;"/><text fill="#000000" font-family="Verdana" font-size="12.5" lengthAdjust="spacing" textLength="131.25" x="58.3333" y="442.5293">get_pregnancy_dates()</text></g><!--entity in_diagnoses--><g id="elem_in_diagnoses"><polygon fill="#ADD8E6" points="150.5208,303.125,351.5625,303.125,361.9792,327.2626,351.5625,351.4001,150.5208,351.4001" style="stroke:#BABDBF;stroke-width:1.0416666666666667;"/><text fill="#000000" font-family="Verdana" font-size="12.5" lengthAdjust="spacing" textLength="169.7917" x="166.1458" y="332.1126">include_diabetes_diagnoses()</text></g><!--entity in_hba1c--><g id="elem_in_hba1c"><polygon fill="#ADD8E6" points="615.1042,303.125,736.9792,303.125,747.3958,327.2626,736.9792,351.4001,615.1042,351.4001" style="stroke:#BABDBF;stroke-width:1.0416666666666667;"/><text fill="#000000" font-family="Verdana" font-size="12.5" lengthAdjust="spacing" textLength="90.625" x="630.7292" y="332.1126">include_hba1c()</text></g><!--entity in_podiatrist--><g id="elem_in_podiatrist"><polygon fill="#ADD8E6" points="783.8542,303.125,978.6458,303.125,989.0625,327.2626,978.6458,351.4001,783.8542,351.4001" style="stroke:#BABDBF;stroke-width:1.0416666666666667;"/><text fill="#000000" font-family="Verdana" font-size="12.5" lengthAdjust="spacing" textLength="163.5417" x="799.4792" y="332.1126">include_podiatrist_services()</text></g><!--entity in_gld--><g id="elem_in_gld"><polygon fill="#ADD8E6" points="398.4375,303.125,568.2292,303.125,578.6458,327.2626,568.2292,351.4001,398.4375,351.4001" style="stroke:#BABDBF;stroke-width:1.0416666666666667;"/><text fill="#000000" font-family="Verdana" font-size="12.5" lengthAdjust="spacing" textLength="138.5417" x="414.0625" y="332.1126">include_gld_purchases()</text></g><!--entity add_ins--><g id="elem_add_ins"><polygon fill="none" points="242.7083,634.375,434.375,634.375,444.7917,658.5126,434.375,682.6501,242.7083,682.6501" style="stroke:#BABDBF;stroke-width:1.0416666666666667;"/><text fill="#000000" font-family="Verdana" font-size="12.5" lengthAdjust="spacing" textLength="160.4167" x="258.3333" y="663.3626">add_insulin_purchase_cols()</text></g><!--entity add_majority_t1d--><g id="elem_add_majority_t1d"><polygon fill="none" points="481.25,634.375,641.6667,634.375,652.0833,658.5126,641.6667,682.6501,481.25,682.6501" style="stroke:#BABDBF;stroke-width:1.0416666666666667;"/><text fill="#000000" font-family="Verdana" font-size="12.5" lengthAdjust="spacing" textLength="129.1667" x="496.875" y="663.3626">add_majority_t1d_col()</text></g><!--entity join_inclusion--><g id="elem_join_inclusion"><polygon fill="none" points="503.125,744.7917,619.7917,744.7917,630.2083,768.9292,619.7917,793.0668,503.125,793.0668" style="stroke:#BABDBF;stroke-width:1.0416666666666667;"/><text fill="#000000" font-family="Verdana" font-size="12.5" lengthAdjust="spacing" textLength="85.4167" x="518.75" y="773.7793">join_inclusion()</text></g><!--entity inclusion_date--><g id="elem_inclusion_date"><polygon fill="none" points="476.0417,855.2083,646.875,855.2083,657.2917,879.3459,646.875,903.4835,476.0417,903.4835" style="stroke:#BABDBF;stroke-width:1.0416666666666667;"/><text fill="#000000" font-family="Verdana" font-size="12.5" lengthAdjust="spacing" textLength="139.5833" x="491.6667" y="884.1959">create_inclusion_dates()</text></g><!--entity classify_t1d--><g id="elem_classify_t1d"><polygon fill="none" points="508.3333,965.625,614.5833,965.625,625,989.7626,614.5833,1013.9001,508.3333,1013.9001" style="stroke:#BABDBF;stroke-width:1.0416666666666667;"/><text fill="#000000" font-family="Verdana" font-size="12.5" lengthAdjust="spacing" textLength="75" x="523.9583" y="994.6126">classify_t1d()</text></g><!--link lpr_diag to lpr2--><g id="link_lpr_diag_lpr2"><path d="M174.8438,130.25 C179.7708,149.3333 184.6769,168.3652 189.3331,186.3964 " fill="none" id="lpr_diag-to-lpr2" style="stroke:#2FA4E7;stroke-width:3.125;"/><polygon fill="#2FA4E7" points="190.8958,192.4479,192.5861,182.3289,189.5936,187.405,184.5175,184.4125,190.8958,192.4479" style="stroke:#2FA4E7;stroke-width:3.125;"/></g><!--link lpr_adm to lpr2--><g id="link_lpr_adm_lpr2"><path d="M261.3958,130.25 C246.9792,149.3333 231.7906,169.4316 218.1552,187.4628 " fill="none" id="lpr_adm-to-lpr2" style="stroke:#2FA4E7;stroke-width:3.125;"/><polygon fill="#2FA4E7" points="214.3854,192.4479,223.3635,187.4835,217.5269,188.2937,216.7167,182.4571,214.3854,192.4479" style="stroke:#2FA4E7;stroke-width:3.125;"/></g><!--link kontakter to lpr3--><g id="link_kontakter_lpr3"><path d="M486.5938,130.25 C457.8229,149.3958 425.1826,171.1315 398.068,189.1732 " fill="none" id="kontakter-to-lpr3" style="stroke:#2FA4E7;stroke-width:3.125;"/><polygon fill="#2FA4E7" points="392.8646,192.6354,402.9778,190.9109,397.2007,189.7502,398.3615,183.9731,392.8646,192.6354" style="stroke:#2FA4E7;stroke-width:3.125;"/></g><!--link diagnoser to lpr3--><g id="link_diagnoser_lpr3"><path d="M392.1667,130.25 C384.6042,149.3333 376.9693,168.6063 369.8235,186.6376 " fill="none" id="diagnoser-to-lpr3" style="stroke:#2FA4E7;stroke-width:3.125;"/><polygon fill="#2FA4E7" points="367.5208,192.4479,374.8484,185.2675,369.4397,187.606,367.1013,182.1973,367.5208,192.4479" style="stroke:#2FA4E7;stroke-width:3.125;"/></g><!--link sssy to in_podiatrist--><g id="link_sssy_in_podiatrist"><path d="M868.2188,130.4479 C872.375,175.0208 879.8682,255.3394 883.7224,296.7144 " fill="none" id="sssy-to-in_podiatrist" style="stroke:#2FA4E7;stroke-width:3.125;"/><polygon fill="#2FA4E7" points="884.3021,302.9375,887.5813,293.2165,883.819,297.7516,879.2838,293.9894,884.3021,302.9375" style="stroke:#2FA4E7;stroke-width:3.125;"/></g><!--link sysi to in_podiatrist--><g id="link_sysi_in_podiatrist"><path d="M948.4688,130.4479 C934.3333,175.0208 908.7843,255.6046 895.6697,296.9796 " fill="none" id="sysi-to-in_podiatrist" style="stroke:#2FA4E7;stroke-width:3.125;"/><polygon fill="#2FA4E7" points="893.7813,302.9375,900.5859,295.2597,895.355,297.9726,892.642,292.7417,893.7813,302.9375" style="stroke:#2FA4E7;stroke-width:3.125;"/></g><!--link in_podiatrist to join_inclusion--><g id="link_in_podiatrist_join_inclusion"><path d="M876.3646,351.3438 C849.2188,411.9792 769.875,578.1771 668.75,690.625 C649.8854,711.5938 629.7947,727.2322 609.1177,741.1906 " fill="none" id="in_podiatrist-to-join_inclusion" style="stroke:#2FA4E7;stroke-width:3.125;"/><polygon fill="#2FA4E7" points="603.9375,744.6875,614.039,742.8955,608.2543,741.7734,609.3764,735.9887,603.9375,744.6875" style="stroke:#2FA4E7;stroke-width:3.125;"/></g><!--link lab_forsker to in_hba1c--><g id="link_lab_forsker_in_hba1c"><path d="M744.1667,130.4479 C729.8333,175.0208 703.9025,255.6124 690.6004,296.9874 " fill="none" id="lab_forsker-to-in_hba1c" style="stroke:#2FA4E7;stroke-width:3.125;"/><polygon fill="#2FA4E7" points="688.6875,302.9375,695.5236,295.2877,690.2816,297.9791,687.5902,292.7371,688.6875,302.9375" style="stroke:#2FA4E7;stroke-width:3.125;"/></g><!--link in_hba1c to ex_pregnancy--><g id="link_in_hba1c_ex_pregnancy"><path d="M645.7708,351.125 C580.9479,393.1354 449.3492,478.4344 384.5054,520.4552 " fill="none" id="in_hba1c-to-ex_pregnancy" style="stroke:#2FA4E7;stroke-width:3.125;"/><polygon fill="#2FA4E7" points="379.2604,523.8542,389.3938,522.2524,383.6312,521.0217,384.8619,515.2591,379.2604,523.8542" style="stroke:#2FA4E7;stroke-width:3.125;"/></g><!--link lmdb to in_gld--><g id="link_lmdb_in_gld"><path d="M619.8438,130.4479 C589.9271,175.0208 535.3061,256.3731 507.5352,297.7481 " fill="none" id="lmdb-to-in_gld" style="stroke:#2FA4E7;stroke-width:3.125;"/><polygon fill="#2FA4E7" points="504.0521,302.9375,512.7364,297.4754,506.9547,298.613,505.8172,292.8313,504.0521,302.9375" style="stroke:#2FA4E7;stroke-width:3.125;"/></g><!--link in_gld to ex_pcos--><g id="link_in_gld_ex_pcos"><path d="M457.8333,351.1042 C433.2604,369.4792 403.9726,391.4009 379.4205,409.7759 " fill="none" id="in_gld-to-ex_pcos" style="stroke:#2FA4E7;stroke-width:3.125;"/><polygon fill="#2FA4E7" points="374.4167,413.5208,384.419,411.2394,378.5865,410.4001,379.4258,404.5676,374.4167,413.5208" style="stroke:#2FA4E7;stroke-width:3.125;"/></g><!--link ex_pcos to ex_pregnancy--><g id="link_ex_pcos_ex_pregnancy"><path d="M343.75,461.5208 C343.75,479.8958 343.75,499.3125 343.75,517.6875 " fill="none" id="ex_pcos-to-ex_pregnancy" style="stroke:#2FA4E7;stroke-width:3.125;"/><polygon fill="#2FA4E7" points="343.75,523.9375,347.9167,514.5625,343.75,518.7292,339.5833,514.5625,343.75,523.9375" style="stroke:#2FA4E7;stroke-width:3.125;"/></g><!--link ex_pregnancy to add_ins--><g id="link_ex_pregnancy_add_ins"><path d="M343.75,571.9375 C343.75,590.3125 343.75,609.7292 343.75,628.1042 " fill="none" id="ex_pregnancy-to-add_ins" style="stroke:#2FA4E7;stroke-width:3.125;"/><polygon fill="#2FA4E7" points="343.75,634.3542,347.9167,624.9792,343.75,629.1458,339.5833,624.9792,343.75,634.3542" style="stroke:#2FA4E7;stroke-width:3.125;"/></g><!--link lpr2 to in_diagnoses--><g id="link_lpr2_in_diagnoses"><path d="M209.4688,240.6875 C219.5417,259.0625 230.5998,279.2486 240.6727,297.6236 " fill="none" id="lpr2-to-in_diagnoses" style="stroke:#2FA4E7;stroke-width:3.125;"/><polygon fill="#2FA4E7" points="243.6771,303.1042,242.8242,292.8804,241.1735,298.537,235.5169,296.8863,243.6771,303.1042" style="stroke:#2FA4E7;stroke-width:3.125;"/></g><!--link lpr3 to in_diagnoses--><g id="link_lpr3_in_diagnoses"><path d="M336.6875,240.6875 C319.3646,259.0625 299.4748,280.1815 282.1519,298.5565 " fill="none" id="lpr3-to-in_diagnoses" style="stroke:#2FA4E7;stroke-width:3.125;"/><polygon fill="#2FA4E7" points="277.8646,303.1042,287.3273,299.1408,281.4373,299.3144,281.2638,293.4244,277.8646,303.1042" style="stroke:#2FA4E7;stroke-width:3.125;"/></g><!--link in_diagnoses to add_majority_t1d--><g id="link_in_diagnoses_add_majority_t1d"><path d="M358.2396,351.1458 C391.4688,362.7917 426.3854,380.0104 452.0833,405.2083 C512.25,464.1979 488.7188,504.1563 525,580.2083 C533.8438,598.7396 541.8866,613.7177 550.4075,628.8844 " fill="none" id="in_diagnoses-to-add_majority_t1d" style="stroke:#2FA4E7;stroke-width:3.125;"/><polygon fill="#2FA4E7" points="553.4688,634.3333,552.5094,624.1191,550.9177,629.7925,545.2442,628.2008,553.4688,634.3333" style="stroke:#2FA4E7;stroke-width:3.125;"/></g><!--link add_majority_t1d to join_inclusion--><g id="link_add_majority_t1d_join_inclusion"><path d="M566.6667,682.3542 C566.6667,700.7292 566.6667,720.1458 566.6667,738.5208 " fill="none" id="add_majority_t1d-to-join_inclusion" style="stroke:#2FA4E7;stroke-width:3.125;"/><polygon fill="#2FA4E7" points="566.6667,744.7708,570.8333,735.3958,566.6667,739.5625,562.5,735.3958,566.6667,744.7708" style="stroke:#2FA4E7;stroke-width:3.125;"/></g><!--link bef to ex_pcos--><g id="link_bef_ex_pcos"><path d="M66.9896,130.4375 C67.1875,182.1771 75.0104,293.8333 134.375,359.375 C144.1563,370.1771 208.8637,392.9678 265.4262,411.5303 " fill="none" id="bef-to-ex_pcos" style="stroke:#2FA4E7;stroke-width:3.125;"/><polygon fill="#2FA4E7" points="271.3646,413.4792,263.7562,406.597,266.4159,411.8551,261.1578,414.5148,271.3646,413.4792" style="stroke:#2FA4E7;stroke-width:3.125;"/></g><!--link lpr2 to pregnancy--><g id="link_lpr2_pregnancy"><path d="M154.2708,240.8333 C134.8438,253.8646 113.8333,272.1146 103.125,294.7917 C84.75,333.6875 100.1328,378.619 113.9662,407.6294 " fill="none" id="lpr2-to-pregnancy" style="stroke:#2FA4E7;stroke-width:3.125;"/><polygon fill="#2FA4E7" points="116.6563,413.2708,116.3821,403.0153,114.4145,408.5696,108.8602,406.602,116.6563,413.2708" style="stroke:#2FA4E7;stroke-width:3.125;"/></g><!--link lpr3 to pregnancy--><g id="link_lpr3_pregnancy"><path d="M299.8958,240.6354 C292.25,243.5 284.5,246.3438 277.0833,248.9583 C214.2604,271.1042 174.6042,241.6979 134.375,294.7917 C108.2917,329.2188 114.0963,376.9353 121.2213,407.3728 " fill="none" id="lpr3-to-pregnancy" style="stroke:#2FA4E7;stroke-width:3.125;"/><polygon fill="#2FA4E7" points="122.6458,413.4583,124.566,403.3804,121.4587,408.3871,116.452,405.2798,122.6458,413.4583" style="stroke:#2FA4E7;stroke-width:3.125;"/></g><!--link pregnancy to ex_pregnancy--><g id="link_pregnancy_ex_pregnancy"><path d="M174.6771,461.5208 C211.0938,479.8958 256.3267,502.7464 292.7329,521.1214 " fill="none" id="pregnancy-to-ex_pregnancy" style="stroke:#2FA4E7;stroke-width:3.125;"/><polygon fill="#2FA4E7" points="298.3125,523.9375,291.8205,515.9936,293.6628,521.5907,288.0657,523.433,298.3125,523.9375" style="stroke:#2FA4E7;stroke-width:3.125;"/></g><!--link add_ins to join_inclusion--><g id="link_add_ins_join_inclusion"><path d="M391.0208,682.3542 C428.8542,700.7292 476.0244,723.6641 513.8369,742.0391 " fill="none" id="add_ins-to-join_inclusion" style="stroke:#2FA4E7;stroke-width:3.125;"/><polygon fill="#2FA4E7" points="519.4583,744.7708,512.8474,736.9256,514.7738,742.4944,509.2051,744.4209,519.4583,744.7708" style="stroke:#2FA4E7;stroke-width:3.125;"/></g><!--link join_inclusion to inclusion_date--><g id="link_join_inclusion_inclusion_date"><path d="M566.6667,792.7708 C566.6667,811.1458 566.6667,830.5625 566.6667,848.9375 " fill="none" id="join_inclusion-to-inclusion_date" style="stroke:#2FA4E7;stroke-width:3.125;"/><polygon fill="#2FA4E7" points="566.6667,855.1875,570.8333,845.8125,566.6667,849.9792,562.5,845.8125,566.6667,855.1875" style="stroke:#2FA4E7;stroke-width:3.125;"/></g><!--link inclusion_date to classify_t1d--><g id="link_inclusion_date_classify_t1d"><path d="M566.6667,903.1875 C566.6667,921.5625 566.6667,940.9792 566.6667,959.3542 " fill="none" id="inclusion_date-to-classify_t1d" style="stroke:#2FA4E7;stroke-width:3.125;"/><polygon fill="#2FA4E7" points="566.6667,965.6042,570.8333,956.2292,566.6667,960.3958,562.5,956.2292,566.6667,965.6042" style="stroke:#2FA4E7;stroke-width:3.125;"/></g><!--SRC=[ZLN1Rjim3BtxAxHUrWB9XZQt8SYX0_ORXYmnjXf5CYHvg37atqSvfct9QTgSaaVoyOdYKxw51ix01BXE0pTRsmMj31Hx7teDXuABeApPCC6Tt3390w-uXmrp808tjGRshs3u-MDD-6srTQpIN9oAI_536Q4xZzLZoYlYjRETaTT4hUecLBg3c0plzvEjmsunS_zpL5OqIWBRxwSsXmFp0HpOqBT0qOatZHRnF4nexhqwzgLKl880_l69SS-474G4MmDEnusAwEpCUzzdIEzLYkZMHT9wZN9vpi2ph3A4L-NHEdy2bmPEE6H-2ZaS6ndhSxY28mANOdsKwwMoXzP1onsKgElbyUaXdZr-_IXdD-ViFc4UnYwXnEhQS2FwiHJUPoYzdTlbDe09Ykko5TOlEF3NdNAKDBSfSI10jHFwYVvXgL00BKP9CoOYPMOeNSARF4t5dyLSElpyGbbhiKbmoeSIh_Ul4il-S_0BJBMMPTivqV3a30YlYk_diagnosisKjPAkCx7VkFTAMmcYZ7-AhcpD-iKw4lmxEC-OlqPOYwK-cRnJwJkh4e1U-85GxmwkVKP1DIDAsZPm4LZTbBY4H-ZqAY6V0x-PrjjmVoqEZs9JGPcC3eeyc-CnZP9u6_sEAcQGqm8xv3Gqco2p60pz7DGBeqCMCzosNVOKtZIUO7YNWfD2rpn9VkphdYfaqB63dnsICoZ5sfOX8HeSKH9BElw5dwbiGuBL_McJmy3TfVB-U5scVuxXQU-9sQPQkRGnzDUFwluqQo1dIBSprsPbY_s0nVxcmCazpb02QjIp0TIJQoSKAtXB4C68UGc2IA9oiemGUtB7MdwGD3OfnByHy0]--></g></svg>
